<svg id="Layer_1" enable-background="new 0 0 512 512" height="512" viewBox="0 0 512 512" width="512" xmlns="http://www.w3.org/2000/svg"><g><path d="m504.5 248.404c-4.142 0-7.5 3.358-7.5 7.5v115.671h-381.27c-4.142 0-7.5 3.358-7.5 7.5s3.358 7.5 7.5 7.5h381.27v22.468c0 3.59-2.928 6.512-6.526 6.512h-468.948c-3.599 0-6.526-2.921-6.526-6.512v-22.468h66.084c4.142 0 7.5-3.358 7.5-7.5s-3.358-7.5-7.5-7.5h-66.084v-274.147c0-3.59 2.928-6.512 6.526-6.512h20.364c4.142 0 7.5-3.358 7.5-7.5s-3.358-7.5-7.5-7.5h-20.364c-11.869 0-21.526 9.65-21.526 21.512v311.614c0 11.862 9.657 21.512 21.526 21.512h43.005v37.782c-8.73 3.091-15 11.418-15 21.181 0 12.387 10.093 22.464 22.5 22.464s22.5-10.078 22.5-22.464c0-9.762-6.27-18.09-15-21.181v-37.782h127.579l-11.596 36.479h-19.531c-12.397 0-22.484 10.086-22.484 22.484s10.088 22.483 22.485 22.483h95.863c4.142 0 7.5-3.358 7.5-7.5s-3.358-7.5-7.5-7.5h-95.863c-4.126 0-7.484-3.357-7.484-7.484s3.357-7.484 7.484-7.484h160.032c4.126 0 7.484 3.357 7.484 7.484s-3.357 7.484-7.484 7.484h-28.959c-4.142 0-7.5 3.358-7.5 7.5s3.358 7.5 7.5 7.5h28.959c12.397 0 22.484-10.086 22.484-22.484s-10.086-22.484-22.484-22.484h-19.531l-11.596-36.479h127.579v37.782c-8.73 3.091-15 11.418-15 21.181 0 12.387 10.093 22.464 22.5 22.464s22.5-10.078 22.5-22.464c0-9.762-6.27-18.09-15-21.181v-37.782h43.005c11.87 0 21.526-9.65 21.526-21.512v-153.137c.001-4.143-3.357-7.5-7.499-7.5zm-432.469 248.577c-4.136 0-7.5-3.349-7.5-7.464s3.364-7.464 7.5-7.464 7.5 3.348 7.5 7.464-3.364 7.464-7.5 7.464zm139.223-29.949 11.596-36.479h66.301l11.596 36.479zm228.715 29.949c-4.136 0-7.5-3.349-7.5-7.464s3.364-7.464 7.5-7.464 7.5 3.348 7.5 7.464-3.364 7.464-7.5 7.464z"/><path d="m490.474 75.916h-20.803c-4.142 0-7.5 3.358-7.5 7.5s3.358 7.5 7.5 7.5h20.803c3.599 0 6.526 2.921 6.526 6.512v123.821c0 4.142 3.358 7.5 7.5 7.5s7.5-3.358 7.5-7.5v-123.821c0-11.862-9.657-21.512-21.526-21.512z"/><path d="m285.847 90.916h123.365c4.142 0 7.5-3.358 7.5-7.5s-3.358-7.5-7.5-7.5h-54.183v-32.271c8.73-3.091 15-11.418 15-21.181 0-12.387-10.093-22.464-22.5-22.464s-22.5 10.078-22.5 22.464c0 9.762 6.27 18.09 15 21.181v32.271h-54.183c-4.142 0-7.5 3.358-7.5 7.5s3.359 7.5 7.501 7.5zm61.682-75.916c4.136 0 7.5 3.349 7.5 7.464s-3.364 7.464-7.5 7.464-7.5-3.348-7.5-7.464 3.365-7.464 7.5-7.464z"/><path d="m101.841 90.916h124.381c4.142 0 7.5-3.358 7.5-7.5s-3.358-7.5-7.5-7.5h-54.69v-32.271c8.73-3.091 15-11.418 15-21.181 0-12.387-10.093-22.464-22.5-22.464s-22.5 10.078-22.5 22.464c0 9.762 6.27 18.09 15 21.181v32.271h-54.69c-4.142 0-7.5 3.358-7.5 7.5s3.357 7.5 7.499 7.5zm62.19-75.916c4.136 0 7.5 3.349 7.5 7.464s-3.364 7.464-7.5 7.464-7.5-3.348-7.5-7.464 3.365-7.464 7.5-7.464z"/><path d="m256 147.222c12.407 0 22.5-10.078 22.5-22.464 0-9.762-6.27-18.09-15-21.181v-96.077c0-4.142-3.358-7.5-7.5-7.5s-7.5 3.358-7.5 7.5v96.077c-8.73 3.091-15 11.418-15 21.181 0 12.387 10.093 22.464 22.5 22.464zm0-29.928c4.136 0 7.5 3.348 7.5 7.464s-3.364 7.464-7.5 7.464-7.5-3.349-7.5-7.464c0-4.116 3.364-7.464 7.5-7.464z"/><path d="m64.531 32.283v71.805c-8.73 3.091-15 11.418-15 21.181 0 12.387 10.093 22.464 22.5 22.464s22.5-10.078 22.5-22.464c0-9.762-6.27-18.09-15-21.181v-74.538c0-1.765-.623-3.473-1.757-4.824l-18.524-22.05c-2.665-3.172-7.396-3.583-10.567-.918s-3.583 7.396-.918 10.567zm7.5 85.521c4.136 0 7.5 3.348 7.5 7.464s-3.364 7.464-7.5 7.464-7.5-3.349-7.5-7.464 3.365-7.464 7.5-7.464z"/><path d="m439.969 147.222c12.407 0 22.5-10.078 22.5-22.464 0-9.762-6.27-18.09-15-21.181v-71.295l16.767-19.958c2.664-3.171 2.253-7.902-.918-10.567-3.172-2.664-7.902-2.254-10.567.918l-18.524 22.05c-1.135 1.351-1.757 3.06-1.757 4.824v74.027c-8.73 3.091-15 11.418-15 21.181-.001 12.388 10.092 22.465 22.499 22.465zm0-29.928c4.136 0 7.5 3.348 7.5 7.464s-3.364 7.464-7.5 7.464-7.5-3.349-7.5-7.464c0-4.116 3.364-7.464 7.5-7.464z"/><path d="m252.509 301.098c4.142 0 7.5-3.358 7.5-7.5v-102.687c0-4.142-3.358-7.5-7.5-7.5h-44.009c-4.142 0-7.5 3.358-7.5 7.5v102.688c0 4.142 3.358 7.5 7.5 7.5s7.5-3.358 7.5-7.5v-43.844h29.009v43.844c0 4.141 3.358 7.499 7.5 7.499zm-36.509-66.343v-36.344h29.009v36.344z"/><path d="m289.018 190.911v102.688c0 4.142 3.358 7.5 7.5 7.5s7.5-3.358 7.5-7.5v-102.688c0-4.142-3.358-7.5-7.5-7.5s-7.5 3.358-7.5 7.5z"/></g></svg>