<svg height="512" viewBox="0 0 64 64" width="512" xmlns="http://www.w3.org/2000/svg"><g id="profits"><path d="m39.65 8.24-7-6a1 1 0 0 0 -1.3 0l-7 6a1 1 0 0 0 .65 1.76h3v7a1 1 0 0 0 1 1h6a1 1 0 0 0 1-1v-7h3a1 1 0 0 0 .65-1.76zm-4.65-.24a1 1 0 0 0 -1 1v7h-4v-7a1 1 0 0 0 -1-1h-1.3l4.3-3.68 4.3 3.68z"/><path d="m61.65 31.24-7-6a1 1 0 0 0 -1.3 0l-7 6a1 1 0 0 0 .65 1.76h3v7a1 1 0 0 0 1 1h6a1 1 0 0 0 1-1v-7h3a1 1 0 0 0 .65-1.76zm-4.65-.24a1 1 0 0 0 -1 1v7h-4v-7a1 1 0 0 0 -1-1h-1.3l4.3-3.68 4.3 3.68z"/><path d="m28 20h8v2h-8z"/><path d="m28 24h8v2h-8z"/><path d="m28 28h8v2h-8z"/><path d="m50 43h8v2h-8z"/><path d="m50 47h8v2h-8z"/><path d="m50 51h8v2h-8z"/><path d="m17.65 31.24-7-6a1 1 0 0 0 -1.3 0l-7 6a1 1 0 0 0 .65 1.76h3v7a1 1 0 0 0 1 1h6a1 1 0 0 0 1-1v-7h3a1 1 0 0 0 .65-1.76zm-4.65-.24a1 1 0 0 0 -1 1v7h-4v-7a1 1 0 0 0 -1-1h-1.3l4.3-3.68 4.3 3.68z"/><path d="m6 43h8v2h-8z"/><path d="m6 47h8v2h-8z"/><path d="m6 51h8v2h-8z"/><path d="m21 18h2v-2h2v-2h-2v-2h-2v2h-2v2h2z"/><path d="m15 24h2v-2h2v-2h-2v-2h-2v2h-2v2h2z"/><path d="m39 14v2h2v2h2v-2h2v-2h-2v-2h-2v2z"/><path d="m45 20v2h2v2h2v-2h2v-2h-2v-2h-2v2z"/><path d="m32 32a15 15 0 1 0 15 15 15.018 15.018 0 0 0 -15-15zm12.95 14h-2a11.089 11.089 0 0 0 -.97-3.6l1.73-1.01a13.022 13.022 0 0 1 1.24 4.61zm-5.61-9.72a13.244 13.244 0 0 1 3.38 3.38l-1.74 1a11.406 11.406 0 0 0 -2.64-2.64zm-6.34-2.23a13.022 13.022 0 0 1 4.61 1.24l-1.01 1.73a11.089 11.089 0 0 0 -3.6-.97zm-2 0v2a11.089 11.089 0 0 0 -3.6.97l-1.01-1.73a13.022 13.022 0 0 1 4.61-1.24zm-6.34 2.23 1 1.74a11.406 11.406 0 0 0 -2.64 2.64l-1.74-1a13.244 13.244 0 0 1 3.38-3.38zm-4.37 5.11 1.73 1.01a11.089 11.089 0 0 0 -.97 3.6h-2a13.022 13.022 0 0 1 1.24-4.61zm-1.24 6.61h2a11.089 11.089 0 0 0 .97 3.6l-1.73 1.01a13.022 13.022 0 0 1 -1.24-4.61zm5.61 9.72a13.244 13.244 0 0 1 -3.38-3.38l1.74-1a11.406 11.406 0 0 0 2.64 2.64zm6.34 2.23a13.022 13.022 0 0 1 -4.61-1.24l1.01-1.73a11.089 11.089 0 0 0 3.6.97zm-8-12.95a9 9 0 1 1 9 9 9.014 9.014 0 0 1 -9-9zm10 12.95v-2a11.089 11.089 0 0 0 3.6-.97l1.01 1.73a13.022 13.022 0 0 1 -4.61 1.24zm6.34-2.23-1-1.74a11.406 11.406 0 0 0 2.64-2.64l1.74 1a13.244 13.244 0 0 1 -3.38 3.38zm4.37-5.11-1.73-1.01a11.089 11.089 0 0 0 .97-3.6h2a13.022 13.022 0 0 1 -1.24 4.61z"/><path d="m33 40h-2v2a2 2 0 0 0 -2 2v2a2 2 0 0 0 2 2h2v2h-4v2h2v2h2v-2a2 2 0 0 0 2-2v-2a2 2 0 0 0 -2-2h-2v-2h4v-2h-2z"/></g></svg>