<svg height="512" viewBox="0 0 64 64" width="512" xmlns="http://www.w3.org/2000/svg"><g id="Detail"><path d="m53 8h-4v-3a3.009 3.009 0 0 0 -3-3h-36a3.009 3.009 0 0 0 -3 3v48a3.009 3.009 0 0 0 3 3h4v3a3.009 3.009 0 0 0 3 3h36a3.009 3.009 0 0 0 3-3v-48a3.009 3.009 0 0 0 -3-3zm-43 46a1 1 0 0 1 -1-1v-48a1 1 0 0 1 1-1h36a1 1 0 0 1 1 1v48a1 1 0 0 1 -1 1zm44 5a1 1 0 0 1 -1 1h-36a1 1 0 0 1 -1-1v-3h30a3.009 3.009 0 0 0 3-3v-43h4a1 1 0 0 1 1 1z"/><path d="m12 15h2v2a1 1 0 0 0 1 1h4a1 1 0 0 0 1-1v-2h2a1 1 0 0 0 1-1v-4a1 1 0 0 0 -1-1h-2v-2a1 1 0 0 0 -1-1h-4a1 1 0 0 0 -1 1v2h-2a1 1 0 0 0 -1 1v4a1 1 0 0 0 1 1zm1-4h2a1 1 0 0 0 1-1v-2h2v2a1 1 0 0 0 1 1h2v2h-2a1 1 0 0 0 -1 1v2h-2v-2a1 1 0 0 0 -1-1h-2z"/><path d="m44 38h-32a1 1 0 0 0 -1 1v12a1 1 0 0 0 1 1h32a1 1 0 0 0 1-1v-12a1 1 0 0 0 -1-1zm-1 12h-30v-10h30z"/><path d="m39 42h2v2h-2z"/><path d="m13 31a3 3 0 0 0 3 3h1a3 3 0 0 0 3-3 1 1 0 0 1 1-1h2.1a4.961 4.961 0 0 0 .732 1.753l-1.49 1.49 1.414 1.414 1.49-1.49a4.969 4.969 0 0 0 1.754.733v2.1h2v-2.1a4.969 4.969 0 0 0 1.753-.732l1.49 1.49 1.414-1.414-1.49-1.49a4.961 4.961 0 0 0 .733-1.754h2.1v-2h-2.1a4.961 4.961 0 0 0 -.732-1.753l1.49-1.49-1.414-1.414-1.49 1.49a4.969 4.969 0 0 0 -1.754-.733v-2.1h-2v2.1a4.969 4.969 0 0 0 -1.753.732l-1.49-1.49-1.414 1.414 1.49 1.49a4.961 4.961 0 0 0 -.733 1.754h-2.1a3 3 0 0 0 -3 3 1 1 0 0 1 -1 1h-1a1 1 0 0 1 -1-1 3 3 0 0 0 -3-3h-1v2h1a1 1 0 0 1 1 1zm15-5a3 3 0 1 1 -3 3 3 3 0 0 1 3-3z"/><path d="m44 6h-18a1 1 0 0 0 -1 1v12a1 1 0 0 0 1 1h18a1 1 0 0 0 1-1v-12a1 1 0 0 0 -1-1zm-1 12h-16v-10h16z"/><path d="m29 10h2v2h-2z"/><path d="m33 10h8v2h-8z"/><path d="m29 14h12v2h-12z"/><path d="m37 22h2v2h-2z"/><path d="m41 22h4v2h-4z"/><path d="m37 26h8v2h-8z"/><path d="m37 30h8v2h-8z"/><path d="m37 34h8v2h-8z"/><path d="m27 28h2v2h-2z"/></g></svg>