<svg id="Capa_1" enable-background="new 0 0 512 512" height="512" viewBox="0 0 512 512" width="512" xmlns="http://www.w3.org/2000/svg"><g><path d="m256 152.535h-14.031v8.05c0 1.531.623 2.919 1.644 3.94 1.02 1.021 2.438 1.672 3.969 1.672h16.866c1.53 0 2.92-.652 3.94-1.672 1.021-1.02 1.672-2.409 1.672-3.94v-8.05zm200.806 181.957-37.53-12.728-24.463 11.991v11.31c0 8.504 3.487 16.272 9.128 21.884 5.612 5.612 13.351 9.099 21.883 9.099 8.504 0 16.271-3.487 21.884-9.099 5.612-5.613 9.099-13.38 9.099-21.884v-10.573zm-61.994-17.377 20.239-9.892c1.814-1.049 4.025-1.333 6.151-.595l35.603 12.047v-14.854c0-3.855-1.587-7.37-4.138-9.921-2.523-2.551-6.038-4.139-9.894-4.139h-33.902c-3.854 0-7.369 1.587-9.921 4.139-2.552 2.551-4.139 6.066-4.139 9.921v13.294zm-339.619-8.39h61.994v-18.964h-47.933c-3.855 0-7.37 1.587-9.922 4.139-2.551 2.551-4.139 6.066-4.139 9.921zm61.995 15.024h-61.995v21.316c0 8.504 3.487 16.272 9.128 21.884 5.612 5.612 13.352 9.099 21.884 9.099 8.504 0 16.271-3.487 21.883-9.099 5.612-5.613 9.1-13.38 9.1-21.884zm169.823 10.006c-10.318 1.418-26.787 1.105-40.563-10.885-4.847 2.778-12.359 5.811-21.43 5.159v17.036c0 8.504 3.486 16.272 9.099 21.884 5.642 5.612 13.38 9.099 21.884 9.099 8.532 0 16.271-3.487 21.884-9.099 5.641-5.613 9.127-13.38 9.127-21.884v-11.31zm-61.993-20.75c6.321.822 12.643-1.361 17.433-5.471 3.118-2.721 7.824-2.381 10.545.737 10.971 12.643 26.221 11.877 34.016 10.403v-14.854c0-3.855-1.587-7.37-4.139-9.921-2.551-2.551-6.065-4.139-9.921-4.139h-33.902c-3.855 0-7.342 1.587-9.893 4.139-2.552 2.551-4.139 6.066-4.139 9.921zm-92.835 32.06c0 9.468-2.892 18.312-7.852 25.654 10.375.992 19.7 5.669 26.702 12.643 7.936 7.937 12.841 18.907 12.841 30.955v90.199c0 4.139-3.345 7.484-7.483 7.484-46.8 0-93.601 0-140.372 0-4.139 0-7.512-3.345-7.512-7.484v-28.12c0-4.139 3.373-7.483 7.512-7.483s7.484 3.345 7.484 7.483v20.608h14.428v-68.684c0-4.167 3.373-7.512 7.512-7.512s7.512 3.345 7.512 7.512v68.684h66.501v-68.684c0-4.167 3.345-7.512 7.512-7.512 4.139 0 7.483 3.345 7.483 7.512v68.684h14.429v-82.688c0-7.909-3.231-15.109-8.447-20.353-5.244-5.216-12.444-8.447-20.352-8.447h-12.02c-6.52 3.515-13.975 5.527-21.854 5.527-7.909 0-15.336-2.013-21.855-5.527h-12.021c-7.938 0-15.138 3.231-20.354 8.447-5.215 5.244-8.475 12.444-8.475 20.353v28.12c0 4.139-3.346 7.484-7.484 7.484-4.139 0-7.512-3.345-7.512-7.484v-28.12c0-12.048 4.933-23.018 12.869-30.955 7.002-6.974 16.328-11.65 26.703-12.643-4.961-7.342-7.881-16.186-7.881-25.654v-28.829-12.416c0-8.022 3.26-15.278 8.532-20.522 5.272-5.273 12.529-8.533 20.523-8.533h55.445c4.139 0 7.483 3.345 7.483 7.484v33.987 28.83zm339.619 0c0 9.468-2.892 18.312-7.852 25.654 10.374.992 19.7 5.669 26.701 12.643 7.938 7.937 12.842 18.907 12.842 30.955v90.199c0 4.139-3.346 7.484-7.483 7.484-46.8 0-93.601 0-140.372 0-4.139 0-7.512-3.345-7.512-7.484v-28.12c0-4.139 3.373-7.483 7.512-7.483s7.483 3.345 7.483 7.483v20.608h14.429v-68.684c0-4.167 3.373-7.512 7.512-7.512s7.512 3.345 7.512 7.512v68.684h66.501v-68.684c0-4.167 3.345-7.512 7.512-7.512 4.139 0 7.483 3.345 7.483 7.512v68.684h14.428v-82.688c0-7.909-3.23-15.109-8.447-20.353-5.244-5.216-12.443-8.447-20.352-8.447h-12.02c-6.52 3.515-13.975 5.527-21.855 5.527-7.908 0-15.335-2.013-21.854-5.527h-12.02c-7.938 0-15.138 3.231-20.353 8.447-5.216 5.244-8.476 12.444-8.476 20.353v28.12c0 4.139-3.345 7.484-7.483 7.484s-7.512-3.345-7.512-7.484v-28.12c0-12.048 4.933-23.018 12.869-30.955 7.002-6.974 16.328-11.65 26.703-12.643-4.961-7.342-7.881-16.186-7.881-25.654v-41.245c0-8.022 3.26-15.278 8.532-20.522 5.272-5.273 12.529-8.533 20.522-8.533h33.902c7.994 0 15.251 3.26 20.523 8.533 5.244 5.244 8.504 12.529 8.504 20.522v41.246zm-169.795 0c0 9.468-2.92 18.312-7.853 25.654 10.347.992 19.7 5.669 26.674 12.643 7.938 7.937 12.87 18.907 12.87 30.955v90.199c0 4.139-3.346 7.484-7.513 7.484-46.771 0-93.571 0-140.371 0-4.139 0-7.483-3.345-7.483-7.484v-28.12c0-4.139 3.345-7.483 7.483-7.483s7.512 3.345 7.512 7.483v20.608h14.429v-68.684c0-4.167 3.344-7.512 7.482-7.512 4.168 0 7.512 3.345 7.512 7.512v68.684h66.529v-68.684c0-4.167 3.346-7.512 7.484-7.512s7.512 3.345 7.512 7.512v68.684h14.428v-82.688c0-7.909-3.26-15.109-8.475-20.353-5.216-5.216-12.415-8.447-20.324-8.447h-12.048c-6.52 3.515-13.945 5.527-21.854 5.527-7.88 0-15.335-2.013-21.827-5.527h-12.047c-7.908 0-15.108 3.231-20.324 8.447-5.244 5.244-8.476 12.444-8.476 20.353v28.12c0 4.139-3.374 7.484-7.512 7.484-4.139 0-7.483-3.345-7.483-7.484v-28.12c0-12.048 4.903-23.018 12.841-30.955 7.001-6.974 16.327-11.65 26.702-12.643-4.961-7.342-7.851-16.186-7.851-25.654v-41.245c0-8.022 3.26-15.278 8.504-20.522 5.271-5.273 12.529-8.533 20.522-8.533h33.902c7.993 0 15.278 3.26 20.522 8.533 5.273 5.244 8.533 12.5 8.533 20.522zm-161.349-146.609h88.526c2.977 0 5.527 1.729 6.746 4.224 6.689 11.594 13.38 23.188 20.069 34.782 6.774-11.764 13.578-23.499 20.353-35.235 1.332-2.324 3.799-3.77 6.463-3.77h88.753c2.211 0 4.195.964 5.585 2.495l36.935 35.575 4.167-35.745c.369-3.203 2.693-5.698 5.641-6.435 18.822-5.869 35.122-17.689 46.631-33.223 11.281-15.223 17.971-34.073 17.971-54.398 0-25.229-10.317-48.133-26.929-64.772-16.64-16.64-39.571-26.958-64.8-26.958h-281.538c-25.229 0-48.133 10.318-64.771 26.958-16.64 16.639-26.957 39.572-26.957 64.772 0 20.325 6.69 39.175 17.971 54.398 11.594 15.647 28.035 27.524 47.027 33.364 3.175.964 4.932 3.515 5.301 6.689l4.11 35.349 37.36-35.972c1.446-1.389 3.43-2.098 5.386-2.098zm84.218 14.996h-81.44l-45.752 44.079c-1.162 1.247-2.777 2.098-4.62 2.296-4.11.482-7.823-2.466-8.277-6.576l-5.357-46.035c-20.098-7.229-37.474-20.325-49.975-37.191-13.152-17.773-20.948-39.686-20.948-63.299 0-29.367 12.02-56.041 31.352-75.373 19.331-19.334 46.005-31.353 75.372-31.353h281.537c29.367 0 56.041 12.019 75.401 31.352 19.333 19.332 31.323 46.007 31.323 75.373 0 23.613-7.796 45.525-20.948 63.299-12.501 16.866-29.849 29.962-49.946 37.191l-5.357 45.922c-.199 1.644-.879 3.232-2.069 4.45-2.863 2.977-7.597 3.061-10.573.198l-46.035-44.334h-81.44c-8.221 14.23-16.412 28.46-24.633 42.69-.652 1.105-1.588 2.041-2.75 2.721-3.6 2.069-8.163.822-10.204-2.749-8.221-14.23-16.441-28.431-24.661-42.661zm2.125-68.997c-.197-8.532-4.649-15.307-9.297-22.365-6.52-9.893-13.323-20.211-13.323-36.822 0-14.258 5.783-27.157 15.138-36.482 9.325-9.354 22.252-15.137 36.481-15.137 14.259 0 27.155 5.783 36.511 15.137 9.325 9.326 15.108 22.224 15.108 36.482 0 16.611-6.804 26.929-13.295 36.822-4.648 7.058-9.099 13.833-9.298 22.365l.029 16.13c0 5.669-2.325 10.828-6.066 14.542-3.714 3.742-8.873 6.066-14.542 6.066h-16.866c-5.669 0-10.828-2.325-14.57-6.066-3.741-3.713-6.037-8.873-6.037-14.542zm14.287-6.945h29.452c1.644-9.297 6.293-16.328 11.112-23.641 5.243-7.995 10.771-16.385 10.771-28.602 0-10.12-4.11-19.276-10.715-25.881-6.633-6.633-15.788-10.743-25.908-10.743-10.091 0-19.247 4.11-25.88 10.744-6.634 6.605-10.715 15.761-10.715 25.881 0 12.217 5.498 20.607 10.771 28.602 4.791 7.313 9.44 14.343 11.112 23.64z"/></g></svg>