<?xml version="1.0" encoding="UTF-8" standalone="no"?>
<!DOCTYPE svg PUBLIC "-//W3C//DTD SVG 1.1//EN" "http://www.w3.org/Graphics/SVG/1.1/DTD/svg11.dtd">
<svg width="100%" height="100%" viewBox="0 0 1137 387" version="1.1" xmlns="http://www.w3.org/2000/svg" xmlns:xlink="http://www.w3.org/1999/xlink" xml:space="preserve" xmlns:serif="http://www.serif.com/" style="fill-rule:evenodd;clip-rule:evenodd;stroke-linecap:round;stroke-linejoin:round;stroke-miterlimit:1.5;">
    <g transform="matrix(1,0,0,1,1309.98,-2731.12)">
        <g transform="matrix(1,0,0,1,-19.5113,2371.11)">
            <g transform="matrix(1.38386,0,0,0.783227,-1573.28,-181.831)">
                <path d="M1024.65,745.11C1024.65,716.923 1011.7,694.039 995.743,694.039L234.537,694.039C218.584,694.039 205.632,716.923 205.632,745.11L205.632,975.727C205.632,1003.91 218.584,1026.8 234.537,1026.8L995.743,1026.8C1011.7,1026.8 1024.65,1003.91 1024.65,975.727L1024.65,745.11Z" style="fill:none;stroke:rgb(73,128,163);stroke-width:3.11px;"/>
            </g>
            <g transform="matrix(1,0,0,1,-1422.25,-218.495)">
                <path d="M249.87,840.881C323.052,840.615 366.187,879.955 376.173,962.987" style="fill:none;stroke:rgb(73,128,163);stroke-width:3.5px;"/>
            </g>
            <g transform="matrix(1,0,0,1,-47.9971,-120.795)">
                <g transform="matrix(64,0,0,64,-948.23,821.987)">
                    <path d="M0.336,0C0.33,0 0.326,-0.003 0.325,-0.009L0.3,-0.133C0.3,-0.134 0.3,-0.135 0.299,-0.136C0.298,-0.137 0.296,-0.137 0.295,-0.137L0.114,-0.137C0.113,-0.137 0.112,-0.137 0.111,-0.136C0.11,-0.135 0.109,-0.134 0.109,-0.133L0.084,-0.009C0.083,-0.003 0.08,0 0.073,0L0.022,0C0.019,0 0.016,-0.001 0.015,-0.003C0.013,-0.005 0.012,-0.008 0.013,-0.011L0.163,-0.691C0.164,-0.697 0.168,-0.7 0.174,-0.7L0.234,-0.7C0.241,-0.7 0.244,-0.697 0.245,-0.691L0.397,-0.011L0.397,-0.009C0.397,-0.003 0.394,0 0.388,0L0.336,0ZM0.122,-0.199C0.122,-0.196 0.123,-0.195 0.125,-0.195L0.283,-0.195C0.285,-0.195 0.286,-0.196 0.286,-0.199L0.206,-0.592C0.205,-0.594 0.205,-0.595 0.204,-0.595C0.203,-0.595 0.203,-0.594 0.202,-0.592L0.122,-0.199Z" style="fill-rule:nonzero;"/>
                </g>
                <g transform="matrix(64,0,0,64,-922.374,821.987)">
                    <path d="M0.292,-0.496C0.292,-0.503 0.295,-0.506 0.302,-0.506L0.353,-0.506C0.36,-0.506 0.363,-0.503 0.363,-0.496L0.363,-0.01C0.363,-0.003 0.36,0 0.353,0L0.302,0C0.295,0 0.292,-0.003 0.292,-0.01L0.292,-0.044C0.292,-0.046 0.292,-0.047 0.291,-0.047C0.29,-0.047 0.288,-0.046 0.287,-0.045C0.266,-0.01 0.233,0.007 0.187,0.007C0.147,0.007 0.115,-0.005 0.092,-0.03C0.068,-0.054 0.056,-0.091 0.056,-0.14L0.056,-0.496C0.056,-0.503 0.059,-0.506 0.066,-0.506L0.117,-0.506C0.124,-0.506 0.127,-0.503 0.127,-0.496L0.127,-0.156C0.127,-0.123 0.134,-0.097 0.148,-0.081C0.161,-0.064 0.181,-0.055 0.207,-0.055C0.234,-0.055 0.255,-0.065 0.27,-0.084C0.284,-0.103 0.292,-0.13 0.292,-0.163L0.292,-0.496Z" style="fill-rule:nonzero;"/>
                </g>
                <g transform="matrix(64,0,0,64,-895.238,821.987)">
                    <path d="M0.239,-0.463C0.239,-0.456 0.236,-0.453 0.229,-0.453L0.153,-0.453C0.15,-0.453 0.149,-0.452 0.149,-0.449L0.149,-0.143C0.149,-0.112 0.154,-0.091 0.165,-0.08C0.176,-0.068 0.192,-0.062 0.214,-0.063L0.224,-0.063C0.231,-0.063 0.234,-0.06 0.234,-0.053L0.234,-0.01C0.234,-0.003 0.231,0 0.224,0L0.199,0C0.16,0 0.13,-0.009 0.11,-0.026C0.089,-0.043 0.079,-0.075 0.079,-0.122L0.079,-0.449C0.079,-0.452 0.078,-0.453 0.075,-0.453L0.036,-0.453C0.029,-0.453 0.026,-0.456 0.026,-0.463L0.026,-0.496C0.026,-0.503 0.029,-0.506 0.036,-0.506L0.075,-0.506C0.078,-0.506 0.079,-0.507 0.079,-0.51L0.079,-0.622C0.079,-0.629 0.082,-0.632 0.089,-0.632L0.139,-0.632C0.146,-0.632 0.149,-0.629 0.149,-0.622L0.149,-0.51C0.149,-0.507 0.15,-0.506 0.153,-0.506L0.229,-0.506C0.236,-0.506 0.239,-0.503 0.239,-0.496L0.239,-0.463Z" style="fill-rule:nonzero;"/>
                </g>
                <g transform="matrix(64,0,0,64,-878.15,821.987)">
                    <path d="M0.241,-0.513C0.282,-0.513 0.313,-0.499 0.336,-0.471C0.358,-0.443 0.369,-0.404 0.369,-0.354L0.369,-0.01C0.369,-0.003 0.366,0 0.359,0L0.308,0C0.301,0 0.298,-0.003 0.298,-0.01L0.298,-0.348C0.298,-0.381 0.291,-0.406 0.277,-0.424C0.262,-0.442 0.242,-0.451 0.217,-0.451C0.19,-0.451 0.169,-0.441 0.155,-0.422C0.139,-0.403 0.132,-0.376 0.132,-0.343L0.132,-0.01C0.132,-0.003 0.129,0 0.122,0L0.071,0C0.064,0 0.061,-0.003 0.061,-0.01L0.061,-0.69C0.061,-0.697 0.064,-0.7 0.071,-0.7L0.122,-0.7C0.129,-0.7 0.132,-0.697 0.132,-0.69L0.132,-0.464C0.132,-0.463 0.133,-0.462 0.134,-0.461C0.135,-0.46 0.136,-0.461 0.137,-0.463C0.149,-0.48 0.164,-0.492 0.183,-0.501C0.201,-0.509 0.22,-0.513 0.241,-0.513Z" style="fill-rule:nonzero;"/>
                </g>
                <g transform="matrix(64,0,0,64,-851.014,821.987)">
                    <path d="M0.207,0.008C0.159,0.008 0.121,-0.006 0.093,-0.034C0.064,-0.062 0.05,-0.099 0.05,-0.145L0.05,-0.36C0.05,-0.405 0.064,-0.442 0.093,-0.471C0.122,-0.5 0.16,-0.514 0.207,-0.514C0.255,-0.514 0.293,-0.5 0.322,-0.471C0.351,-0.442 0.365,-0.405 0.365,-0.36L0.365,-0.145C0.365,-0.099 0.351,-0.062 0.322,-0.034C0.293,-0.006 0.255,0.008 0.207,0.008ZM0.207,-0.055C0.232,-0.055 0.253,-0.064 0.27,-0.081C0.286,-0.098 0.294,-0.121 0.294,-0.15L0.294,-0.356C0.294,-0.385 0.286,-0.408 0.27,-0.426C0.253,-0.443 0.232,-0.452 0.207,-0.452C0.182,-0.452 0.161,-0.443 0.145,-0.426C0.129,-0.408 0.121,-0.385 0.121,-0.356L0.121,-0.15C0.121,-0.121 0.129,-0.098 0.145,-0.081C0.161,-0.064 0.182,-0.055 0.207,-0.055Z" style="fill-rule:nonzero;"/>
                </g>
                <g transform="matrix(64,0,0,64,-824.454,821.987)">
                    <path d="M0.232,-0.511C0.249,-0.511 0.263,-0.507 0.275,-0.5C0.28,-0.497 0.281,-0.493 0.28,-0.487L0.268,-0.435C0.267,-0.429 0.263,-0.427 0.256,-0.429C0.248,-0.433 0.238,-0.435 0.226,-0.435C0.221,-0.435 0.217,-0.435 0.214,-0.434C0.19,-0.433 0.17,-0.42 0.155,-0.397C0.14,-0.373 0.132,-0.344 0.132,-0.31L0.132,-0.01C0.132,-0.003 0.129,0 0.122,0L0.071,0C0.064,0 0.061,-0.003 0.061,-0.01L0.061,-0.496C0.061,-0.503 0.064,-0.506 0.071,-0.506L0.122,-0.506C0.129,-0.506 0.132,-0.503 0.132,-0.496L0.132,-0.436C0.132,-0.434 0.133,-0.433 0.134,-0.433C0.135,-0.433 0.136,-0.434 0.137,-0.435C0.156,-0.486 0.188,-0.511 0.232,-0.511Z" style="fill-rule:nonzero;"/>
                </g>
            </g>
            <g transform="matrix(1,0,0,1,-254.396,-188.367)">
                <g transform="matrix(80,0,0,80,-975.736,658.938)">
                    <path d="M0.227,-0.481L0.198,-0.747C0.225,-0.76 0.246,-0.767 0.263,-0.767C0.286,-0.767 0.297,-0.755 0.297,-0.73C0.297,-0.715 0.294,-0.693 0.288,-0.664L0.248,-0.481L0.227,-0.481ZM0.079,-0.481L0.05,-0.747C0.077,-0.76 0.098,-0.767 0.115,-0.767C0.138,-0.767 0.149,-0.755 0.149,-0.73C0.149,-0.715 0.146,-0.693 0.14,-0.664L0.1,-0.481L0.079,-0.481Z" style="fill-rule:nonzero;"/>
                </g>
                <g transform="matrix(80,0,0,80,-949.016,658.938)">
                    <path d="M0.025,-0.7L0.33,-0.7L0.33,-0.681L0.275,-0.681L0.275,-0.019L0.33,-0.019L0.33,0L0.025,0L0.025,-0.019L0.08,-0.019L0.08,-0.681L0.025,-0.681L0.025,-0.7Z" style="fill-rule:nonzero;"/>
                </g>
                <g transform="matrix(80,0,0,80,-906.216,658.938)">
                    <path d="M0.352,-0.458L0.352,-0.476L0.61,-0.476L0.61,-0.458L0.569,-0.458L0.659,-0.121L0.748,-0.458L0.679,-0.458L0.679,-0.476L0.814,-0.476L0.814,-0.458L0.772,-0.458L0.652,0L0.515,0L0.428,-0.307L0.334,0L0.2,0L0.052,-0.458L0.007,-0.458L0.007,-0.476L0.31,-0.476L0.31,-0.458L0.25,-0.458L0.342,-0.118L0.414,-0.352L0.389,-0.458L0.352,-0.458Z" style="fill-rule:nonzero;"/>
                </g>
                <g transform="matrix(80,0,0,80,-842.936,658.938)">
                    <path d="M0.25,-0.235L0.279,-0.235L0.279,-0.312C0.279,-0.375 0.276,-0.418 0.269,-0.44C0.262,-0.461 0.248,-0.472 0.228,-0.472C0.216,-0.472 0.205,-0.469 0.196,-0.463C0.186,-0.456 0.181,-0.448 0.181,-0.437C0.181,-0.426 0.183,-0.414 0.187,-0.403L0.212,-0.403C0.217,-0.389 0.22,-0.372 0.22,-0.353C0.22,-0.333 0.212,-0.316 0.195,-0.302C0.178,-0.287 0.157,-0.28 0.132,-0.28C0.075,-0.28 0.046,-0.308 0.046,-0.363C0.046,-0.445 0.116,-0.486 0.255,-0.486C0.334,-0.486 0.389,-0.472 0.42,-0.446C0.45,-0.419 0.465,-0.369 0.465,-0.297L0.465,-0.094C0.465,-0.059 0.475,-0.042 0.494,-0.042C0.517,-0.042 0.53,-0.076 0.534,-0.145L0.549,-0.144C0.546,-0.085 0.535,-0.045 0.516,-0.023C0.497,-0.001 0.465,0.01 0.421,0.01C0.341,0.01 0.295,-0.015 0.283,-0.064C0.274,-0.039 0.261,-0.02 0.244,-0.008C0.227,0.004 0.201,0.01 0.168,0.01C0.069,0.01 0.02,-0.03 0.02,-0.111C0.02,-0.158 0.039,-0.191 0.077,-0.209C0.114,-0.226 0.172,-0.235 0.25,-0.235ZM0.21,-0.112C0.21,-0.077 0.212,-0.055 0.216,-0.045C0.219,-0.035 0.226,-0.03 0.237,-0.03C0.247,-0.03 0.257,-0.039 0.266,-0.056C0.275,-0.073 0.279,-0.096 0.279,-0.126L0.279,-0.219L0.272,-0.219C0.231,-0.219 0.21,-0.189 0.21,-0.128L0.21,-0.112Z" style="fill-rule:nonzero;"/>
                </g>
                <g transform="matrix(80,0,0,80,-799.016,658.938)">
                    <path d="M0.012,-0.476L0.253,-0.476L0.253,-0.384C0.264,-0.415 0.28,-0.439 0.302,-0.458C0.324,-0.477 0.357,-0.486 0.402,-0.486C0.505,-0.486 0.557,-0.43 0.557,-0.319L0.557,-0.018L0.613,-0.018L0.613,0L0.33,0L0.33,-0.018L0.371,-0.018L0.371,-0.343C0.371,-0.383 0.368,-0.409 0.363,-0.421C0.358,-0.432 0.348,-0.438 0.334,-0.438C0.313,-0.438 0.294,-0.424 0.278,-0.396C0.261,-0.368 0.253,-0.334 0.253,-0.294L0.253,-0.018L0.296,-0.018L0.296,0L0.012,0L0.012,-0.018L0.067,-0.018L0.067,-0.458L0.012,-0.458L0.012,-0.476Z" style="fill-rule:nonzero;"/>
                </g>
                <g transform="matrix(80,0,0,80,-750.136,658.938)">
                    <path d="M0.06,-0.143L0.06,-0.458L0.005,-0.458L0.005,-0.476L0.06,-0.476L0.06,-0.605L0.246,-0.651L0.246,-0.476L0.376,-0.476L0.376,-0.458L0.246,-0.458L0.246,-0.121C0.246,-0.09 0.249,-0.067 0.256,-0.052C0.262,-0.037 0.275,-0.03 0.295,-0.03C0.315,-0.03 0.333,-0.04 0.348,-0.06C0.363,-0.08 0.372,-0.107 0.377,-0.142L0.394,-0.14C0.389,-0.094 0.374,-0.058 0.35,-0.031C0.326,-0.003 0.286,0.01 0.231,0.01C0.176,0.01 0.133,-0.001 0.104,-0.023C0.075,-0.045 0.06,-0.085 0.06,-0.143Z" style="fill-rule:nonzero;"/>
                </g>
                <g transform="matrix(80,0,0,80,-704.216,658.938)">
                    <path d="M0.01,-0.476L0.251,-0.476L0.251,-0.384C0.273,-0.452 0.322,-0.486 0.397,-0.486C0.472,-0.486 0.517,-0.45 0.533,-0.378C0.556,-0.45 0.605,-0.486 0.68,-0.486C0.778,-0.486 0.827,-0.43 0.827,-0.319L0.827,-0.018L0.883,-0.018L0.883,0L0.606,0L0.606,-0.018L0.641,-0.018L0.641,-0.343C0.641,-0.394 0.637,-0.423 0.628,-0.432C0.624,-0.436 0.619,-0.438 0.612,-0.438C0.593,-0.438 0.576,-0.425 0.561,-0.399C0.546,-0.373 0.539,-0.34 0.539,-0.3L0.539,-0.018L0.575,-0.018L0.575,0L0.318,0L0.318,-0.018L0.353,-0.018L0.353,-0.343C0.353,-0.394 0.349,-0.423 0.34,-0.432C0.336,-0.436 0.331,-0.438 0.324,-0.438C0.305,-0.438 0.289,-0.424 0.274,-0.396C0.259,-0.367 0.251,-0.333 0.251,-0.294L0.251,-0.018L0.287,-0.018L0.287,0L0.01,0L0.01,-0.018L0.065,-0.018L0.065,-0.458L0.01,-0.458L0.01,-0.476Z" style="fill-rule:nonzero;"/>
                </g>
                <g transform="matrix(80,0,0,80,-637.176,658.938)">
                    <path d="M0.005,-0.458L0.005,-0.476L0.295,-0.476L0.295,-0.458L0.241,-0.458L0.35,-0.126L0.466,-0.458L0.399,-0.458L0.399,-0.476L0.54,-0.476L0.54,-0.458L0.49,-0.458L0.303,0.081C0.281,0.144 0.256,0.188 0.229,0.213C0.202,0.238 0.168,0.25 0.129,0.25C0.09,0.25 0.059,0.241 0.036,0.223C0.013,0.205 0.002,0.182 0.002,0.154C0.002,0.126 0.009,0.105 0.024,0.09C0.039,0.075 0.058,0.068 0.082,0.068C0.137,0.068 0.165,0.091 0.165,0.137C0.165,0.147 0.163,0.159 0.159,0.173L0.124,0.173C0.119,0.188 0.118,0.201 0.122,0.211C0.126,0.221 0.135,0.226 0.149,0.226C0.176,0.226 0.201,0.213 0.222,0.186C0.243,0.159 0.264,0.117 0.283,0.062L0.305,0L0.217,0L0.046,-0.458L0.005,-0.458Z" style="fill-rule:nonzero;"/>
                </g>
                <g transform="matrix(80,0,0,80,-580.216,658.938)">
                    <path d="M0.25,-0.235L0.279,-0.235L0.279,-0.312C0.279,-0.375 0.276,-0.418 0.269,-0.44C0.262,-0.461 0.248,-0.472 0.228,-0.472C0.216,-0.472 0.205,-0.469 0.196,-0.463C0.186,-0.456 0.181,-0.448 0.181,-0.437C0.181,-0.426 0.183,-0.414 0.187,-0.403L0.212,-0.403C0.217,-0.389 0.22,-0.372 0.22,-0.353C0.22,-0.333 0.212,-0.316 0.195,-0.302C0.178,-0.287 0.157,-0.28 0.132,-0.28C0.075,-0.28 0.046,-0.308 0.046,-0.363C0.046,-0.445 0.116,-0.486 0.255,-0.486C0.334,-0.486 0.389,-0.472 0.42,-0.446C0.45,-0.419 0.465,-0.369 0.465,-0.297L0.465,-0.094C0.465,-0.059 0.475,-0.042 0.494,-0.042C0.517,-0.042 0.53,-0.076 0.534,-0.145L0.549,-0.144C0.546,-0.085 0.535,-0.045 0.516,-0.023C0.497,-0.001 0.465,0.01 0.421,0.01C0.341,0.01 0.295,-0.015 0.283,-0.064C0.274,-0.039 0.261,-0.02 0.244,-0.008C0.227,0.004 0.201,0.01 0.168,0.01C0.069,0.01 0.02,-0.03 0.02,-0.111C0.02,-0.158 0.039,-0.191 0.077,-0.209C0.114,-0.226 0.172,-0.235 0.25,-0.235ZM0.21,-0.112C0.21,-0.077 0.212,-0.055 0.216,-0.045C0.219,-0.035 0.226,-0.03 0.237,-0.03C0.247,-0.03 0.257,-0.039 0.266,-0.056C0.275,-0.073 0.279,-0.096 0.279,-0.126L0.279,-0.219L0.272,-0.219C0.231,-0.219 0.21,-0.189 0.21,-0.128L0.21,-0.112Z" style="fill-rule:nonzero;"/>
                </g>
                <g transform="matrix(80,0,0,80,-537.096,658.938)">
                    <path d="M0.375,-0.269C0.375,-0.338 0.372,-0.384 0.365,-0.408C0.358,-0.431 0.345,-0.443 0.326,-0.443C0.307,-0.443 0.289,-0.431 0.274,-0.406C0.259,-0.381 0.251,-0.347 0.251,-0.305L0.251,-0.122C0.251,-0.093 0.257,-0.069 0.268,-0.049C0.279,-0.029 0.296,-0.019 0.318,-0.019C0.34,-0.019 0.355,-0.034 0.363,-0.063C0.371,-0.092 0.375,-0.144 0.375,-0.217L0.375,-0.269ZM0.249,-0.476L0.249,-0.397C0.275,-0.456 0.321,-0.486 0.387,-0.486C0.444,-0.486 0.489,-0.465 0.521,-0.424C0.552,-0.383 0.568,-0.32 0.568,-0.236C0.568,-0.152 0.551,-0.09 0.517,-0.05C0.482,-0.01 0.431,0.01 0.362,0.01C0.33,0.01 0.306,0.006 0.29,-0.002C0.274,-0.01 0.261,-0.022 0.251,-0.039L0.251,0.22L0.38,0.22L0.38,0.238L0.01,0.238L0.01,0.22L0.065,0.22L0.065,-0.458L0.012,-0.458L0.012,-0.476L0.249,-0.476Z" style="fill-rule:nonzero;"/>
                </g>
                <g transform="matrix(80,0,0,80,-490.056,658.938)">
                    <path d="M0.375,-0.269C0.375,-0.338 0.372,-0.384 0.365,-0.408C0.358,-0.431 0.345,-0.443 0.326,-0.443C0.307,-0.443 0.289,-0.431 0.274,-0.406C0.259,-0.381 0.251,-0.347 0.251,-0.305L0.251,-0.122C0.251,-0.093 0.257,-0.069 0.268,-0.049C0.279,-0.029 0.296,-0.019 0.318,-0.019C0.34,-0.019 0.355,-0.034 0.363,-0.063C0.371,-0.092 0.375,-0.144 0.375,-0.217L0.375,-0.269ZM0.249,-0.476L0.249,-0.397C0.275,-0.456 0.321,-0.486 0.387,-0.486C0.444,-0.486 0.489,-0.465 0.521,-0.424C0.552,-0.383 0.568,-0.32 0.568,-0.236C0.568,-0.152 0.551,-0.09 0.517,-0.05C0.482,-0.01 0.431,0.01 0.362,0.01C0.33,0.01 0.306,0.006 0.29,-0.002C0.274,-0.01 0.261,-0.022 0.251,-0.039L0.251,0.22L0.38,0.22L0.38,0.238L0.01,0.238L0.01,0.22L0.065,0.22L0.065,-0.458L0.012,-0.458L0.012,-0.476L0.249,-0.476Z" style="fill-rule:nonzero;"/>
                </g>
                <g transform="matrix(80,0,0,80,-443.016,658.938)">
                    <path d="M0.006,-0.75L0.251,-0.75L0.251,-0.018L0.307,-0.018L0.307,0L0.01,0L0.01,-0.018L0.065,-0.018L0.065,-0.732L0.006,-0.732L0.006,-0.75Z" style="fill-rule:nonzero;"/>
                </g>
                <g transform="matrix(80,0,0,80,-417.736,658.938)">
                    <path d="M0.157,-0.545C0.122,-0.545 0.097,-0.554 0.082,-0.572C0.067,-0.59 0.059,-0.612 0.059,-0.639C0.059,-0.666 0.067,-0.688 0.084,-0.705C0.1,-0.722 0.125,-0.731 0.158,-0.731C0.191,-0.731 0.217,-0.723 0.234,-0.708C0.251,-0.692 0.26,-0.67 0.26,-0.641C0.26,-0.611 0.252,-0.588 0.235,-0.571C0.218,-0.554 0.192,-0.545 0.157,-0.545ZM0.006,-0.476L0.251,-0.476L0.251,-0.018L0.307,-0.018L0.307,0L0.01,0L0.01,-0.018L0.065,-0.018L0.065,-0.458L0.006,-0.458L0.006,-0.476Z" style="fill-rule:nonzero;"/>
                </g>
                <g transform="matrix(80,0,0,80,-392.376,658.938)">
                    <path d="M0.29,-0.468C0.261,-0.468 0.24,-0.452 0.227,-0.42C0.214,-0.388 0.208,-0.335 0.208,-0.261L0.208,-0.209C0.208,-0.143 0.215,-0.096 0.23,-0.067C0.245,-0.038 0.272,-0.024 0.311,-0.024C0.35,-0.024 0.382,-0.037 0.405,-0.064C0.428,-0.091 0.443,-0.121 0.45,-0.155L0.468,-0.153C0.455,-0.096 0.432,-0.054 0.398,-0.029C0.363,-0.003 0.316,0.01 0.255,0.01C0.178,0.01 0.118,-0.011 0.077,-0.053C0.036,-0.094 0.015,-0.155 0.015,-0.236C0.015,-0.316 0.039,-0.378 0.086,-0.421C0.133,-0.464 0.198,-0.486 0.282,-0.486C0.341,-0.486 0.387,-0.474 0.418,-0.452C0.449,-0.428 0.465,-0.4 0.465,-0.365C0.465,-0.33 0.458,-0.305 0.443,-0.289C0.428,-0.273 0.407,-0.265 0.381,-0.265C0.354,-0.265 0.333,-0.272 0.317,-0.286C0.301,-0.3 0.293,-0.321 0.293,-0.348C0.293,-0.36 0.295,-0.372 0.298,-0.384L0.331,-0.384C0.336,-0.397 0.338,-0.409 0.338,-0.42C0.338,-0.452 0.322,-0.468 0.29,-0.468Z" style="fill-rule:nonzero;"/>
                </g>
                <g transform="matrix(80,0,0,80,-353.736,658.938)">
                    <path d="M0.25,-0.235L0.279,-0.235L0.279,-0.312C0.279,-0.375 0.276,-0.418 0.269,-0.44C0.262,-0.461 0.248,-0.472 0.228,-0.472C0.216,-0.472 0.205,-0.469 0.196,-0.463C0.186,-0.456 0.181,-0.448 0.181,-0.437C0.181,-0.426 0.183,-0.414 0.187,-0.403L0.212,-0.403C0.217,-0.389 0.22,-0.372 0.22,-0.353C0.22,-0.333 0.212,-0.316 0.195,-0.302C0.178,-0.287 0.157,-0.28 0.132,-0.28C0.075,-0.28 0.046,-0.308 0.046,-0.363C0.046,-0.445 0.116,-0.486 0.255,-0.486C0.334,-0.486 0.389,-0.472 0.42,-0.446C0.45,-0.419 0.465,-0.369 0.465,-0.297L0.465,-0.094C0.465,-0.059 0.475,-0.042 0.494,-0.042C0.517,-0.042 0.53,-0.076 0.534,-0.145L0.549,-0.144C0.546,-0.085 0.535,-0.045 0.516,-0.023C0.497,-0.001 0.465,0.01 0.421,0.01C0.341,0.01 0.295,-0.015 0.283,-0.064C0.274,-0.039 0.261,-0.02 0.244,-0.008C0.227,0.004 0.201,0.01 0.168,0.01C0.069,0.01 0.02,-0.03 0.02,-0.111C0.02,-0.158 0.039,-0.191 0.077,-0.209C0.114,-0.226 0.172,-0.235 0.25,-0.235ZM0.21,-0.112C0.21,-0.077 0.212,-0.055 0.216,-0.045C0.219,-0.035 0.226,-0.03 0.237,-0.03C0.247,-0.03 0.257,-0.039 0.266,-0.056C0.275,-0.073 0.279,-0.096 0.279,-0.126L0.279,-0.219L0.272,-0.219C0.231,-0.219 0.21,-0.189 0.21,-0.128L0.21,-0.112Z" style="fill-rule:nonzero;"/>
                </g>
                <g transform="matrix(80,0,0,80,-311.016,658.938)">
                    <path d="M0.06,-0.143L0.06,-0.458L0.005,-0.458L0.005,-0.476L0.06,-0.476L0.06,-0.605L0.246,-0.651L0.246,-0.476L0.376,-0.476L0.376,-0.458L0.246,-0.458L0.246,-0.121C0.246,-0.09 0.249,-0.067 0.256,-0.052C0.262,-0.037 0.275,-0.03 0.295,-0.03C0.315,-0.03 0.333,-0.04 0.348,-0.06C0.363,-0.08 0.372,-0.107 0.377,-0.142L0.394,-0.14C0.389,-0.094 0.374,-0.058 0.35,-0.031C0.326,-0.003 0.286,0.01 0.231,0.01C0.176,0.01 0.133,-0.001 0.104,-0.023C0.075,-0.045 0.06,-0.085 0.06,-0.143Z" style="fill-rule:nonzero;"/>
                </g>
                <g transform="matrix(80,0,0,80,-279.496,658.938)">
                    <path d="M0.157,-0.545C0.122,-0.545 0.097,-0.554 0.082,-0.572C0.067,-0.59 0.059,-0.612 0.059,-0.639C0.059,-0.666 0.067,-0.688 0.084,-0.705C0.1,-0.722 0.125,-0.731 0.158,-0.731C0.191,-0.731 0.217,-0.723 0.234,-0.708C0.251,-0.692 0.26,-0.67 0.26,-0.641C0.26,-0.611 0.252,-0.588 0.235,-0.571C0.218,-0.554 0.192,-0.545 0.157,-0.545ZM0.006,-0.476L0.251,-0.476L0.251,-0.018L0.307,-0.018L0.307,0L0.01,0L0.01,-0.018L0.065,-0.018L0.065,-0.458L0.006,-0.458L0.006,-0.476Z" style="fill-rule:nonzero;"/>
                </g>
                <g transform="matrix(80,0,0,80,-254.136,658.938)">
                    <path d="M0.333,-0.197L0.333,-0.282C0.333,-0.347 0.33,-0.394 0.323,-0.424C0.316,-0.453 0.299,-0.468 0.274,-0.468C0.259,-0.468 0.248,-0.464 0.239,-0.456C0.23,-0.447 0.223,-0.433 0.219,-0.414C0.213,-0.384 0.21,-0.338 0.21,-0.277L0.21,-0.199C0.21,-0.126 0.212,-0.083 0.217,-0.068C0.221,-0.053 0.225,-0.041 0.23,-0.032C0.237,-0.016 0.252,-0.008 0.273,-0.008C0.299,-0.008 0.316,-0.023 0.324,-0.053C0.33,-0.074 0.333,-0.122 0.333,-0.197ZM0.271,0.01C0.188,0.01 0.125,-0.011 0.082,-0.054C0.039,-0.097 0.018,-0.158 0.018,-0.238C0.018,-0.317 0.041,-0.379 0.087,-0.422C0.132,-0.464 0.196,-0.486 0.279,-0.486C0.362,-0.486 0.423,-0.466 0.464,-0.427C0.505,-0.387 0.525,-0.326 0.525,-0.245C0.525,-0.075 0.44,0.01 0.271,0.01Z" style="fill-rule:nonzero;"/>
                </g>
                <g transform="matrix(80,0,0,80,-210.696,658.938)">
                    <path d="M0.012,-0.476L0.253,-0.476L0.253,-0.384C0.264,-0.415 0.28,-0.439 0.302,-0.458C0.324,-0.477 0.357,-0.486 0.402,-0.486C0.505,-0.486 0.557,-0.43 0.557,-0.319L0.557,-0.018L0.613,-0.018L0.613,0L0.33,0L0.33,-0.018L0.371,-0.018L0.371,-0.343C0.371,-0.383 0.368,-0.409 0.363,-0.421C0.358,-0.432 0.348,-0.438 0.334,-0.438C0.313,-0.438 0.294,-0.424 0.278,-0.396C0.261,-0.368 0.253,-0.334 0.253,-0.294L0.253,-0.018L0.296,-0.018L0.296,0L0.012,0L0.012,-0.018L0.067,-0.018L0.067,-0.458L0.012,-0.458L0.012,-0.476Z" style="fill-rule:nonzero;"/>
                </g>
                <g transform="matrix(80,0,0,80,-147.016,658.938)">
                    <path d="M0.06,-0.143L0.06,-0.458L0.005,-0.458L0.005,-0.476L0.06,-0.476L0.06,-0.605L0.246,-0.651L0.246,-0.476L0.376,-0.476L0.376,-0.458L0.246,-0.458L0.246,-0.121C0.246,-0.09 0.249,-0.067 0.256,-0.052C0.262,-0.037 0.275,-0.03 0.295,-0.03C0.315,-0.03 0.333,-0.04 0.348,-0.06C0.363,-0.08 0.372,-0.107 0.377,-0.142L0.394,-0.14C0.389,-0.094 0.374,-0.058 0.35,-0.031C0.326,-0.003 0.286,0.01 0.231,0.01C0.176,0.01 0.133,-0.001 0.104,-0.023C0.075,-0.045 0.06,-0.085 0.06,-0.143Z" style="fill-rule:nonzero;"/>
                </g>
                <g transform="matrix(80,0,0,80,-115.496,658.938)">
                    <path d="M0.333,-0.197L0.333,-0.282C0.333,-0.347 0.33,-0.394 0.323,-0.424C0.316,-0.453 0.299,-0.468 0.274,-0.468C0.259,-0.468 0.248,-0.464 0.239,-0.456C0.23,-0.447 0.223,-0.433 0.219,-0.414C0.213,-0.384 0.21,-0.338 0.21,-0.277L0.21,-0.199C0.21,-0.126 0.212,-0.083 0.217,-0.068C0.221,-0.053 0.225,-0.041 0.23,-0.032C0.237,-0.016 0.252,-0.008 0.273,-0.008C0.299,-0.008 0.316,-0.023 0.324,-0.053C0.33,-0.074 0.333,-0.122 0.333,-0.197ZM0.271,0.01C0.188,0.01 0.125,-0.011 0.082,-0.054C0.039,-0.097 0.018,-0.158 0.018,-0.238C0.018,-0.317 0.041,-0.379 0.087,-0.422C0.132,-0.464 0.196,-0.486 0.279,-0.486C0.362,-0.486 0.423,-0.466 0.464,-0.427C0.505,-0.387 0.525,-0.326 0.525,-0.245C0.525,-0.075 0.44,0.01 0.271,0.01Z" style="fill-rule:nonzero;"/>
                </g>
                <g transform="matrix(80,0,0,80,-57.6563,658.938)">
                    <path d="M0.375,-0.269C0.375,-0.338 0.372,-0.384 0.365,-0.408C0.358,-0.431 0.345,-0.443 0.326,-0.443C0.307,-0.443 0.289,-0.431 0.274,-0.407C0.259,-0.383 0.251,-0.35 0.251,-0.308L0.251,-0.122C0.251,-0.093 0.257,-0.069 0.269,-0.049C0.28,-0.029 0.297,-0.019 0.319,-0.019C0.34,-0.019 0.355,-0.034 0.363,-0.063C0.371,-0.092 0.375,-0.144 0.375,-0.217L0.375,-0.269ZM0.251,-0.75L0.251,-0.4C0.276,-0.457 0.32,-0.486 0.381,-0.486C0.506,-0.486 0.568,-0.403 0.568,-0.237C0.568,-0.152 0.551,-0.09 0.517,-0.05C0.482,-0.01 0.431,0.01 0.362,0.01C0.327,0.01 0.301,0.005 0.283,-0.006C0.264,-0.017 0.252,-0.034 0.245,-0.059L0.238,0L0.01,0L0.01,-0.018L0.065,-0.018L0.065,-0.732L0.01,-0.732L0.01,-0.75L0.251,-0.75Z" style="fill-rule:nonzero;"/>
                </g>
                <g transform="matrix(80,0,0,80,-10.6163,658.938)">
                    <path d="M0.273,0.01C0.187,0.01 0.123,-0.012 0.08,-0.057C0.037,-0.101 0.015,-0.163 0.015,-0.242C0.015,-0.321 0.039,-0.381 0.088,-0.423C0.136,-0.465 0.197,-0.486 0.272,-0.486C0.423,-0.486 0.496,-0.41 0.49,-0.258L0.208,-0.258L0.208,-0.219C0.208,-0.154 0.216,-0.104 0.233,-0.071C0.25,-0.038 0.279,-0.021 0.32,-0.021C0.397,-0.021 0.448,-0.062 0.472,-0.145L0.49,-0.142C0.477,-0.094 0.455,-0.057 0.422,-0.03C0.389,-0.003 0.339,0.01 0.273,0.01ZM0.209,-0.278L0.312,-0.278L0.312,-0.327C0.312,-0.381 0.309,-0.418 0.303,-0.438C0.296,-0.457 0.284,-0.467 0.265,-0.467C0.246,-0.467 0.232,-0.456 0.223,-0.436C0.214,-0.415 0.209,-0.378 0.209,-0.327L0.209,-0.278Z" style="fill-rule:nonzero;"/>
                </g>
                <g transform="matrix(80,0,0,80,-975.736,738.938)">
                    <path d="M0.273,0.01C0.187,0.01 0.123,-0.012 0.08,-0.057C0.037,-0.101 0.015,-0.163 0.015,-0.242C0.015,-0.321 0.039,-0.381 0.088,-0.423C0.136,-0.465 0.197,-0.486 0.272,-0.486C0.423,-0.486 0.496,-0.41 0.49,-0.258L0.208,-0.258L0.208,-0.219C0.208,-0.154 0.216,-0.104 0.233,-0.071C0.25,-0.038 0.279,-0.021 0.32,-0.021C0.397,-0.021 0.448,-0.062 0.472,-0.145L0.49,-0.142C0.477,-0.094 0.455,-0.057 0.422,-0.03C0.389,-0.003 0.339,0.01 0.273,0.01ZM0.209,-0.278L0.312,-0.278L0.312,-0.327C0.312,-0.381 0.309,-0.418 0.303,-0.438C0.296,-0.457 0.284,-0.467 0.265,-0.467C0.246,-0.467 0.232,-0.456 0.223,-0.436C0.214,-0.415 0.209,-0.378 0.209,-0.327L0.209,-0.278Z" style="fill:rgb(73,128,163);fill-rule:nonzero;"/>
                </g>
                <g transform="matrix(80,0,0,80,-934.456,738.938)">
                    <path d="M0.25,-0.235L0.279,-0.235L0.279,-0.312C0.279,-0.375 0.276,-0.418 0.269,-0.44C0.262,-0.461 0.248,-0.472 0.228,-0.472C0.216,-0.472 0.205,-0.469 0.196,-0.463C0.186,-0.456 0.181,-0.448 0.181,-0.437C0.181,-0.426 0.183,-0.414 0.187,-0.403L0.212,-0.403C0.217,-0.389 0.22,-0.372 0.22,-0.353C0.22,-0.333 0.212,-0.316 0.195,-0.302C0.178,-0.287 0.157,-0.28 0.132,-0.28C0.075,-0.28 0.046,-0.308 0.046,-0.363C0.046,-0.445 0.116,-0.486 0.255,-0.486C0.334,-0.486 0.389,-0.472 0.42,-0.446C0.45,-0.419 0.465,-0.369 0.465,-0.297L0.465,-0.094C0.465,-0.059 0.475,-0.042 0.494,-0.042C0.517,-0.042 0.53,-0.076 0.534,-0.145L0.549,-0.144C0.546,-0.085 0.535,-0.045 0.516,-0.023C0.497,-0.001 0.465,0.01 0.421,0.01C0.341,0.01 0.295,-0.015 0.283,-0.064C0.274,-0.039 0.261,-0.02 0.244,-0.008C0.227,0.004 0.201,0.01 0.168,0.01C0.069,0.01 0.02,-0.03 0.02,-0.111C0.02,-0.158 0.039,-0.191 0.077,-0.209C0.114,-0.226 0.172,-0.235 0.25,-0.235ZM0.21,-0.112C0.21,-0.077 0.212,-0.055 0.216,-0.045C0.219,-0.035 0.226,-0.03 0.237,-0.03C0.247,-0.03 0.257,-0.039 0.266,-0.056C0.275,-0.073 0.279,-0.096 0.279,-0.126L0.279,-0.219L0.272,-0.219C0.231,-0.219 0.21,-0.189 0.21,-0.128L0.21,-0.112Z" style="fill:rgb(73,128,163);fill-rule:nonzero;"/>
                </g>
                <g transform="matrix(80,0,0,80,-890.536,738.938)">
                    <path d="M0.033,0.01L0.033,-0.169L0.045,-0.169C0.062,-0.111 0.086,-0.07 0.115,-0.047C0.144,-0.024 0.181,-0.012 0.225,-0.012C0.293,-0.012 0.327,-0.034 0.327,-0.077C0.327,-0.096 0.319,-0.11 0.302,-0.119C0.276,-0.134 0.243,-0.145 0.202,-0.153C0.157,-0.165 0.119,-0.181 0.088,-0.201C0.051,-0.225 0.033,-0.263 0.033,-0.315C0.033,-0.367 0.049,-0.409 0.081,-0.44C0.113,-0.47 0.156,-0.486 0.209,-0.486C0.242,-0.486 0.275,-0.478 0.31,-0.463C0.323,-0.458 0.332,-0.455 0.339,-0.455C0.346,-0.455 0.351,-0.457 0.356,-0.462C0.361,-0.467 0.366,-0.475 0.373,-0.488L0.384,-0.488L0.384,-0.335L0.372,-0.335C0.338,-0.422 0.285,-0.465 0.214,-0.465C0.183,-0.465 0.159,-0.46 0.144,-0.449C0.129,-0.438 0.121,-0.424 0.121,-0.407C0.121,-0.397 0.123,-0.389 0.128,-0.384C0.133,-0.378 0.136,-0.374 0.139,-0.371C0.142,-0.368 0.146,-0.366 0.152,-0.363C0.158,-0.36 0.163,-0.357 0.167,-0.356C0.171,-0.354 0.177,-0.352 0.186,-0.349C0.194,-0.346 0.2,-0.345 0.204,-0.344C0.249,-0.333 0.282,-0.323 0.302,-0.315C0.322,-0.306 0.341,-0.296 0.359,-0.284C0.396,-0.259 0.414,-0.218 0.414,-0.162C0.414,-0.105 0.397,-0.063 0.364,-0.034C0.331,-0.005 0.285,0.01 0.227,0.01C0.186,0.01 0.146,0 0.107,-0.019C0.099,-0.024 0.093,-0.027 0.088,-0.027C0.073,-0.027 0.059,-0.015 0.045,0.01L0.033,0.01Z" style="fill:rgb(73,128,163);fill-rule:nonzero;"/>
                </g>
                <g transform="matrix(80,0,0,80,-857.736,738.938)">
                    <path d="M0.005,-0.458L0.005,-0.476L0.295,-0.476L0.295,-0.458L0.241,-0.458L0.35,-0.126L0.466,-0.458L0.399,-0.458L0.399,-0.476L0.54,-0.476L0.54,-0.458L0.49,-0.458L0.303,0.081C0.281,0.144 0.256,0.188 0.229,0.213C0.202,0.238 0.168,0.25 0.129,0.25C0.09,0.25 0.059,0.241 0.036,0.223C0.013,0.205 0.002,0.182 0.002,0.154C0.002,0.126 0.009,0.105 0.024,0.09C0.039,0.075 0.058,0.068 0.082,0.068C0.137,0.068 0.165,0.091 0.165,0.137C0.165,0.147 0.163,0.159 0.159,0.173L0.124,0.173C0.119,0.188 0.118,0.201 0.122,0.211C0.126,0.221 0.135,0.226 0.149,0.226C0.176,0.226 0.201,0.213 0.222,0.186C0.243,0.159 0.264,0.117 0.283,0.062L0.305,0L0.217,0L0.046,-0.458L0.005,-0.458Z" style="fill:rgb(73,128,163);fill-rule:nonzero;"/>
                </g>
                <g transform="matrix(80,0,0,80,-800.776,738.938)">
                    <path d="M0.06,-0.143L0.06,-0.458L0.005,-0.458L0.005,-0.476L0.06,-0.476L0.06,-0.605L0.246,-0.651L0.246,-0.476L0.376,-0.476L0.376,-0.458L0.246,-0.458L0.246,-0.121C0.246,-0.09 0.249,-0.067 0.256,-0.052C0.262,-0.037 0.275,-0.03 0.295,-0.03C0.315,-0.03 0.333,-0.04 0.348,-0.06C0.363,-0.08 0.372,-0.107 0.377,-0.142L0.394,-0.14C0.389,-0.094 0.374,-0.058 0.35,-0.031C0.326,-0.003 0.286,0.01 0.231,0.01C0.176,0.01 0.133,-0.001 0.104,-0.023C0.075,-0.045 0.06,-0.085 0.06,-0.143Z" style="fill:rgb(73,128,163);fill-rule:nonzero;"/>
                </g>
                <g transform="matrix(80,0,0,80,-769.256,738.938)">
                    <path d="M0.333,-0.197L0.333,-0.282C0.333,-0.347 0.33,-0.394 0.323,-0.424C0.316,-0.453 0.299,-0.468 0.274,-0.468C0.259,-0.468 0.248,-0.464 0.239,-0.456C0.23,-0.447 0.223,-0.433 0.219,-0.414C0.213,-0.384 0.21,-0.338 0.21,-0.277L0.21,-0.199C0.21,-0.126 0.212,-0.083 0.217,-0.068C0.221,-0.053 0.225,-0.041 0.23,-0.032C0.237,-0.016 0.252,-0.008 0.273,-0.008C0.299,-0.008 0.316,-0.023 0.324,-0.053C0.33,-0.074 0.333,-0.122 0.333,-0.197ZM0.271,0.01C0.188,0.01 0.125,-0.011 0.082,-0.054C0.039,-0.097 0.018,-0.158 0.018,-0.238C0.018,-0.317 0.041,-0.379 0.087,-0.422C0.132,-0.464 0.196,-0.486 0.279,-0.486C0.362,-0.486 0.423,-0.466 0.464,-0.427C0.505,-0.387 0.525,-0.326 0.525,-0.245C0.525,-0.075 0.44,0.01 0.271,0.01Z" style="fill:rgb(73,128,163);fill-rule:nonzero;"/>
                </g>
                <g transform="matrix(80,0,0,80,-711.416,738.938)">
                    <path d="M0.595,0L0.367,0L0.356,-0.073C0.345,-0.046 0.33,-0.026 0.309,-0.012C0.288,0.003 0.256,0.01 0.215,0.01C0.112,0.01 0.06,-0.046 0.06,-0.157L0.06,-0.458L0.004,-0.458L0.004,-0.476L0.246,-0.476L0.246,-0.133C0.246,-0.093 0.249,-0.067 0.255,-0.054C0.26,-0.041 0.272,-0.035 0.289,-0.035C0.306,-0.035 0.321,-0.045 0.334,-0.066C0.347,-0.087 0.354,-0.115 0.354,-0.152L0.354,-0.458L0.308,-0.458L0.308,-0.476L0.54,-0.476L0.54,-0.018L0.595,-0.018L0.595,0Z" style="fill:rgb(73,128,163);fill-rule:nonzero;"/>
                </g>
                <g transform="matrix(80,0,0,80,-663.016,738.938)">
                    <path d="M0.033,0.01L0.033,-0.169L0.045,-0.169C0.062,-0.111 0.086,-0.07 0.115,-0.047C0.144,-0.024 0.181,-0.012 0.225,-0.012C0.293,-0.012 0.327,-0.034 0.327,-0.077C0.327,-0.096 0.319,-0.11 0.302,-0.119C0.276,-0.134 0.243,-0.145 0.202,-0.153C0.157,-0.165 0.119,-0.181 0.088,-0.201C0.051,-0.225 0.033,-0.263 0.033,-0.315C0.033,-0.367 0.049,-0.409 0.081,-0.44C0.113,-0.47 0.156,-0.486 0.209,-0.486C0.242,-0.486 0.275,-0.478 0.31,-0.463C0.323,-0.458 0.332,-0.455 0.339,-0.455C0.346,-0.455 0.351,-0.457 0.356,-0.462C0.361,-0.467 0.366,-0.475 0.373,-0.488L0.384,-0.488L0.384,-0.335L0.372,-0.335C0.338,-0.422 0.285,-0.465 0.214,-0.465C0.183,-0.465 0.159,-0.46 0.144,-0.449C0.129,-0.438 0.121,-0.424 0.121,-0.407C0.121,-0.397 0.123,-0.389 0.128,-0.384C0.133,-0.378 0.136,-0.374 0.139,-0.371C0.142,-0.368 0.146,-0.366 0.152,-0.363C0.158,-0.36 0.163,-0.357 0.167,-0.356C0.171,-0.354 0.177,-0.352 0.186,-0.349C0.194,-0.346 0.2,-0.345 0.204,-0.344C0.249,-0.333 0.282,-0.323 0.302,-0.315C0.322,-0.306 0.341,-0.296 0.359,-0.284C0.396,-0.259 0.414,-0.218 0.414,-0.162C0.414,-0.105 0.397,-0.063 0.364,-0.034C0.331,-0.005 0.285,0.01 0.227,0.01C0.186,0.01 0.146,0 0.107,-0.019C0.099,-0.024 0.093,-0.027 0.088,-0.027C0.073,-0.027 0.059,-0.015 0.045,0.01L0.033,0.01Z" style="fill:rgb(73,128,163);fill-rule:nonzero;"/>
                </g>
                <g transform="matrix(80,0,0,80,-628.296,738.938)">
                    <path d="M0.273,0.01C0.187,0.01 0.123,-0.012 0.08,-0.057C0.037,-0.101 0.015,-0.163 0.015,-0.242C0.015,-0.321 0.039,-0.381 0.088,-0.423C0.136,-0.465 0.197,-0.486 0.272,-0.486C0.423,-0.486 0.496,-0.41 0.49,-0.258L0.208,-0.258L0.208,-0.219C0.208,-0.154 0.216,-0.104 0.233,-0.071C0.25,-0.038 0.279,-0.021 0.32,-0.021C0.397,-0.021 0.448,-0.062 0.472,-0.145L0.49,-0.142C0.477,-0.094 0.455,-0.057 0.422,-0.03C0.389,-0.003 0.339,0.01 0.273,0.01ZM0.209,-0.278L0.312,-0.278L0.312,-0.327C0.312,-0.381 0.309,-0.418 0.303,-0.438C0.296,-0.457 0.284,-0.467 0.265,-0.467C0.246,-0.467 0.232,-0.456 0.223,-0.436C0.214,-0.415 0.209,-0.378 0.209,-0.327L0.209,-0.278Z" style="fill:rgb(73,128,163);fill-rule:nonzero;"/>
                </g>
                <g transform="matrix(80,0,0,80,-572.616,738.938)">
                    <path d="M0.25,-0.235L0.279,-0.235L0.279,-0.312C0.279,-0.375 0.276,-0.418 0.269,-0.44C0.262,-0.461 0.248,-0.472 0.228,-0.472C0.216,-0.472 0.205,-0.469 0.196,-0.463C0.186,-0.456 0.181,-0.448 0.181,-0.437C0.181,-0.426 0.183,-0.414 0.187,-0.403L0.212,-0.403C0.217,-0.389 0.22,-0.372 0.22,-0.353C0.22,-0.333 0.212,-0.316 0.195,-0.302C0.178,-0.287 0.157,-0.28 0.132,-0.28C0.075,-0.28 0.046,-0.308 0.046,-0.363C0.046,-0.445 0.116,-0.486 0.255,-0.486C0.334,-0.486 0.389,-0.472 0.42,-0.446C0.45,-0.419 0.465,-0.369 0.465,-0.297L0.465,-0.094C0.465,-0.059 0.475,-0.042 0.494,-0.042C0.517,-0.042 0.53,-0.076 0.534,-0.145L0.549,-0.144C0.546,-0.085 0.535,-0.045 0.516,-0.023C0.497,-0.001 0.465,0.01 0.421,0.01C0.341,0.01 0.295,-0.015 0.283,-0.064C0.274,-0.039 0.261,-0.02 0.244,-0.008C0.227,0.004 0.201,0.01 0.168,0.01C0.069,0.01 0.02,-0.03 0.02,-0.111C0.02,-0.158 0.039,-0.191 0.077,-0.209C0.114,-0.226 0.172,-0.235 0.25,-0.235ZM0.21,-0.112C0.21,-0.077 0.212,-0.055 0.216,-0.045C0.219,-0.035 0.226,-0.03 0.237,-0.03C0.247,-0.03 0.257,-0.039 0.266,-0.056C0.275,-0.073 0.279,-0.096 0.279,-0.126L0.279,-0.219L0.272,-0.219C0.231,-0.219 0.21,-0.189 0.21,-0.128L0.21,-0.112Z" style="fill-rule:nonzero;"/>
                </g>
                <g transform="matrix(80,0,0,80,-528.696,738.938)">
                    <path d="M0.012,-0.476L0.253,-0.476L0.253,-0.384C0.264,-0.415 0.28,-0.439 0.302,-0.458C0.324,-0.477 0.357,-0.486 0.402,-0.486C0.505,-0.486 0.557,-0.43 0.557,-0.319L0.557,-0.018L0.613,-0.018L0.613,0L0.33,0L0.33,-0.018L0.371,-0.018L0.371,-0.343C0.371,-0.383 0.368,-0.409 0.363,-0.421C0.358,-0.432 0.348,-0.438 0.334,-0.438C0.313,-0.438 0.294,-0.424 0.278,-0.396C0.261,-0.368 0.253,-0.334 0.253,-0.294L0.253,-0.018L0.296,-0.018L0.296,0L0.012,0L0.012,-0.018L0.067,-0.018L0.067,-0.458L0.012,-0.458L0.012,-0.476Z" style="fill-rule:nonzero;"/>
                </g>
                <g transform="matrix(80,0,0,80,-479.416,738.938)">
                    <path d="M0.213,-0.207C0.213,-0.137 0.217,-0.091 0.224,-0.068C0.231,-0.045 0.245,-0.033 0.265,-0.033C0.284,-0.033 0.301,-0.042 0.316,-0.059C0.33,-0.076 0.337,-0.102 0.337,-0.136L0.337,-0.354C0.337,-0.383 0.331,-0.407 0.32,-0.427C0.309,-0.447 0.292,-0.457 0.27,-0.457C0.248,-0.457 0.233,-0.442 0.225,-0.413C0.217,-0.384 0.213,-0.332 0.213,-0.259L0.213,-0.207ZM0.35,0L0.339,-0.07C0.316,-0.017 0.27,0.01 0.201,0.01C0.144,0.01 0.099,-0.011 0.068,-0.052C0.036,-0.093 0.02,-0.155 0.02,-0.237C0.02,-0.403 0.086,-0.486 0.218,-0.486C0.277,-0.486 0.315,-0.47 0.334,-0.437L0.334,-0.732L0.273,-0.732L0.273,-0.75L0.523,-0.75L0.523,-0.018L0.572,-0.018L0.572,0L0.35,0Z" style="fill-rule:nonzero;"/>
                </g>
                <g transform="matrix(80,0,0,80,-417.976,738.938)">
                    <path d="M0.25,-0.235L0.279,-0.235L0.279,-0.312C0.279,-0.375 0.276,-0.418 0.269,-0.44C0.262,-0.461 0.248,-0.472 0.228,-0.472C0.216,-0.472 0.205,-0.469 0.196,-0.463C0.186,-0.456 0.181,-0.448 0.181,-0.437C0.181,-0.426 0.183,-0.414 0.187,-0.403L0.212,-0.403C0.217,-0.389 0.22,-0.372 0.22,-0.353C0.22,-0.333 0.212,-0.316 0.195,-0.302C0.178,-0.287 0.157,-0.28 0.132,-0.28C0.075,-0.28 0.046,-0.308 0.046,-0.363C0.046,-0.445 0.116,-0.486 0.255,-0.486C0.334,-0.486 0.389,-0.472 0.42,-0.446C0.45,-0.419 0.465,-0.369 0.465,-0.297L0.465,-0.094C0.465,-0.059 0.475,-0.042 0.494,-0.042C0.517,-0.042 0.53,-0.076 0.534,-0.145L0.549,-0.144C0.546,-0.085 0.535,-0.045 0.516,-0.023C0.497,-0.001 0.465,0.01 0.421,0.01C0.341,0.01 0.295,-0.015 0.283,-0.064C0.274,-0.039 0.261,-0.02 0.244,-0.008C0.227,0.004 0.201,0.01 0.168,0.01C0.069,0.01 0.02,-0.03 0.02,-0.111C0.02,-0.158 0.039,-0.191 0.077,-0.209C0.114,-0.226 0.172,-0.235 0.25,-0.235ZM0.21,-0.112C0.21,-0.077 0.212,-0.055 0.216,-0.045C0.219,-0.035 0.226,-0.03 0.237,-0.03C0.247,-0.03 0.257,-0.039 0.266,-0.056C0.275,-0.073 0.279,-0.096 0.279,-0.126L0.279,-0.219L0.272,-0.219C0.231,-0.219 0.21,-0.189 0.21,-0.128L0.21,-0.112Z" style="fill:rgb(73,128,163);fill-rule:nonzero;"/>
                </g>
                <g transform="matrix(80,0,0,80,-374.056,738.938)">
                    <path d="M0.29,-0.468C0.261,-0.468 0.24,-0.452 0.227,-0.42C0.214,-0.388 0.208,-0.335 0.208,-0.261L0.208,-0.209C0.208,-0.143 0.215,-0.096 0.23,-0.067C0.245,-0.038 0.272,-0.024 0.311,-0.024C0.35,-0.024 0.382,-0.037 0.405,-0.064C0.428,-0.091 0.443,-0.121 0.45,-0.155L0.468,-0.153C0.455,-0.096 0.432,-0.054 0.398,-0.029C0.363,-0.003 0.316,0.01 0.255,0.01C0.178,0.01 0.118,-0.011 0.077,-0.053C0.036,-0.094 0.015,-0.155 0.015,-0.236C0.015,-0.316 0.039,-0.378 0.086,-0.421C0.133,-0.464 0.198,-0.486 0.282,-0.486C0.341,-0.486 0.387,-0.474 0.418,-0.452C0.449,-0.428 0.465,-0.4 0.465,-0.365C0.465,-0.33 0.458,-0.305 0.443,-0.289C0.428,-0.273 0.407,-0.265 0.381,-0.265C0.354,-0.265 0.333,-0.272 0.317,-0.286C0.301,-0.3 0.293,-0.321 0.293,-0.348C0.293,-0.36 0.295,-0.372 0.298,-0.384L0.331,-0.384C0.336,-0.397 0.338,-0.409 0.338,-0.42C0.338,-0.452 0.322,-0.468 0.29,-0.468Z" style="fill:rgb(73,128,163);fill-rule:nonzero;"/>
                </g>
                <g transform="matrix(80,0,0,80,-335.416,738.938)">
                    <path d="M0.29,-0.468C0.261,-0.468 0.24,-0.452 0.227,-0.42C0.214,-0.388 0.208,-0.335 0.208,-0.261L0.208,-0.209C0.208,-0.143 0.215,-0.096 0.23,-0.067C0.245,-0.038 0.272,-0.024 0.311,-0.024C0.35,-0.024 0.382,-0.037 0.405,-0.064C0.428,-0.091 0.443,-0.121 0.45,-0.155L0.468,-0.153C0.455,-0.096 0.432,-0.054 0.398,-0.029C0.363,-0.003 0.316,0.01 0.255,0.01C0.178,0.01 0.118,-0.011 0.077,-0.053C0.036,-0.094 0.015,-0.155 0.015,-0.236C0.015,-0.316 0.039,-0.378 0.086,-0.421C0.133,-0.464 0.198,-0.486 0.282,-0.486C0.341,-0.486 0.387,-0.474 0.418,-0.452C0.449,-0.428 0.465,-0.4 0.465,-0.365C0.465,-0.33 0.458,-0.305 0.443,-0.289C0.428,-0.273 0.407,-0.265 0.381,-0.265C0.354,-0.265 0.333,-0.272 0.317,-0.286C0.301,-0.3 0.293,-0.321 0.293,-0.348C0.293,-0.36 0.295,-0.372 0.298,-0.384L0.331,-0.384C0.336,-0.397 0.338,-0.409 0.338,-0.42C0.338,-0.452 0.322,-0.468 0.29,-0.468Z" style="fill:rgb(73,128,163);fill-rule:nonzero;"/>
                </g>
                <g transform="matrix(80,0,0,80,-296.776,738.938)">
                    <path d="M0.273,0.01C0.187,0.01 0.123,-0.012 0.08,-0.057C0.037,-0.101 0.015,-0.163 0.015,-0.242C0.015,-0.321 0.039,-0.381 0.088,-0.423C0.136,-0.465 0.197,-0.486 0.272,-0.486C0.423,-0.486 0.496,-0.41 0.49,-0.258L0.208,-0.258L0.208,-0.219C0.208,-0.154 0.216,-0.104 0.233,-0.071C0.25,-0.038 0.279,-0.021 0.32,-0.021C0.397,-0.021 0.448,-0.062 0.472,-0.145L0.49,-0.142C0.477,-0.094 0.455,-0.057 0.422,-0.03C0.389,-0.003 0.339,0.01 0.273,0.01ZM0.209,-0.278L0.312,-0.278L0.312,-0.327C0.312,-0.381 0.309,-0.418 0.303,-0.438C0.296,-0.457 0.284,-0.467 0.265,-0.467C0.246,-0.467 0.232,-0.456 0.223,-0.436C0.214,-0.415 0.209,-0.378 0.209,-0.327L0.209,-0.278Z" style="fill:rgb(73,128,163);fill-rule:nonzero;"/>
                </g>
                <g transform="matrix(80,0,0,80,-256.296,738.938)">
                    <path d="M0.033,0.01L0.033,-0.169L0.045,-0.169C0.062,-0.111 0.086,-0.07 0.115,-0.047C0.144,-0.024 0.181,-0.012 0.225,-0.012C0.293,-0.012 0.327,-0.034 0.327,-0.077C0.327,-0.096 0.319,-0.11 0.302,-0.119C0.276,-0.134 0.243,-0.145 0.202,-0.153C0.157,-0.165 0.119,-0.181 0.088,-0.201C0.051,-0.225 0.033,-0.263 0.033,-0.315C0.033,-0.367 0.049,-0.409 0.081,-0.44C0.113,-0.47 0.156,-0.486 0.209,-0.486C0.242,-0.486 0.275,-0.478 0.31,-0.463C0.323,-0.458 0.332,-0.455 0.339,-0.455C0.346,-0.455 0.351,-0.457 0.356,-0.462C0.361,-0.467 0.366,-0.475 0.373,-0.488L0.384,-0.488L0.384,-0.335L0.372,-0.335C0.338,-0.422 0.285,-0.465 0.214,-0.465C0.183,-0.465 0.159,-0.46 0.144,-0.449C0.129,-0.438 0.121,-0.424 0.121,-0.407C0.121,-0.397 0.123,-0.389 0.128,-0.384C0.133,-0.378 0.136,-0.374 0.139,-0.371C0.142,-0.368 0.146,-0.366 0.152,-0.363C0.158,-0.36 0.163,-0.357 0.167,-0.356C0.171,-0.354 0.177,-0.352 0.186,-0.349C0.194,-0.346 0.2,-0.345 0.204,-0.344C0.249,-0.333 0.282,-0.323 0.302,-0.315C0.322,-0.306 0.341,-0.296 0.359,-0.284C0.396,-0.259 0.414,-0.218 0.414,-0.162C0.414,-0.105 0.397,-0.063 0.364,-0.034C0.331,-0.005 0.285,0.01 0.227,0.01C0.186,0.01 0.146,0 0.107,-0.019C0.099,-0.024 0.093,-0.027 0.088,-0.027C0.073,-0.027 0.059,-0.015 0.045,0.01L0.033,0.01Z" style="fill:rgb(73,128,163);fill-rule:nonzero;"/>
                </g>
                <g transform="matrix(80,0,0,80,-221.576,738.938)">
                    <path d="M0.033,0.01L0.033,-0.169L0.045,-0.169C0.062,-0.111 0.086,-0.07 0.115,-0.047C0.144,-0.024 0.181,-0.012 0.225,-0.012C0.293,-0.012 0.327,-0.034 0.327,-0.077C0.327,-0.096 0.319,-0.11 0.302,-0.119C0.276,-0.134 0.243,-0.145 0.202,-0.153C0.157,-0.165 0.119,-0.181 0.088,-0.201C0.051,-0.225 0.033,-0.263 0.033,-0.315C0.033,-0.367 0.049,-0.409 0.081,-0.44C0.113,-0.47 0.156,-0.486 0.209,-0.486C0.242,-0.486 0.275,-0.478 0.31,-0.463C0.323,-0.458 0.332,-0.455 0.339,-0.455C0.346,-0.455 0.351,-0.457 0.356,-0.462C0.361,-0.467 0.366,-0.475 0.373,-0.488L0.384,-0.488L0.384,-0.335L0.372,-0.335C0.338,-0.422 0.285,-0.465 0.214,-0.465C0.183,-0.465 0.159,-0.46 0.144,-0.449C0.129,-0.438 0.121,-0.424 0.121,-0.407C0.121,-0.397 0.123,-0.389 0.128,-0.384C0.133,-0.378 0.136,-0.374 0.139,-0.371C0.142,-0.368 0.146,-0.366 0.152,-0.363C0.158,-0.36 0.163,-0.357 0.167,-0.356C0.171,-0.354 0.177,-0.352 0.186,-0.349C0.194,-0.346 0.2,-0.345 0.204,-0.344C0.249,-0.333 0.282,-0.323 0.302,-0.315C0.322,-0.306 0.341,-0.296 0.359,-0.284C0.396,-0.259 0.414,-0.218 0.414,-0.162C0.414,-0.105 0.397,-0.063 0.364,-0.034C0.331,-0.005 0.285,0.01 0.227,0.01C0.186,0.01 0.146,0 0.107,-0.019C0.099,-0.024 0.093,-0.027 0.088,-0.027C0.073,-0.027 0.059,-0.015 0.045,0.01L0.033,0.01Z" style="fill:rgb(73,128,163);fill-rule:nonzero;"/>
                </g>
                <g transform="matrix(80,0,0,80,-186.856,738.938)">
                    <path d="M0.157,-0.545C0.122,-0.545 0.097,-0.554 0.082,-0.572C0.067,-0.59 0.059,-0.612 0.059,-0.639C0.059,-0.666 0.067,-0.688 0.084,-0.705C0.1,-0.722 0.125,-0.731 0.158,-0.731C0.191,-0.731 0.217,-0.723 0.234,-0.708C0.251,-0.692 0.26,-0.67 0.26,-0.641C0.26,-0.611 0.252,-0.588 0.235,-0.571C0.218,-0.554 0.192,-0.545 0.157,-0.545ZM0.006,-0.476L0.251,-0.476L0.251,-0.018L0.307,-0.018L0.307,0L0.01,0L0.01,-0.018L0.065,-0.018L0.065,-0.458L0.006,-0.458L0.006,-0.476Z" style="fill:rgb(73,128,163);fill-rule:nonzero;"/>
                </g>
                <g transform="matrix(80,0,0,80,-161.496,738.938)">
                    <path d="M0.375,-0.269C0.375,-0.338 0.372,-0.384 0.365,-0.408C0.358,-0.431 0.345,-0.443 0.326,-0.443C0.307,-0.443 0.289,-0.431 0.274,-0.407C0.259,-0.383 0.251,-0.35 0.251,-0.308L0.251,-0.122C0.251,-0.093 0.257,-0.069 0.269,-0.049C0.28,-0.029 0.297,-0.019 0.319,-0.019C0.34,-0.019 0.355,-0.034 0.363,-0.063C0.371,-0.092 0.375,-0.144 0.375,-0.217L0.375,-0.269ZM0.251,-0.75L0.251,-0.4C0.276,-0.457 0.32,-0.486 0.381,-0.486C0.506,-0.486 0.568,-0.403 0.568,-0.237C0.568,-0.152 0.551,-0.09 0.517,-0.05C0.482,-0.01 0.431,0.01 0.362,0.01C0.327,0.01 0.301,0.005 0.283,-0.006C0.264,-0.017 0.252,-0.034 0.245,-0.059L0.238,0L0.01,0L0.01,-0.018L0.065,-0.018L0.065,-0.732L0.01,-0.732L0.01,-0.75L0.251,-0.75Z" style="fill:rgb(73,128,163);fill-rule:nonzero;"/>
                </g>
                <g transform="matrix(80,0,0,80,-114.456,738.938)">
                    <path d="M0.006,-0.75L0.251,-0.75L0.251,-0.018L0.307,-0.018L0.307,0L0.01,0L0.01,-0.018L0.065,-0.018L0.065,-0.732L0.006,-0.732L0.006,-0.75Z" style="fill:rgb(73,128,163);fill-rule:nonzero;"/>
                </g>
                <g transform="matrix(80,0,0,80,-89.1763,738.938)">
                    <path d="M0.273,0.01C0.187,0.01 0.123,-0.012 0.08,-0.057C0.037,-0.101 0.015,-0.163 0.015,-0.242C0.015,-0.321 0.039,-0.381 0.088,-0.423C0.136,-0.465 0.197,-0.486 0.272,-0.486C0.423,-0.486 0.496,-0.41 0.49,-0.258L0.208,-0.258L0.208,-0.219C0.208,-0.154 0.216,-0.104 0.233,-0.071C0.25,-0.038 0.279,-0.021 0.32,-0.021C0.397,-0.021 0.448,-0.062 0.472,-0.145L0.49,-0.142C0.477,-0.094 0.455,-0.057 0.422,-0.03C0.389,-0.003 0.339,0.01 0.273,0.01ZM0.209,-0.278L0.312,-0.278L0.312,-0.327C0.312,-0.381 0.309,-0.418 0.303,-0.438C0.296,-0.457 0.284,-0.467 0.265,-0.467C0.246,-0.467 0.232,-0.456 0.223,-0.436C0.214,-0.415 0.209,-0.378 0.209,-0.327L0.209,-0.278Z" style="fill:rgb(73,128,163);fill-rule:nonzero;"/>
                </g>
                <g transform="matrix(80,0,0,80,-50.2963,738.938)">
                    <path d="M0.227,-0.481L0.198,-0.747C0.225,-0.76 0.246,-0.767 0.263,-0.767C0.286,-0.767 0.297,-0.755 0.297,-0.73C0.297,-0.715 0.294,-0.693 0.288,-0.664L0.248,-0.481L0.227,-0.481ZM0.079,-0.481L0.05,-0.747C0.077,-0.76 0.098,-0.767 0.115,-0.767C0.138,-0.767 0.149,-0.755 0.149,-0.73C0.149,-0.715 0.146,-0.693 0.14,-0.664L0.1,-0.481L0.079,-0.481Z" style="fill-rule:nonzero;"/>
                </g>
            </g>
        </g>
    </g>
</svg>
