<?xml version="1.0" encoding="UTF-8" standalone="no"?>
<!DOCTYPE svg PUBLIC "-//W3C//DTD SVG 1.1//EN" "http://www.w3.org/Graphics/SVG/1.1/DTD/svg11.dtd">
<svg width="100%" height="100%" viewBox="0 0 1106 542" version="1.1" xmlns="http://www.w3.org/2000/svg" xmlns:xlink="http://www.w3.org/1999/xlink" xml:space="preserve" xmlns:serif="http://www.serif.com/" style="fill-rule:evenodd;clip-rule:evenodd;stroke-linecap:round;stroke-linejoin:round;stroke-miterlimit:1.5;">
    <g transform="matrix(1,0,0,1,1374.87,-848.746)">
        <g transform="matrix(1,0,0,1,-84.4011,488.736)">
            <g transform="matrix(1.34612,0,0,1.24844,-1565.52,-504.705)">
                <path d="M1024.65,726.079C1024.65,708.396 1011.33,694.039 994.933,694.039L235.348,694.039C218.947,694.039 205.632,708.396 205.632,726.079L205.632,994.757C205.632,1012.44 218.947,1026.8 235.348,1026.8L994.933,1026.8C1011.33,1026.8 1024.65,1012.44 1024.65,994.757L1024.65,726.079Z" style="fill:none;stroke:rgb(73,128,163);stroke-width:2.7px;"/>
            </g>
            <g transform="matrix(1,0,0,1,-1422.25,-63.6927)">
                <path d="M249.87,840.881C323.052,840.615 366.187,879.955 376.173,962.987" style="fill:none;stroke:rgb(73,128,163);stroke-width:3.5px;"/>
            </g>
            <g transform="matrix(1,0,0,1,-250.796,-183.897)">
                <g transform="matrix(80,0,0,80,-975.736,658.938)">
                    <path d="M0.227,-0.481L0.198,-0.747C0.225,-0.76 0.246,-0.767 0.263,-0.767C0.286,-0.767 0.297,-0.755 0.297,-0.73C0.297,-0.715 0.294,-0.693 0.288,-0.664L0.248,-0.481L0.227,-0.481ZM0.079,-0.481L0.05,-0.747C0.077,-0.76 0.098,-0.767 0.115,-0.767C0.138,-0.767 0.149,-0.755 0.149,-0.73C0.149,-0.715 0.146,-0.693 0.14,-0.664L0.1,-0.481L0.079,-0.481Z" style="fill-rule:nonzero;"/>
                </g>
                <g transform="matrix(80,0,0,80,-949.016,658.938)">
                    <path d="M0.025,-0.7L0.33,-0.7L0.33,-0.681L0.275,-0.681L0.275,-0.019L0.33,-0.019L0.33,0L0.025,0L0.025,-0.019L0.08,-0.019L0.08,-0.681L0.025,-0.681L0.025,-0.7Z" style="fill-rule:nonzero;"/>
                </g>
                <g transform="matrix(80,0,0,80,-906.216,658.938)">
                    <path d="M0.352,-0.458L0.352,-0.476L0.61,-0.476L0.61,-0.458L0.569,-0.458L0.659,-0.121L0.748,-0.458L0.679,-0.458L0.679,-0.476L0.814,-0.476L0.814,-0.458L0.772,-0.458L0.652,0L0.515,0L0.428,-0.307L0.334,0L0.2,0L0.052,-0.458L0.007,-0.458L0.007,-0.476L0.31,-0.476L0.31,-0.458L0.25,-0.458L0.342,-0.118L0.414,-0.352L0.389,-0.458L0.352,-0.458Z" style="fill-rule:nonzero;"/>
                </g>
                <g transform="matrix(80,0,0,80,-842.936,658.938)">
                    <path d="M0.25,-0.235L0.279,-0.235L0.279,-0.312C0.279,-0.375 0.276,-0.418 0.269,-0.44C0.262,-0.461 0.248,-0.472 0.228,-0.472C0.216,-0.472 0.205,-0.469 0.196,-0.463C0.186,-0.456 0.181,-0.448 0.181,-0.437C0.181,-0.426 0.183,-0.414 0.187,-0.403L0.212,-0.403C0.217,-0.389 0.22,-0.372 0.22,-0.353C0.22,-0.333 0.212,-0.316 0.195,-0.302C0.178,-0.287 0.157,-0.28 0.132,-0.28C0.075,-0.28 0.046,-0.308 0.046,-0.363C0.046,-0.445 0.116,-0.486 0.255,-0.486C0.334,-0.486 0.389,-0.472 0.42,-0.446C0.45,-0.419 0.465,-0.369 0.465,-0.297L0.465,-0.094C0.465,-0.059 0.475,-0.042 0.494,-0.042C0.517,-0.042 0.53,-0.076 0.534,-0.145L0.549,-0.144C0.546,-0.085 0.535,-0.045 0.516,-0.023C0.497,-0.001 0.465,0.01 0.421,0.01C0.341,0.01 0.295,-0.015 0.283,-0.064C0.274,-0.039 0.261,-0.02 0.244,-0.008C0.227,0.004 0.201,0.01 0.168,0.01C0.069,0.01 0.02,-0.03 0.02,-0.111C0.02,-0.158 0.039,-0.191 0.077,-0.209C0.114,-0.226 0.172,-0.235 0.25,-0.235ZM0.21,-0.112C0.21,-0.077 0.212,-0.055 0.216,-0.045C0.219,-0.035 0.226,-0.03 0.237,-0.03C0.247,-0.03 0.257,-0.039 0.266,-0.056C0.275,-0.073 0.279,-0.096 0.279,-0.126L0.279,-0.219L0.272,-0.219C0.231,-0.219 0.21,-0.189 0.21,-0.128L0.21,-0.112Z" style="fill-rule:nonzero;"/>
                </g>
                <g transform="matrix(80,0,0,80,-799.016,658.938)">
                    <path d="M0.012,-0.476L0.253,-0.476L0.253,-0.384C0.264,-0.415 0.28,-0.439 0.302,-0.458C0.324,-0.477 0.357,-0.486 0.402,-0.486C0.505,-0.486 0.557,-0.43 0.557,-0.319L0.557,-0.018L0.613,-0.018L0.613,0L0.33,0L0.33,-0.018L0.371,-0.018L0.371,-0.343C0.371,-0.383 0.368,-0.409 0.363,-0.421C0.358,-0.432 0.348,-0.438 0.334,-0.438C0.313,-0.438 0.294,-0.424 0.278,-0.396C0.261,-0.368 0.253,-0.334 0.253,-0.294L0.253,-0.018L0.296,-0.018L0.296,0L0.012,0L0.012,-0.018L0.067,-0.018L0.067,-0.458L0.012,-0.458L0.012,-0.476Z" style="fill-rule:nonzero;"/>
                </g>
                <g transform="matrix(80,0,0,80,-750.136,658.938)">
                    <path d="M0.06,-0.143L0.06,-0.458L0.005,-0.458L0.005,-0.476L0.06,-0.476L0.06,-0.605L0.246,-0.651L0.246,-0.476L0.376,-0.476L0.376,-0.458L0.246,-0.458L0.246,-0.121C0.246,-0.09 0.249,-0.067 0.256,-0.052C0.262,-0.037 0.275,-0.03 0.295,-0.03C0.315,-0.03 0.333,-0.04 0.348,-0.06C0.363,-0.08 0.372,-0.107 0.377,-0.142L0.394,-0.14C0.389,-0.094 0.374,-0.058 0.35,-0.031C0.326,-0.003 0.286,0.01 0.231,0.01C0.176,0.01 0.133,-0.001 0.104,-0.023C0.075,-0.045 0.06,-0.085 0.06,-0.143Z" style="fill-rule:nonzero;"/>
                </g>
                <g transform="matrix(80,0,0,80,-704.216,658.938)">
                    <path d="M0.06,-0.143L0.06,-0.458L0.005,-0.458L0.005,-0.476L0.06,-0.476L0.06,-0.605L0.246,-0.651L0.246,-0.476L0.376,-0.476L0.376,-0.458L0.246,-0.458L0.246,-0.121C0.246,-0.09 0.249,-0.067 0.256,-0.052C0.262,-0.037 0.275,-0.03 0.295,-0.03C0.315,-0.03 0.333,-0.04 0.348,-0.06C0.363,-0.08 0.372,-0.107 0.377,-0.142L0.394,-0.14C0.389,-0.094 0.374,-0.058 0.35,-0.031C0.326,-0.003 0.286,0.01 0.231,0.01C0.176,0.01 0.133,-0.001 0.104,-0.023C0.075,-0.045 0.06,-0.085 0.06,-0.143Z" style="fill-rule:nonzero;"/>
                </g>
                <g transform="matrix(80,0,0,80,-672.696,658.938)">
                    <path d="M0.333,-0.197L0.333,-0.282C0.333,-0.347 0.33,-0.394 0.323,-0.424C0.316,-0.453 0.299,-0.468 0.274,-0.468C0.259,-0.468 0.248,-0.464 0.239,-0.456C0.23,-0.447 0.223,-0.433 0.219,-0.414C0.213,-0.384 0.21,-0.338 0.21,-0.277L0.21,-0.199C0.21,-0.126 0.212,-0.083 0.217,-0.068C0.221,-0.053 0.225,-0.041 0.23,-0.032C0.237,-0.016 0.252,-0.008 0.273,-0.008C0.299,-0.008 0.316,-0.023 0.324,-0.053C0.33,-0.074 0.333,-0.122 0.333,-0.197ZM0.271,0.01C0.188,0.01 0.125,-0.011 0.082,-0.054C0.039,-0.097 0.018,-0.158 0.018,-0.238C0.018,-0.317 0.041,-0.379 0.087,-0.422C0.132,-0.464 0.196,-0.486 0.279,-0.486C0.362,-0.486 0.423,-0.466 0.464,-0.427C0.505,-0.387 0.525,-0.326 0.525,-0.245C0.525,-0.075 0.44,0.01 0.271,0.01Z" style="fill-rule:nonzero;"/>
                </g>
                <g transform="matrix(80,0,0,80,-614.856,658.938)">
                    <path d="M0.337,0L0.337,-0.018L0.383,-0.018L0.27,-0.25L0.251,-0.245L0.251,-0.018L0.297,-0.018L0.297,0L0.01,0L0.01,-0.018L0.065,-0.018L0.065,-0.732L0.006,-0.732L0.006,-0.75L0.251,-0.75L0.251,-0.265L0.267,-0.271L0.492,-0.458L0.398,-0.458L0.398,-0.476L0.595,-0.476L0.595,-0.458L0.525,-0.458L0.406,-0.357L0.579,-0.018L0.615,-0.018L0.615,0L0.337,0Z" style="fill-rule:nonzero;"/>
                </g>
                <g transform="matrix(80,0,0,80,-565.256,658.938)">
                    <path d="M0.012,-0.476L0.253,-0.476L0.253,-0.384C0.264,-0.415 0.28,-0.439 0.302,-0.458C0.324,-0.477 0.357,-0.486 0.402,-0.486C0.505,-0.486 0.557,-0.43 0.557,-0.319L0.557,-0.018L0.613,-0.018L0.613,0L0.33,0L0.33,-0.018L0.371,-0.018L0.371,-0.343C0.371,-0.383 0.368,-0.409 0.363,-0.421C0.358,-0.432 0.348,-0.438 0.334,-0.438C0.313,-0.438 0.294,-0.424 0.278,-0.396C0.261,-0.368 0.253,-0.334 0.253,-0.294L0.253,-0.018L0.296,-0.018L0.296,0L0.012,0L0.012,-0.018L0.067,-0.018L0.067,-0.458L0.012,-0.458L0.012,-0.476Z" style="fill-rule:nonzero;"/>
                </g>
                <g transform="matrix(80,0,0,80,-515.976,658.938)">
                    <path d="M0.333,-0.197L0.333,-0.282C0.333,-0.347 0.33,-0.394 0.323,-0.424C0.316,-0.453 0.299,-0.468 0.274,-0.468C0.259,-0.468 0.248,-0.464 0.239,-0.456C0.23,-0.447 0.223,-0.433 0.219,-0.414C0.213,-0.384 0.21,-0.338 0.21,-0.277L0.21,-0.199C0.21,-0.126 0.212,-0.083 0.217,-0.068C0.221,-0.053 0.225,-0.041 0.23,-0.032C0.237,-0.016 0.252,-0.008 0.273,-0.008C0.299,-0.008 0.316,-0.023 0.324,-0.053C0.33,-0.074 0.333,-0.122 0.333,-0.197ZM0.271,0.01C0.188,0.01 0.125,-0.011 0.082,-0.054C0.039,-0.097 0.018,-0.158 0.018,-0.238C0.018,-0.317 0.041,-0.379 0.087,-0.422C0.132,-0.464 0.196,-0.486 0.279,-0.486C0.362,-0.486 0.423,-0.466 0.464,-0.427C0.505,-0.387 0.525,-0.326 0.525,-0.245C0.525,-0.075 0.44,0.01 0.271,0.01Z" style="fill-rule:nonzero;"/>
                </g>
                <g transform="matrix(80,0,0,80,-474.936,658.938)">
                    <path d="M0.352,-0.458L0.352,-0.476L0.61,-0.476L0.61,-0.458L0.569,-0.458L0.659,-0.121L0.748,-0.458L0.679,-0.458L0.679,-0.476L0.814,-0.476L0.814,-0.458L0.772,-0.458L0.652,0L0.515,0L0.428,-0.307L0.334,0L0.2,0L0.052,-0.458L0.007,-0.458L0.007,-0.476L0.31,-0.476L0.31,-0.458L0.25,-0.458L0.342,-0.118L0.414,-0.352L0.389,-0.458L0.352,-0.458Z" style="fill-rule:nonzero;"/>
                </g>
                <g transform="matrix(80,0,0,80,-393.816,658.938)">
                    <path d="M0.352,-0.458L0.352,-0.476L0.61,-0.476L0.61,-0.458L0.569,-0.458L0.659,-0.121L0.748,-0.458L0.679,-0.458L0.679,-0.476L0.814,-0.476L0.814,-0.458L0.772,-0.458L0.652,0L0.515,0L0.428,-0.307L0.334,0L0.2,0L0.052,-0.458L0.007,-0.458L0.007,-0.476L0.31,-0.476L0.31,-0.458L0.25,-0.458L0.342,-0.118L0.414,-0.352L0.389,-0.458L0.352,-0.458Z" style="fill-rule:nonzero;"/>
                </g>
                <g transform="matrix(80,0,0,80,-328.696,658.938)">
                    <path d="M0.01,-0.75L0.251,-0.75L0.251,-0.384C0.262,-0.415 0.278,-0.439 0.3,-0.458C0.322,-0.477 0.355,-0.486 0.4,-0.486C0.503,-0.486 0.555,-0.43 0.555,-0.319L0.555,-0.018L0.611,-0.018L0.611,0L0.328,0L0.328,-0.018L0.369,-0.018L0.369,-0.343C0.369,-0.383 0.366,-0.409 0.361,-0.421C0.356,-0.432 0.346,-0.438 0.332,-0.438C0.311,-0.438 0.292,-0.424 0.276,-0.396C0.259,-0.368 0.251,-0.334 0.251,-0.294L0.251,-0.018L0.294,-0.018L0.294,0L0.01,0L0.01,-0.018L0.065,-0.018L0.065,-0.732L0.01,-0.732L0.01,-0.75Z" style="fill-rule:nonzero;"/>
                </g>
                <g transform="matrix(80,0,0,80,-279.416,658.938)">
                    <path d="M0.25,-0.235L0.279,-0.235L0.279,-0.312C0.279,-0.375 0.276,-0.418 0.269,-0.44C0.262,-0.461 0.248,-0.472 0.228,-0.472C0.216,-0.472 0.205,-0.469 0.196,-0.463C0.186,-0.456 0.181,-0.448 0.181,-0.437C0.181,-0.426 0.183,-0.414 0.187,-0.403L0.212,-0.403C0.217,-0.389 0.22,-0.372 0.22,-0.353C0.22,-0.333 0.212,-0.316 0.195,-0.302C0.178,-0.287 0.157,-0.28 0.132,-0.28C0.075,-0.28 0.046,-0.308 0.046,-0.363C0.046,-0.445 0.116,-0.486 0.255,-0.486C0.334,-0.486 0.389,-0.472 0.42,-0.446C0.45,-0.419 0.465,-0.369 0.465,-0.297L0.465,-0.094C0.465,-0.059 0.475,-0.042 0.494,-0.042C0.517,-0.042 0.53,-0.076 0.534,-0.145L0.549,-0.144C0.546,-0.085 0.535,-0.045 0.516,-0.023C0.497,-0.001 0.465,0.01 0.421,0.01C0.341,0.01 0.295,-0.015 0.283,-0.064C0.274,-0.039 0.261,-0.02 0.244,-0.008C0.227,0.004 0.201,0.01 0.168,0.01C0.069,0.01 0.02,-0.03 0.02,-0.111C0.02,-0.158 0.039,-0.191 0.077,-0.209C0.114,-0.226 0.172,-0.235 0.25,-0.235ZM0.21,-0.112C0.21,-0.077 0.212,-0.055 0.216,-0.045C0.219,-0.035 0.226,-0.03 0.237,-0.03C0.247,-0.03 0.257,-0.039 0.266,-0.056C0.275,-0.073 0.279,-0.096 0.279,-0.126L0.279,-0.219L0.272,-0.219C0.231,-0.219 0.21,-0.189 0.21,-0.128L0.21,-0.112Z" style="fill-rule:nonzero;"/>
                </g>
                <g transform="matrix(80,0,0,80,-236.696,658.938)">
                    <path d="M0.06,-0.143L0.06,-0.458L0.005,-0.458L0.005,-0.476L0.06,-0.476L0.06,-0.605L0.246,-0.651L0.246,-0.476L0.376,-0.476L0.376,-0.458L0.246,-0.458L0.246,-0.121C0.246,-0.09 0.249,-0.067 0.256,-0.052C0.262,-0.037 0.275,-0.03 0.295,-0.03C0.315,-0.03 0.333,-0.04 0.348,-0.06C0.363,-0.08 0.372,-0.107 0.377,-0.142L0.394,-0.14C0.389,-0.094 0.374,-0.058 0.35,-0.031C0.326,-0.003 0.286,0.01 0.231,0.01C0.176,0.01 0.133,-0.001 0.104,-0.023C0.075,-0.045 0.06,-0.085 0.06,-0.143Z" style="fill-rule:nonzero;"/>
                </g>
                <g transform="matrix(80,0,0,80,-190.776,658.938)">
                    <path d="M0.157,-0.545C0.122,-0.545 0.097,-0.554 0.082,-0.572C0.067,-0.59 0.059,-0.612 0.059,-0.639C0.059,-0.666 0.067,-0.688 0.084,-0.705C0.1,-0.722 0.125,-0.731 0.158,-0.731C0.191,-0.731 0.217,-0.723 0.234,-0.708C0.251,-0.692 0.26,-0.67 0.26,-0.641C0.26,-0.611 0.252,-0.588 0.235,-0.571C0.218,-0.554 0.192,-0.545 0.157,-0.545ZM0.006,-0.476L0.251,-0.476L0.251,-0.018L0.307,-0.018L0.307,0L0.01,0L0.01,-0.018L0.065,-0.018L0.065,-0.458L0.006,-0.458L0.006,-0.476Z" style="fill-rule:nonzero;"/>
                </g>
                <g transform="matrix(80,0,0,80,-165.416,658.938)">
                    <path d="M0.033,0.01L0.033,-0.169L0.045,-0.169C0.062,-0.111 0.086,-0.07 0.115,-0.047C0.144,-0.024 0.181,-0.012 0.225,-0.012C0.293,-0.012 0.327,-0.034 0.327,-0.077C0.327,-0.096 0.319,-0.11 0.302,-0.119C0.276,-0.134 0.243,-0.145 0.202,-0.153C0.157,-0.165 0.119,-0.181 0.088,-0.201C0.051,-0.225 0.033,-0.263 0.033,-0.315C0.033,-0.367 0.049,-0.409 0.081,-0.44C0.113,-0.47 0.156,-0.486 0.209,-0.486C0.242,-0.486 0.275,-0.478 0.31,-0.463C0.323,-0.458 0.332,-0.455 0.339,-0.455C0.346,-0.455 0.351,-0.457 0.356,-0.462C0.361,-0.467 0.366,-0.475 0.373,-0.488L0.384,-0.488L0.384,-0.335L0.372,-0.335C0.338,-0.422 0.285,-0.465 0.214,-0.465C0.183,-0.465 0.159,-0.46 0.144,-0.449C0.129,-0.438 0.121,-0.424 0.121,-0.407C0.121,-0.397 0.123,-0.389 0.128,-0.384C0.133,-0.378 0.136,-0.374 0.139,-0.371C0.142,-0.368 0.146,-0.366 0.152,-0.363C0.158,-0.36 0.163,-0.357 0.167,-0.356C0.171,-0.354 0.177,-0.352 0.186,-0.349C0.194,-0.346 0.2,-0.345 0.204,-0.344C0.249,-0.333 0.282,-0.323 0.302,-0.315C0.322,-0.306 0.341,-0.296 0.359,-0.284C0.396,-0.259 0.414,-0.218 0.414,-0.162C0.414,-0.105 0.397,-0.063 0.364,-0.034C0.331,-0.005 0.285,0.01 0.227,0.01C0.186,0.01 0.146,0 0.107,-0.019C0.099,-0.024 0.093,-0.027 0.088,-0.027C0.073,-0.027 0.059,-0.015 0.045,0.01L0.033,0.01Z" style="fill-rule:nonzero;"/>
                </g>
                <g transform="matrix(80,0,0,80,-975.736,738.938)">
                    <path d="M0.06,-0.143L0.06,-0.458L0.005,-0.458L0.005,-0.476L0.06,-0.476L0.06,-0.605L0.246,-0.651L0.246,-0.476L0.376,-0.476L0.376,-0.458L0.246,-0.458L0.246,-0.121C0.246,-0.09 0.249,-0.067 0.256,-0.052C0.262,-0.037 0.275,-0.03 0.295,-0.03C0.315,-0.03 0.333,-0.04 0.348,-0.06C0.363,-0.08 0.372,-0.107 0.377,-0.142L0.394,-0.14C0.389,-0.094 0.374,-0.058 0.35,-0.031C0.326,-0.003 0.286,0.01 0.231,0.01C0.176,0.01 0.133,-0.001 0.104,-0.023C0.075,-0.045 0.06,-0.085 0.06,-0.143Z" style="fill-rule:nonzero;"/>
                </g>
                <g transform="matrix(80,0,0,80,-944.216,738.938)">
                    <path d="M0.01,-0.75L0.251,-0.75L0.251,-0.384C0.262,-0.415 0.278,-0.439 0.3,-0.458C0.322,-0.477 0.355,-0.486 0.4,-0.486C0.503,-0.486 0.555,-0.43 0.555,-0.319L0.555,-0.018L0.611,-0.018L0.611,0L0.328,0L0.328,-0.018L0.369,-0.018L0.369,-0.343C0.369,-0.383 0.366,-0.409 0.361,-0.421C0.356,-0.432 0.346,-0.438 0.332,-0.438C0.311,-0.438 0.292,-0.424 0.276,-0.396C0.259,-0.368 0.251,-0.334 0.251,-0.294L0.251,-0.018L0.294,-0.018L0.294,0L0.01,0L0.01,-0.018L0.065,-0.018L0.065,-0.732L0.01,-0.732L0.01,-0.75Z" style="fill-rule:nonzero;"/>
                </g>
                <g transform="matrix(80,0,0,80,-894.936,738.938)">
                    <path d="M0.273,0.01C0.187,0.01 0.123,-0.012 0.08,-0.057C0.037,-0.101 0.015,-0.163 0.015,-0.242C0.015,-0.321 0.039,-0.381 0.088,-0.423C0.136,-0.465 0.197,-0.486 0.272,-0.486C0.423,-0.486 0.496,-0.41 0.49,-0.258L0.208,-0.258L0.208,-0.219C0.208,-0.154 0.216,-0.104 0.233,-0.071C0.25,-0.038 0.279,-0.021 0.32,-0.021C0.397,-0.021 0.448,-0.062 0.472,-0.145L0.49,-0.142C0.477,-0.094 0.455,-0.057 0.422,-0.03C0.389,-0.003 0.339,0.01 0.273,0.01ZM0.209,-0.278L0.312,-0.278L0.312,-0.327C0.312,-0.381 0.309,-0.418 0.303,-0.438C0.296,-0.457 0.284,-0.467 0.265,-0.467C0.246,-0.467 0.232,-0.456 0.223,-0.436C0.214,-0.415 0.209,-0.378 0.209,-0.327L0.209,-0.278Z" style="fill-rule:nonzero;"/>
                </g>
                <g transform="matrix(80,0,0,80,-839.256,738.938)">
                    <path d="M0.29,-0.468C0.261,-0.468 0.24,-0.452 0.227,-0.42C0.214,-0.388 0.208,-0.335 0.208,-0.261L0.208,-0.209C0.208,-0.143 0.215,-0.096 0.23,-0.067C0.245,-0.038 0.272,-0.024 0.311,-0.024C0.35,-0.024 0.382,-0.037 0.405,-0.064C0.428,-0.091 0.443,-0.121 0.45,-0.155L0.468,-0.153C0.455,-0.096 0.432,-0.054 0.398,-0.029C0.363,-0.003 0.316,0.01 0.255,0.01C0.178,0.01 0.118,-0.011 0.077,-0.053C0.036,-0.094 0.015,-0.155 0.015,-0.236C0.015,-0.316 0.039,-0.378 0.086,-0.421C0.133,-0.464 0.198,-0.486 0.282,-0.486C0.341,-0.486 0.387,-0.474 0.418,-0.452C0.449,-0.428 0.465,-0.4 0.465,-0.365C0.465,-0.33 0.458,-0.305 0.443,-0.289C0.428,-0.273 0.407,-0.265 0.381,-0.265C0.354,-0.265 0.333,-0.272 0.317,-0.286C0.301,-0.3 0.293,-0.321 0.293,-0.348C0.293,-0.36 0.295,-0.372 0.298,-0.384L0.331,-0.384C0.336,-0.397 0.338,-0.409 0.338,-0.42C0.338,-0.452 0.322,-0.468 0.29,-0.468Z" style="fill:rgb(73,128,163);fill-rule:nonzero;"/>
                </g>
                <g transform="matrix(80,0,0,80,-800.616,738.938)">
                    <path d="M0.595,0L0.367,0L0.356,-0.073C0.345,-0.046 0.33,-0.026 0.309,-0.012C0.288,0.003 0.256,0.01 0.215,0.01C0.112,0.01 0.06,-0.046 0.06,-0.157L0.06,-0.458L0.004,-0.458L0.004,-0.476L0.246,-0.476L0.246,-0.133C0.246,-0.093 0.249,-0.067 0.255,-0.054C0.26,-0.041 0.272,-0.035 0.289,-0.035C0.306,-0.035 0.321,-0.045 0.334,-0.066C0.347,-0.087 0.354,-0.115 0.354,-0.152L0.354,-0.458L0.308,-0.458L0.308,-0.476L0.54,-0.476L0.54,-0.018L0.595,-0.018L0.595,0Z" style="fill:rgb(73,128,163);fill-rule:nonzero;"/>
                </g>
                <g transform="matrix(80,0,0,80,-752.216,738.938)">
                    <path d="M0.344,-0.448C0.319,-0.448 0.298,-0.432 0.279,-0.4C0.26,-0.368 0.251,-0.33 0.251,-0.286L0.251,-0.018L0.322,-0.018L0.322,0L0.01,0L0.01,-0.018L0.065,-0.018L0.065,-0.458L0.01,-0.458L0.01,-0.476L0.251,-0.476L0.251,-0.38C0.26,-0.414 0.276,-0.44 0.301,-0.459C0.326,-0.477 0.354,-0.486 0.385,-0.486C0.416,-0.486 0.442,-0.477 0.462,-0.46C0.481,-0.442 0.491,-0.417 0.491,-0.385C0.491,-0.352 0.484,-0.327 0.469,-0.31C0.454,-0.293 0.432,-0.284 0.402,-0.284C0.371,-0.284 0.349,-0.294 0.335,-0.314C0.32,-0.334 0.318,-0.362 0.329,-0.397L0.365,-0.397C0.382,-0.431 0.375,-0.448 0.344,-0.448Z" style="fill:rgb(73,128,163);fill-rule:nonzero;"/>
                </g>
                <g transform="matrix(80,0,0,80,-712.616,738.938)">
                    <path d="M0.344,-0.448C0.319,-0.448 0.298,-0.432 0.279,-0.4C0.26,-0.368 0.251,-0.33 0.251,-0.286L0.251,-0.018L0.322,-0.018L0.322,0L0.01,0L0.01,-0.018L0.065,-0.018L0.065,-0.458L0.01,-0.458L0.01,-0.476L0.251,-0.476L0.251,-0.38C0.26,-0.414 0.276,-0.44 0.301,-0.459C0.326,-0.477 0.354,-0.486 0.385,-0.486C0.416,-0.486 0.442,-0.477 0.462,-0.46C0.481,-0.442 0.491,-0.417 0.491,-0.385C0.491,-0.352 0.484,-0.327 0.469,-0.31C0.454,-0.293 0.432,-0.284 0.402,-0.284C0.371,-0.284 0.349,-0.294 0.335,-0.314C0.32,-0.334 0.318,-0.362 0.329,-0.397L0.365,-0.397C0.382,-0.431 0.375,-0.448 0.344,-0.448Z" style="fill:rgb(73,128,163);fill-rule:nonzero;"/>
                </g>
                <g transform="matrix(80,0,0,80,-673.416,738.938)">
                    <path d="M0.273,0.01C0.187,0.01 0.123,-0.012 0.08,-0.057C0.037,-0.101 0.015,-0.163 0.015,-0.242C0.015,-0.321 0.039,-0.381 0.088,-0.423C0.136,-0.465 0.197,-0.486 0.272,-0.486C0.423,-0.486 0.496,-0.41 0.49,-0.258L0.208,-0.258L0.208,-0.219C0.208,-0.154 0.216,-0.104 0.233,-0.071C0.25,-0.038 0.279,-0.021 0.32,-0.021C0.397,-0.021 0.448,-0.062 0.472,-0.145L0.49,-0.142C0.477,-0.094 0.455,-0.057 0.422,-0.03C0.389,-0.003 0.339,0.01 0.273,0.01ZM0.209,-0.278L0.312,-0.278L0.312,-0.327C0.312,-0.381 0.309,-0.418 0.303,-0.438C0.296,-0.457 0.284,-0.467 0.265,-0.467C0.246,-0.467 0.232,-0.456 0.223,-0.436C0.214,-0.415 0.209,-0.378 0.209,-0.327L0.209,-0.278Z" style="fill:rgb(73,128,163);fill-rule:nonzero;"/>
                </g>
                <g transform="matrix(80,0,0,80,-632.136,738.938)">
                    <path d="M0.012,-0.476L0.253,-0.476L0.253,-0.384C0.264,-0.415 0.28,-0.439 0.302,-0.458C0.324,-0.477 0.357,-0.486 0.402,-0.486C0.505,-0.486 0.557,-0.43 0.557,-0.319L0.557,-0.018L0.613,-0.018L0.613,0L0.33,0L0.33,-0.018L0.371,-0.018L0.371,-0.343C0.371,-0.383 0.368,-0.409 0.363,-0.421C0.358,-0.432 0.348,-0.438 0.334,-0.438C0.313,-0.438 0.294,-0.424 0.278,-0.396C0.261,-0.368 0.253,-0.334 0.253,-0.294L0.253,-0.018L0.296,-0.018L0.296,0L0.012,0L0.012,-0.018L0.067,-0.018L0.067,-0.458L0.012,-0.458L0.012,-0.476Z" style="fill:rgb(73,128,163);fill-rule:nonzero;"/>
                </g>
                <g transform="matrix(80,0,0,80,-583.256,738.938)">
                    <path d="M0.06,-0.143L0.06,-0.458L0.005,-0.458L0.005,-0.476L0.06,-0.476L0.06,-0.605L0.246,-0.651L0.246,-0.476L0.376,-0.476L0.376,-0.458L0.246,-0.458L0.246,-0.121C0.246,-0.09 0.249,-0.067 0.256,-0.052C0.262,-0.037 0.275,-0.03 0.295,-0.03C0.315,-0.03 0.333,-0.04 0.348,-0.06C0.363,-0.08 0.372,-0.107 0.377,-0.142L0.394,-0.14C0.389,-0.094 0.374,-0.058 0.35,-0.031C0.326,-0.003 0.286,0.01 0.231,0.01C0.176,0.01 0.133,-0.001 0.104,-0.023C0.075,-0.045 0.06,-0.085 0.06,-0.143Z" style="fill:rgb(73,128,163);fill-rule:nonzero;"/>
                </g>
                <g transform="matrix(80,0,0,80,-537.336,738.938)">
                    <path d="M0.033,0.01L0.033,-0.169L0.045,-0.169C0.062,-0.111 0.086,-0.07 0.115,-0.047C0.144,-0.024 0.181,-0.012 0.225,-0.012C0.293,-0.012 0.327,-0.034 0.327,-0.077C0.327,-0.096 0.319,-0.11 0.302,-0.119C0.276,-0.134 0.243,-0.145 0.202,-0.153C0.157,-0.165 0.119,-0.181 0.088,-0.201C0.051,-0.225 0.033,-0.263 0.033,-0.315C0.033,-0.367 0.049,-0.409 0.081,-0.44C0.113,-0.47 0.156,-0.486 0.209,-0.486C0.242,-0.486 0.275,-0.478 0.31,-0.463C0.323,-0.458 0.332,-0.455 0.339,-0.455C0.346,-0.455 0.351,-0.457 0.356,-0.462C0.361,-0.467 0.366,-0.475 0.373,-0.488L0.384,-0.488L0.384,-0.335L0.372,-0.335C0.338,-0.422 0.285,-0.465 0.214,-0.465C0.183,-0.465 0.159,-0.46 0.144,-0.449C0.129,-0.438 0.121,-0.424 0.121,-0.407C0.121,-0.397 0.123,-0.389 0.128,-0.384C0.133,-0.378 0.136,-0.374 0.139,-0.371C0.142,-0.368 0.146,-0.366 0.152,-0.363C0.158,-0.36 0.163,-0.357 0.167,-0.356C0.171,-0.354 0.177,-0.352 0.186,-0.349C0.194,-0.346 0.2,-0.345 0.204,-0.344C0.249,-0.333 0.282,-0.323 0.302,-0.315C0.322,-0.306 0.341,-0.296 0.359,-0.284C0.396,-0.259 0.414,-0.218 0.414,-0.162C0.414,-0.105 0.397,-0.063 0.364,-0.034C0.331,-0.005 0.285,0.01 0.227,0.01C0.186,0.01 0.146,0 0.107,-0.019C0.099,-0.024 0.093,-0.027 0.088,-0.027C0.073,-0.027 0.059,-0.015 0.045,0.01L0.033,0.01Z" style="fill:rgb(73,128,163);fill-rule:nonzero;"/>
                </g>
                <g transform="matrix(80,0,0,80,-502.616,738.938)">
                    <path d="M0.333,-0.197L0.333,-0.282C0.333,-0.347 0.33,-0.394 0.323,-0.424C0.316,-0.453 0.299,-0.468 0.274,-0.468C0.259,-0.468 0.248,-0.464 0.239,-0.456C0.23,-0.447 0.223,-0.433 0.219,-0.414C0.213,-0.384 0.21,-0.338 0.21,-0.277L0.21,-0.199C0.21,-0.126 0.212,-0.083 0.217,-0.068C0.221,-0.053 0.225,-0.041 0.23,-0.032C0.237,-0.016 0.252,-0.008 0.273,-0.008C0.299,-0.008 0.316,-0.023 0.324,-0.053C0.33,-0.074 0.333,-0.122 0.333,-0.197ZM0.271,0.01C0.188,0.01 0.125,-0.011 0.082,-0.054C0.039,-0.097 0.018,-0.158 0.018,-0.238C0.018,-0.317 0.041,-0.379 0.087,-0.422C0.132,-0.464 0.196,-0.486 0.279,-0.486C0.362,-0.486 0.423,-0.466 0.464,-0.427C0.505,-0.387 0.525,-0.326 0.525,-0.245C0.525,-0.075 0.44,0.01 0.271,0.01Z" style="fill:rgb(73,128,163);fill-rule:nonzero;"/>
                </g>
                <g transform="matrix(80,0,0,80,-459.176,738.938)">
                    <path d="M0.06,-0.143L0.06,-0.458L0.005,-0.458L0.005,-0.476L0.06,-0.476L0.06,-0.605L0.246,-0.651L0.246,-0.476L0.376,-0.476L0.376,-0.458L0.246,-0.458L0.246,-0.121C0.246,-0.09 0.249,-0.067 0.256,-0.052C0.262,-0.037 0.275,-0.03 0.295,-0.03C0.315,-0.03 0.333,-0.04 0.348,-0.06C0.363,-0.08 0.372,-0.107 0.377,-0.142L0.394,-0.14C0.389,-0.094 0.374,-0.058 0.35,-0.031C0.326,-0.003 0.286,0.01 0.231,0.01C0.176,0.01 0.133,-0.001 0.104,-0.023C0.075,-0.045 0.06,-0.085 0.06,-0.143Z" style="fill:rgb(73,128,163);fill-rule:nonzero;"/>
                </g>
                <g transform="matrix(80,0,0,80,-427.656,738.938)">
                    <path d="M0.25,-0.235L0.279,-0.235L0.279,-0.312C0.279,-0.375 0.276,-0.418 0.269,-0.44C0.262,-0.461 0.248,-0.472 0.228,-0.472C0.216,-0.472 0.205,-0.469 0.196,-0.463C0.186,-0.456 0.181,-0.448 0.181,-0.437C0.181,-0.426 0.183,-0.414 0.187,-0.403L0.212,-0.403C0.217,-0.389 0.22,-0.372 0.22,-0.353C0.22,-0.333 0.212,-0.316 0.195,-0.302C0.178,-0.287 0.157,-0.28 0.132,-0.28C0.075,-0.28 0.046,-0.308 0.046,-0.363C0.046,-0.445 0.116,-0.486 0.255,-0.486C0.334,-0.486 0.389,-0.472 0.42,-0.446C0.45,-0.419 0.465,-0.369 0.465,-0.297L0.465,-0.094C0.465,-0.059 0.475,-0.042 0.494,-0.042C0.517,-0.042 0.53,-0.076 0.534,-0.145L0.549,-0.144C0.546,-0.085 0.535,-0.045 0.516,-0.023C0.497,-0.001 0.465,0.01 0.421,0.01C0.341,0.01 0.295,-0.015 0.283,-0.064C0.274,-0.039 0.261,-0.02 0.244,-0.008C0.227,0.004 0.201,0.01 0.168,0.01C0.069,0.01 0.02,-0.03 0.02,-0.111C0.02,-0.158 0.039,-0.191 0.077,-0.209C0.114,-0.226 0.172,-0.235 0.25,-0.235ZM0.21,-0.112C0.21,-0.077 0.212,-0.055 0.216,-0.045C0.219,-0.035 0.226,-0.03 0.237,-0.03C0.247,-0.03 0.257,-0.039 0.266,-0.056C0.275,-0.073 0.279,-0.096 0.279,-0.126L0.279,-0.219L0.272,-0.219C0.231,-0.219 0.21,-0.189 0.21,-0.128L0.21,-0.112Z" style="fill:rgb(73,128,163);fill-rule:nonzero;"/>
                </g>
                <g transform="matrix(80,0,0,80,-369.336,738.938)">
                    <path d="M0.313,-0.756C0.288,-0.756 0.271,-0.747 0.263,-0.728C0.255,-0.709 0.251,-0.678 0.251,-0.636L0.251,-0.476L0.383,-0.476L0.383,-0.458L0.251,-0.458L0.251,-0.018L0.373,-0.018L0.373,0L0.01,0L0.01,-0.018L0.065,-0.018L0.065,-0.458L0.007,-0.458L0.007,-0.476L0.065,-0.476L0.065,-0.48C0.065,-0.576 0.083,-0.649 0.12,-0.699C0.157,-0.748 0.218,-0.773 0.304,-0.773C0.361,-0.773 0.401,-0.762 0.426,-0.74C0.451,-0.717 0.463,-0.691 0.463,-0.662C0.463,-0.633 0.455,-0.611 0.44,-0.596C0.425,-0.581 0.404,-0.574 0.379,-0.574C0.354,-0.574 0.334,-0.581 0.321,-0.594C0.307,-0.607 0.3,-0.622 0.3,-0.639C0.3,-0.656 0.302,-0.672 0.306,-0.688L0.344,-0.688C0.357,-0.733 0.347,-0.756 0.313,-0.756Z" style="fill-rule:nonzero;"/>
                </g>
                <g transform="matrix(80,0,0,80,-340.296,738.938)">
                    <path d="M0.333,-0.197L0.333,-0.282C0.333,-0.347 0.33,-0.394 0.323,-0.424C0.316,-0.453 0.299,-0.468 0.274,-0.468C0.259,-0.468 0.248,-0.464 0.239,-0.456C0.23,-0.447 0.223,-0.433 0.219,-0.414C0.213,-0.384 0.21,-0.338 0.21,-0.277L0.21,-0.199C0.21,-0.126 0.212,-0.083 0.217,-0.068C0.221,-0.053 0.225,-0.041 0.23,-0.032C0.237,-0.016 0.252,-0.008 0.273,-0.008C0.299,-0.008 0.316,-0.023 0.324,-0.053C0.33,-0.074 0.333,-0.122 0.333,-0.197ZM0.271,0.01C0.188,0.01 0.125,-0.011 0.082,-0.054C0.039,-0.097 0.018,-0.158 0.018,-0.238C0.018,-0.317 0.041,-0.379 0.087,-0.422C0.132,-0.464 0.196,-0.486 0.279,-0.486C0.362,-0.486 0.423,-0.466 0.464,-0.427C0.505,-0.387 0.525,-0.326 0.525,-0.245C0.525,-0.075 0.44,0.01 0.271,0.01Z" style="fill-rule:nonzero;"/>
                </g>
                <g transform="matrix(80,0,0,80,-296.856,738.938)">
                    <path d="M0.344,-0.448C0.319,-0.448 0.298,-0.432 0.279,-0.4C0.26,-0.368 0.251,-0.33 0.251,-0.286L0.251,-0.018L0.322,-0.018L0.322,0L0.01,0L0.01,-0.018L0.065,-0.018L0.065,-0.458L0.01,-0.458L0.01,-0.476L0.251,-0.476L0.251,-0.38C0.26,-0.414 0.276,-0.44 0.301,-0.459C0.326,-0.477 0.354,-0.486 0.385,-0.486C0.416,-0.486 0.442,-0.477 0.462,-0.46C0.481,-0.442 0.491,-0.417 0.491,-0.385C0.491,-0.352 0.484,-0.327 0.469,-0.31C0.454,-0.293 0.432,-0.284 0.402,-0.284C0.371,-0.284 0.349,-0.294 0.335,-0.314C0.32,-0.334 0.318,-0.362 0.329,-0.397L0.365,-0.397C0.382,-0.431 0.375,-0.448 0.344,-0.448Z" style="fill-rule:nonzero;"/>
                </g>
                <g transform="matrix(80,0,0,80,-242.856,738.938)">
                    <path d="M0.06,-0.143L0.06,-0.458L0.005,-0.458L0.005,-0.476L0.06,-0.476L0.06,-0.605L0.246,-0.651L0.246,-0.476L0.376,-0.476L0.376,-0.458L0.246,-0.458L0.246,-0.121C0.246,-0.09 0.249,-0.067 0.256,-0.052C0.262,-0.037 0.275,-0.03 0.295,-0.03C0.315,-0.03 0.333,-0.04 0.348,-0.06C0.363,-0.08 0.372,-0.107 0.377,-0.142L0.394,-0.14C0.389,-0.094 0.374,-0.058 0.35,-0.031C0.326,-0.003 0.286,0.01 0.231,0.01C0.176,0.01 0.133,-0.001 0.104,-0.023C0.075,-0.045 0.06,-0.085 0.06,-0.143Z" style="fill-rule:nonzero;"/>
                </g>
                <g transform="matrix(80,0,0,80,-211.336,738.938)">
                    <path d="M0.01,-0.75L0.251,-0.75L0.251,-0.384C0.262,-0.415 0.278,-0.439 0.3,-0.458C0.322,-0.477 0.355,-0.486 0.4,-0.486C0.503,-0.486 0.555,-0.43 0.555,-0.319L0.555,-0.018L0.611,-0.018L0.611,0L0.328,0L0.328,-0.018L0.369,-0.018L0.369,-0.343C0.369,-0.383 0.366,-0.409 0.361,-0.421C0.356,-0.432 0.346,-0.438 0.332,-0.438C0.311,-0.438 0.292,-0.424 0.276,-0.396C0.259,-0.368 0.251,-0.334 0.251,-0.294L0.251,-0.018L0.294,-0.018L0.294,0L0.01,0L0.01,-0.018L0.065,-0.018L0.065,-0.732L0.01,-0.732L0.01,-0.75Z" style="fill-rule:nonzero;"/>
                </g>
                <g transform="matrix(80,0,0,80,-162.056,738.938)">
                    <path d="M0.273,0.01C0.187,0.01 0.123,-0.012 0.08,-0.057C0.037,-0.101 0.015,-0.163 0.015,-0.242C0.015,-0.321 0.039,-0.381 0.088,-0.423C0.136,-0.465 0.197,-0.486 0.272,-0.486C0.423,-0.486 0.496,-0.41 0.49,-0.258L0.208,-0.258L0.208,-0.219C0.208,-0.154 0.216,-0.104 0.233,-0.071C0.25,-0.038 0.279,-0.021 0.32,-0.021C0.397,-0.021 0.448,-0.062 0.472,-0.145L0.49,-0.142C0.477,-0.094 0.455,-0.057 0.422,-0.03C0.389,-0.003 0.339,0.01 0.273,0.01ZM0.209,-0.278L0.312,-0.278L0.312,-0.327C0.312,-0.381 0.309,-0.418 0.303,-0.438C0.296,-0.457 0.284,-0.467 0.265,-0.467C0.246,-0.467 0.232,-0.456 0.223,-0.436C0.214,-0.415 0.209,-0.378 0.209,-0.327L0.209,-0.278Z" style="fill-rule:nonzero;"/>
                </g>
                <g transform="matrix(80,0,0,80,-975.736,818.938)">
                    <path d="M0.375,-0.269C0.375,-0.338 0.372,-0.384 0.365,-0.408C0.358,-0.431 0.345,-0.443 0.326,-0.443C0.307,-0.443 0.289,-0.431 0.274,-0.406C0.259,-0.381 0.251,-0.347 0.251,-0.305L0.251,-0.122C0.251,-0.093 0.257,-0.069 0.268,-0.049C0.279,-0.029 0.296,-0.019 0.318,-0.019C0.34,-0.019 0.355,-0.034 0.363,-0.063C0.371,-0.092 0.375,-0.144 0.375,-0.217L0.375,-0.269ZM0.249,-0.476L0.249,-0.397C0.275,-0.456 0.321,-0.486 0.387,-0.486C0.444,-0.486 0.489,-0.465 0.521,-0.424C0.552,-0.383 0.568,-0.32 0.568,-0.236C0.568,-0.152 0.551,-0.09 0.517,-0.05C0.482,-0.01 0.431,0.01 0.362,0.01C0.33,0.01 0.306,0.006 0.29,-0.002C0.274,-0.01 0.261,-0.022 0.251,-0.039L0.251,0.22L0.38,0.22L0.38,0.238L0.01,0.238L0.01,0.22L0.065,0.22L0.065,-0.458L0.012,-0.458L0.012,-0.476L0.249,-0.476Z" style="fill-rule:nonzero;"/>
                </g>
                <g transform="matrix(80,0,0,80,-928.696,818.938)">
                    <path d="M0.344,-0.448C0.319,-0.448 0.298,-0.432 0.279,-0.4C0.26,-0.368 0.251,-0.33 0.251,-0.286L0.251,-0.018L0.322,-0.018L0.322,0L0.01,0L0.01,-0.018L0.065,-0.018L0.065,-0.458L0.01,-0.458L0.01,-0.476L0.251,-0.476L0.251,-0.38C0.26,-0.414 0.276,-0.44 0.301,-0.459C0.326,-0.477 0.354,-0.486 0.385,-0.486C0.416,-0.486 0.442,-0.477 0.462,-0.46C0.481,-0.442 0.491,-0.417 0.491,-0.385C0.491,-0.352 0.484,-0.327 0.469,-0.31C0.454,-0.293 0.432,-0.284 0.402,-0.284C0.371,-0.284 0.349,-0.294 0.335,-0.314C0.32,-0.334 0.318,-0.362 0.329,-0.397L0.365,-0.397C0.382,-0.431 0.375,-0.448 0.344,-0.448Z" style="fill-rule:nonzero;"/>
                </g>
                <g transform="matrix(80,0,0,80,-889.496,818.938)">
                    <path d="M0.333,-0.197L0.333,-0.282C0.333,-0.347 0.33,-0.394 0.323,-0.424C0.316,-0.453 0.299,-0.468 0.274,-0.468C0.259,-0.468 0.248,-0.464 0.239,-0.456C0.23,-0.447 0.223,-0.433 0.219,-0.414C0.213,-0.384 0.21,-0.338 0.21,-0.277L0.21,-0.199C0.21,-0.126 0.212,-0.083 0.217,-0.068C0.221,-0.053 0.225,-0.041 0.23,-0.032C0.237,-0.016 0.252,-0.008 0.273,-0.008C0.299,-0.008 0.316,-0.023 0.324,-0.053C0.33,-0.074 0.333,-0.122 0.333,-0.197ZM0.271,0.01C0.188,0.01 0.125,-0.011 0.082,-0.054C0.039,-0.097 0.018,-0.158 0.018,-0.238C0.018,-0.317 0.041,-0.379 0.087,-0.422C0.132,-0.464 0.196,-0.486 0.279,-0.486C0.362,-0.486 0.423,-0.466 0.464,-0.427C0.505,-0.387 0.525,-0.326 0.525,-0.245C0.525,-0.075 0.44,0.01 0.271,0.01Z" style="fill-rule:nonzero;"/>
                </g>
                <g transform="matrix(80,0,0,80,-846.056,818.938)">
                    <path d="M0.375,-0.269C0.375,-0.338 0.372,-0.384 0.365,-0.408C0.358,-0.431 0.345,-0.443 0.326,-0.443C0.307,-0.443 0.289,-0.431 0.274,-0.407C0.259,-0.383 0.251,-0.35 0.251,-0.308L0.251,-0.122C0.251,-0.093 0.257,-0.069 0.269,-0.049C0.28,-0.029 0.297,-0.019 0.319,-0.019C0.34,-0.019 0.355,-0.034 0.363,-0.063C0.371,-0.092 0.375,-0.144 0.375,-0.217L0.375,-0.269ZM0.251,-0.75L0.251,-0.4C0.276,-0.457 0.32,-0.486 0.381,-0.486C0.506,-0.486 0.568,-0.403 0.568,-0.237C0.568,-0.152 0.551,-0.09 0.517,-0.05C0.482,-0.01 0.431,0.01 0.362,0.01C0.327,0.01 0.301,0.005 0.283,-0.006C0.264,-0.017 0.252,-0.034 0.245,-0.059L0.238,0L0.01,0L0.01,-0.018L0.065,-0.018L0.065,-0.732L0.01,-0.732L0.01,-0.75L0.251,-0.75Z" style="fill-rule:nonzero;"/>
                </g>
                <g transform="matrix(80,0,0,80,-799.016,818.938)">
                    <path d="M0.006,-0.75L0.251,-0.75L0.251,-0.018L0.307,-0.018L0.307,0L0.01,0L0.01,-0.018L0.065,-0.018L0.065,-0.732L0.006,-0.732L0.006,-0.75Z" style="fill-rule:nonzero;"/>
                </g>
                <g transform="matrix(80,0,0,80,-773.736,818.938)">
                    <path d="M0.273,0.01C0.187,0.01 0.123,-0.012 0.08,-0.057C0.037,-0.101 0.015,-0.163 0.015,-0.242C0.015,-0.321 0.039,-0.381 0.088,-0.423C0.136,-0.465 0.197,-0.486 0.272,-0.486C0.423,-0.486 0.496,-0.41 0.49,-0.258L0.208,-0.258L0.208,-0.219C0.208,-0.154 0.216,-0.104 0.233,-0.071C0.25,-0.038 0.279,-0.021 0.32,-0.021C0.397,-0.021 0.448,-0.062 0.472,-0.145L0.49,-0.142C0.477,-0.094 0.455,-0.057 0.422,-0.03C0.389,-0.003 0.339,0.01 0.273,0.01ZM0.209,-0.278L0.312,-0.278L0.312,-0.327C0.312,-0.381 0.309,-0.418 0.303,-0.438C0.296,-0.457 0.284,-0.467 0.265,-0.467C0.246,-0.467 0.232,-0.456 0.223,-0.436C0.214,-0.415 0.209,-0.378 0.209,-0.327L0.209,-0.278Z" style="fill-rule:nonzero;"/>
                </g>
                <g transform="matrix(80,0,0,80,-732.456,818.938)">
                    <path d="M0.01,-0.476L0.251,-0.476L0.251,-0.384C0.273,-0.452 0.322,-0.486 0.397,-0.486C0.472,-0.486 0.517,-0.45 0.533,-0.378C0.556,-0.45 0.605,-0.486 0.68,-0.486C0.778,-0.486 0.827,-0.43 0.827,-0.319L0.827,-0.018L0.883,-0.018L0.883,0L0.606,0L0.606,-0.018L0.641,-0.018L0.641,-0.343C0.641,-0.394 0.637,-0.423 0.628,-0.432C0.624,-0.436 0.619,-0.438 0.612,-0.438C0.593,-0.438 0.576,-0.425 0.561,-0.399C0.546,-0.373 0.539,-0.34 0.539,-0.3L0.539,-0.018L0.575,-0.018L0.575,0L0.318,0L0.318,-0.018L0.353,-0.018L0.353,-0.343C0.353,-0.394 0.349,-0.423 0.34,-0.432C0.336,-0.436 0.331,-0.438 0.324,-0.438C0.305,-0.438 0.289,-0.424 0.274,-0.396C0.259,-0.367 0.251,-0.333 0.251,-0.294L0.251,-0.018L0.287,-0.018L0.287,0L0.01,0L0.01,-0.018L0.065,-0.018L0.065,-0.458L0.01,-0.458L0.01,-0.476Z" style="fill-rule:nonzero;"/>
                </g>
                <g transform="matrix(80,0,0,80,-647.016,818.938)">
                    <path d="M0.333,-0.197L0.333,-0.282C0.333,-0.347 0.33,-0.394 0.323,-0.424C0.316,-0.453 0.299,-0.468 0.274,-0.468C0.259,-0.468 0.248,-0.464 0.239,-0.456C0.23,-0.447 0.223,-0.433 0.219,-0.414C0.213,-0.384 0.21,-0.338 0.21,-0.277L0.21,-0.199C0.21,-0.126 0.212,-0.083 0.217,-0.068C0.221,-0.053 0.225,-0.041 0.23,-0.032C0.237,-0.016 0.252,-0.008 0.273,-0.008C0.299,-0.008 0.316,-0.023 0.324,-0.053C0.33,-0.074 0.333,-0.122 0.333,-0.197ZM0.271,0.01C0.188,0.01 0.125,-0.011 0.082,-0.054C0.039,-0.097 0.018,-0.158 0.018,-0.238C0.018,-0.317 0.041,-0.379 0.087,-0.422C0.132,-0.464 0.196,-0.486 0.279,-0.486C0.362,-0.486 0.423,-0.466 0.464,-0.427C0.505,-0.387 0.525,-0.326 0.525,-0.245C0.525,-0.075 0.44,0.01 0.271,0.01Z" style="fill-rule:nonzero;"/>
                </g>
                <g transform="matrix(80,0,0,80,-603.576,818.938)">
                    <path d="M0.313,-0.756C0.288,-0.756 0.271,-0.747 0.263,-0.728C0.255,-0.709 0.251,-0.678 0.251,-0.636L0.251,-0.476L0.383,-0.476L0.383,-0.458L0.251,-0.458L0.251,-0.018L0.373,-0.018L0.373,0L0.01,0L0.01,-0.018L0.065,-0.018L0.065,-0.458L0.007,-0.458L0.007,-0.476L0.065,-0.476L0.065,-0.48C0.065,-0.576 0.083,-0.649 0.12,-0.699C0.157,-0.748 0.218,-0.773 0.304,-0.773C0.361,-0.773 0.401,-0.762 0.426,-0.74C0.451,-0.717 0.463,-0.691 0.463,-0.662C0.463,-0.633 0.455,-0.611 0.44,-0.596C0.425,-0.581 0.404,-0.574 0.379,-0.574C0.354,-0.574 0.334,-0.581 0.321,-0.594C0.307,-0.607 0.3,-0.622 0.3,-0.639C0.3,-0.656 0.302,-0.672 0.306,-0.688L0.344,-0.688C0.357,-0.733 0.347,-0.756 0.313,-0.756Z" style="fill-rule:nonzero;"/>
                </g>
                <g transform="matrix(80,0,0,80,-558.536,818.938)">
                    <path d="M0.25,-0.235L0.279,-0.235L0.279,-0.312C0.279,-0.375 0.276,-0.418 0.269,-0.44C0.262,-0.461 0.248,-0.472 0.228,-0.472C0.216,-0.472 0.205,-0.469 0.196,-0.463C0.186,-0.456 0.181,-0.448 0.181,-0.437C0.181,-0.426 0.183,-0.414 0.187,-0.403L0.212,-0.403C0.217,-0.389 0.22,-0.372 0.22,-0.353C0.22,-0.333 0.212,-0.316 0.195,-0.302C0.178,-0.287 0.157,-0.28 0.132,-0.28C0.075,-0.28 0.046,-0.308 0.046,-0.363C0.046,-0.445 0.116,-0.486 0.255,-0.486C0.334,-0.486 0.389,-0.472 0.42,-0.446C0.45,-0.419 0.465,-0.369 0.465,-0.297L0.465,-0.094C0.465,-0.059 0.475,-0.042 0.494,-0.042C0.517,-0.042 0.53,-0.076 0.534,-0.145L0.549,-0.144C0.546,-0.085 0.535,-0.045 0.516,-0.023C0.497,-0.001 0.465,0.01 0.421,0.01C0.341,0.01 0.295,-0.015 0.283,-0.064C0.274,-0.039 0.261,-0.02 0.244,-0.008C0.227,0.004 0.201,0.01 0.168,0.01C0.069,0.01 0.02,-0.03 0.02,-0.111C0.02,-0.158 0.039,-0.191 0.077,-0.209C0.114,-0.226 0.172,-0.235 0.25,-0.235ZM0.21,-0.112C0.21,-0.077 0.212,-0.055 0.216,-0.045C0.219,-0.035 0.226,-0.03 0.237,-0.03C0.247,-0.03 0.257,-0.039 0.266,-0.056C0.275,-0.073 0.279,-0.096 0.279,-0.126L0.279,-0.219L0.272,-0.219C0.231,-0.219 0.21,-0.189 0.21,-0.128L0.21,-0.112Z" style="fill:rgb(73,128,163);fill-rule:nonzero;"/>
                </g>
                <g transform="matrix(80,0,0,80,-514.616,818.938)">
                    <path d="M0.375,-0.269C0.375,-0.338 0.372,-0.384 0.365,-0.408C0.358,-0.431 0.345,-0.443 0.326,-0.443C0.307,-0.443 0.289,-0.431 0.274,-0.407C0.259,-0.383 0.251,-0.35 0.251,-0.308L0.251,-0.122C0.251,-0.093 0.257,-0.069 0.269,-0.049C0.28,-0.029 0.297,-0.019 0.319,-0.019C0.34,-0.019 0.355,-0.034 0.363,-0.063C0.371,-0.092 0.375,-0.144 0.375,-0.217L0.375,-0.269ZM0.251,-0.75L0.251,-0.4C0.276,-0.457 0.32,-0.486 0.381,-0.486C0.506,-0.486 0.568,-0.403 0.568,-0.237C0.568,-0.152 0.551,-0.09 0.517,-0.05C0.482,-0.01 0.431,0.01 0.362,0.01C0.327,0.01 0.301,0.005 0.283,-0.006C0.264,-0.017 0.252,-0.034 0.245,-0.059L0.238,0L0.01,0L0.01,-0.018L0.065,-0.018L0.065,-0.732L0.01,-0.732L0.01,-0.75L0.251,-0.75Z" style="fill:rgb(73,128,163);fill-rule:nonzero;"/>
                </g>
                <g transform="matrix(80,0,0,80,-467.576,818.938)">
                    <path d="M0.012,-0.476L0.253,-0.476L0.253,-0.384C0.264,-0.415 0.28,-0.439 0.302,-0.458C0.324,-0.477 0.357,-0.486 0.402,-0.486C0.505,-0.486 0.557,-0.43 0.557,-0.319L0.557,-0.018L0.613,-0.018L0.613,0L0.33,0L0.33,-0.018L0.371,-0.018L0.371,-0.343C0.371,-0.383 0.368,-0.409 0.363,-0.421C0.358,-0.432 0.348,-0.438 0.334,-0.438C0.313,-0.438 0.294,-0.424 0.278,-0.396C0.261,-0.368 0.253,-0.334 0.253,-0.294L0.253,-0.018L0.296,-0.018L0.296,0L0.012,0L0.012,-0.018L0.067,-0.018L0.067,-0.458L0.012,-0.458L0.012,-0.476Z" style="fill:rgb(73,128,163);fill-rule:nonzero;"/>
                </g>
                <g transform="matrix(80,0,0,80,-418.296,818.938)">
                    <path d="M0.333,-0.197L0.333,-0.282C0.333,-0.347 0.33,-0.394 0.323,-0.424C0.316,-0.453 0.299,-0.468 0.274,-0.468C0.259,-0.468 0.248,-0.464 0.239,-0.456C0.23,-0.447 0.223,-0.433 0.219,-0.414C0.213,-0.384 0.21,-0.338 0.21,-0.277L0.21,-0.199C0.21,-0.126 0.212,-0.083 0.217,-0.068C0.221,-0.053 0.225,-0.041 0.23,-0.032C0.237,-0.016 0.252,-0.008 0.273,-0.008C0.299,-0.008 0.316,-0.023 0.324,-0.053C0.33,-0.074 0.333,-0.122 0.333,-0.197ZM0.271,0.01C0.188,0.01 0.125,-0.011 0.082,-0.054C0.039,-0.097 0.018,-0.158 0.018,-0.238C0.018,-0.317 0.041,-0.379 0.087,-0.422C0.132,-0.464 0.196,-0.486 0.279,-0.486C0.362,-0.486 0.423,-0.466 0.464,-0.427C0.505,-0.387 0.525,-0.326 0.525,-0.245C0.525,-0.075 0.44,0.01 0.271,0.01Z" style="fill:rgb(73,128,163);fill-rule:nonzero;"/>
                </g>
                <g transform="matrix(80,0,0,80,-374.856,818.938)">
                    <path d="M0.344,-0.448C0.319,-0.448 0.298,-0.432 0.279,-0.4C0.26,-0.368 0.251,-0.33 0.251,-0.286L0.251,-0.018L0.322,-0.018L0.322,0L0.01,0L0.01,-0.018L0.065,-0.018L0.065,-0.458L0.01,-0.458L0.01,-0.476L0.251,-0.476L0.251,-0.38C0.26,-0.414 0.276,-0.44 0.301,-0.459C0.326,-0.477 0.354,-0.486 0.385,-0.486C0.416,-0.486 0.442,-0.477 0.462,-0.46C0.481,-0.442 0.491,-0.417 0.491,-0.385C0.491,-0.352 0.484,-0.327 0.469,-0.31C0.454,-0.293 0.432,-0.284 0.402,-0.284C0.371,-0.284 0.349,-0.294 0.335,-0.314C0.32,-0.334 0.318,-0.362 0.329,-0.397L0.365,-0.397C0.382,-0.431 0.375,-0.448 0.344,-0.448Z" style="fill:rgb(73,128,163);fill-rule:nonzero;"/>
                </g>
                <g transform="matrix(80,0,0,80,-335.256,818.938)">
                    <path d="M0.01,-0.476L0.251,-0.476L0.251,-0.384C0.273,-0.452 0.322,-0.486 0.397,-0.486C0.472,-0.486 0.517,-0.45 0.533,-0.378C0.556,-0.45 0.605,-0.486 0.68,-0.486C0.778,-0.486 0.827,-0.43 0.827,-0.319L0.827,-0.018L0.883,-0.018L0.883,0L0.606,0L0.606,-0.018L0.641,-0.018L0.641,-0.343C0.641,-0.394 0.637,-0.423 0.628,-0.432C0.624,-0.436 0.619,-0.438 0.612,-0.438C0.593,-0.438 0.576,-0.425 0.561,-0.399C0.546,-0.373 0.539,-0.34 0.539,-0.3L0.539,-0.018L0.575,-0.018L0.575,0L0.318,0L0.318,-0.018L0.353,-0.018L0.353,-0.343C0.353,-0.394 0.349,-0.423 0.34,-0.432C0.336,-0.436 0.331,-0.438 0.324,-0.438C0.305,-0.438 0.289,-0.424 0.274,-0.396C0.259,-0.367 0.251,-0.333 0.251,-0.294L0.251,-0.018L0.287,-0.018L0.287,0L0.01,0L0.01,-0.018L0.065,-0.018L0.065,-0.458L0.01,-0.458L0.01,-0.476Z" style="fill:rgb(73,128,163);fill-rule:nonzero;"/>
                </g>
                <g transform="matrix(80,0,0,80,-264.216,818.938)">
                    <path d="M0.25,-0.235L0.279,-0.235L0.279,-0.312C0.279,-0.375 0.276,-0.418 0.269,-0.44C0.262,-0.461 0.248,-0.472 0.228,-0.472C0.216,-0.472 0.205,-0.469 0.196,-0.463C0.186,-0.456 0.181,-0.448 0.181,-0.437C0.181,-0.426 0.183,-0.414 0.187,-0.403L0.212,-0.403C0.217,-0.389 0.22,-0.372 0.22,-0.353C0.22,-0.333 0.212,-0.316 0.195,-0.302C0.178,-0.287 0.157,-0.28 0.132,-0.28C0.075,-0.28 0.046,-0.308 0.046,-0.363C0.046,-0.445 0.116,-0.486 0.255,-0.486C0.334,-0.486 0.389,-0.472 0.42,-0.446C0.45,-0.419 0.465,-0.369 0.465,-0.297L0.465,-0.094C0.465,-0.059 0.475,-0.042 0.494,-0.042C0.517,-0.042 0.53,-0.076 0.534,-0.145L0.549,-0.144C0.546,-0.085 0.535,-0.045 0.516,-0.023C0.497,-0.001 0.465,0.01 0.421,0.01C0.341,0.01 0.295,-0.015 0.283,-0.064C0.274,-0.039 0.261,-0.02 0.244,-0.008C0.227,0.004 0.201,0.01 0.168,0.01C0.069,0.01 0.02,-0.03 0.02,-0.111C0.02,-0.158 0.039,-0.191 0.077,-0.209C0.114,-0.226 0.172,-0.235 0.25,-0.235ZM0.21,-0.112C0.21,-0.077 0.212,-0.055 0.216,-0.045C0.219,-0.035 0.226,-0.03 0.237,-0.03C0.247,-0.03 0.257,-0.039 0.266,-0.056C0.275,-0.073 0.279,-0.096 0.279,-0.126L0.279,-0.219L0.272,-0.219C0.231,-0.219 0.21,-0.189 0.21,-0.128L0.21,-0.112Z" style="fill:rgb(73,128,163);fill-rule:nonzero;"/>
                </g>
                <g transform="matrix(80,0,0,80,-220.296,818.938)">
                    <path d="M0.006,-0.75L0.251,-0.75L0.251,-0.018L0.307,-0.018L0.307,0L0.01,0L0.01,-0.018L0.065,-0.018L0.065,-0.732L0.006,-0.732L0.006,-0.75Z" style="fill:rgb(73,128,163);fill-rule:nonzero;"/>
                </g>
                <g transform="matrix(80,0,0,80,-195.016,818.938)">
                    <path d="M0.157,-0.545C0.122,-0.545 0.097,-0.554 0.082,-0.572C0.067,-0.59 0.059,-0.612 0.059,-0.639C0.059,-0.666 0.067,-0.688 0.084,-0.705C0.1,-0.722 0.125,-0.731 0.158,-0.731C0.191,-0.731 0.217,-0.723 0.234,-0.708C0.251,-0.692 0.26,-0.67 0.26,-0.641C0.26,-0.611 0.252,-0.588 0.235,-0.571C0.218,-0.554 0.192,-0.545 0.157,-0.545ZM0.006,-0.476L0.251,-0.476L0.251,-0.018L0.307,-0.018L0.307,0L0.01,0L0.01,-0.018L0.065,-0.018L0.065,-0.458L0.006,-0.458L0.006,-0.476Z" style="fill:rgb(73,128,163);fill-rule:nonzero;"/>
                </g>
                <g transform="matrix(80,0,0,80,-169.656,818.938)">
                    <path d="M0.06,-0.143L0.06,-0.458L0.005,-0.458L0.005,-0.476L0.06,-0.476L0.06,-0.605L0.246,-0.651L0.246,-0.476L0.376,-0.476L0.376,-0.458L0.246,-0.458L0.246,-0.121C0.246,-0.09 0.249,-0.067 0.256,-0.052C0.262,-0.037 0.275,-0.03 0.295,-0.03C0.315,-0.03 0.333,-0.04 0.348,-0.06C0.363,-0.08 0.372,-0.107 0.377,-0.142L0.394,-0.14C0.389,-0.094 0.374,-0.058 0.35,-0.031C0.326,-0.003 0.286,0.01 0.231,0.01C0.176,0.01 0.133,-0.001 0.104,-0.023C0.075,-0.045 0.06,-0.085 0.06,-0.143Z" style="fill:rgb(73,128,163);fill-rule:nonzero;"/>
                </g>
                <g transform="matrix(80,0,0,80,-138.936,818.938)">
                    <path d="M0.005,-0.458L0.005,-0.476L0.295,-0.476L0.295,-0.458L0.241,-0.458L0.35,-0.126L0.466,-0.458L0.399,-0.458L0.399,-0.476L0.54,-0.476L0.54,-0.458L0.49,-0.458L0.303,0.081C0.281,0.144 0.256,0.188 0.229,0.213C0.202,0.238 0.168,0.25 0.129,0.25C0.09,0.25 0.059,0.241 0.036,0.223C0.013,0.205 0.002,0.182 0.002,0.154C0.002,0.126 0.009,0.105 0.024,0.09C0.039,0.075 0.058,0.068 0.082,0.068C0.137,0.068 0.165,0.091 0.165,0.137C0.165,0.147 0.163,0.159 0.159,0.173L0.124,0.173C0.119,0.188 0.118,0.201 0.122,0.211C0.126,0.221 0.135,0.226 0.149,0.226C0.176,0.226 0.201,0.213 0.222,0.186C0.243,0.159 0.264,0.117 0.283,0.062L0.305,0L0.217,0L0.046,-0.458L0.005,-0.458Z" style="fill:rgb(73,128,163);fill-rule:nonzero;"/>
                </g>
                <g transform="matrix(80,0,0,80,-975.736,898.938)">
                    <path d="M0.213,-0.207C0.213,-0.137 0.217,-0.091 0.224,-0.068C0.231,-0.045 0.245,-0.033 0.265,-0.033C0.284,-0.033 0.301,-0.042 0.316,-0.059C0.33,-0.076 0.337,-0.102 0.337,-0.136L0.337,-0.354C0.337,-0.383 0.331,-0.407 0.32,-0.427C0.309,-0.447 0.292,-0.457 0.27,-0.457C0.248,-0.457 0.233,-0.442 0.225,-0.413C0.217,-0.384 0.213,-0.332 0.213,-0.259L0.213,-0.207ZM0.35,0L0.339,-0.07C0.316,-0.017 0.27,0.01 0.201,0.01C0.144,0.01 0.099,-0.011 0.068,-0.052C0.036,-0.093 0.02,-0.155 0.02,-0.237C0.02,-0.403 0.086,-0.486 0.218,-0.486C0.277,-0.486 0.315,-0.47 0.334,-0.437L0.334,-0.732L0.273,-0.732L0.273,-0.75L0.523,-0.75L0.523,-0.018L0.572,-0.018L0.572,0L0.35,0Z" style="fill:rgb(73,128,163);fill-rule:nonzero;"/>
                </g>
                <g transform="matrix(80,0,0,80,-928.696,898.938)">
                    <path d="M0.273,0.01C0.187,0.01 0.123,-0.012 0.08,-0.057C0.037,-0.101 0.015,-0.163 0.015,-0.242C0.015,-0.321 0.039,-0.381 0.088,-0.423C0.136,-0.465 0.197,-0.486 0.272,-0.486C0.423,-0.486 0.496,-0.41 0.49,-0.258L0.208,-0.258L0.208,-0.219C0.208,-0.154 0.216,-0.104 0.233,-0.071C0.25,-0.038 0.279,-0.021 0.32,-0.021C0.397,-0.021 0.448,-0.062 0.472,-0.145L0.49,-0.142C0.477,-0.094 0.455,-0.057 0.422,-0.03C0.389,-0.003 0.339,0.01 0.273,0.01ZM0.209,-0.278L0.312,-0.278L0.312,-0.327C0.312,-0.381 0.309,-0.418 0.303,-0.438C0.296,-0.457 0.284,-0.467 0.265,-0.467C0.246,-0.467 0.232,-0.456 0.223,-0.436C0.214,-0.415 0.209,-0.378 0.209,-0.327L0.209,-0.278Z" style="fill:rgb(73,128,163);fill-rule:nonzero;"/>
                </g>
                <g transform="matrix(80,0,0,80,-887.416,898.938)">
                    <path d="M0.06,-0.143L0.06,-0.458L0.005,-0.458L0.005,-0.476L0.06,-0.476L0.06,-0.605L0.246,-0.651L0.246,-0.476L0.376,-0.476L0.376,-0.458L0.246,-0.458L0.246,-0.121C0.246,-0.09 0.249,-0.067 0.256,-0.052C0.262,-0.037 0.275,-0.03 0.295,-0.03C0.315,-0.03 0.333,-0.04 0.348,-0.06C0.363,-0.08 0.372,-0.107 0.377,-0.142L0.394,-0.14C0.389,-0.094 0.374,-0.058 0.35,-0.031C0.326,-0.003 0.286,0.01 0.231,0.01C0.176,0.01 0.133,-0.001 0.104,-0.023C0.075,-0.045 0.06,-0.085 0.06,-0.143Z" style="fill:rgb(73,128,163);fill-rule:nonzero;"/>
                </g>
                <g transform="matrix(80,0,0,80,-855.896,898.938)">
                    <path d="M0.273,0.01C0.187,0.01 0.123,-0.012 0.08,-0.057C0.037,-0.101 0.015,-0.163 0.015,-0.242C0.015,-0.321 0.039,-0.381 0.088,-0.423C0.136,-0.465 0.197,-0.486 0.272,-0.486C0.423,-0.486 0.496,-0.41 0.49,-0.258L0.208,-0.258L0.208,-0.219C0.208,-0.154 0.216,-0.104 0.233,-0.071C0.25,-0.038 0.279,-0.021 0.32,-0.021C0.397,-0.021 0.448,-0.062 0.472,-0.145L0.49,-0.142C0.477,-0.094 0.455,-0.057 0.422,-0.03C0.389,-0.003 0.339,0.01 0.273,0.01ZM0.209,-0.278L0.312,-0.278L0.312,-0.327C0.312,-0.381 0.309,-0.418 0.303,-0.438C0.296,-0.457 0.284,-0.467 0.265,-0.467C0.246,-0.467 0.232,-0.456 0.223,-0.436C0.214,-0.415 0.209,-0.378 0.209,-0.327L0.209,-0.278Z" style="fill:rgb(73,128,163);fill-rule:nonzero;"/>
                </g>
                <g transform="matrix(80,0,0,80,-814.616,898.938)">
                    <path d="M0.29,-0.468C0.261,-0.468 0.24,-0.452 0.227,-0.42C0.214,-0.388 0.208,-0.335 0.208,-0.261L0.208,-0.209C0.208,-0.143 0.215,-0.096 0.23,-0.067C0.245,-0.038 0.272,-0.024 0.311,-0.024C0.35,-0.024 0.382,-0.037 0.405,-0.064C0.428,-0.091 0.443,-0.121 0.45,-0.155L0.468,-0.153C0.455,-0.096 0.432,-0.054 0.398,-0.029C0.363,-0.003 0.316,0.01 0.255,0.01C0.178,0.01 0.118,-0.011 0.077,-0.053C0.036,-0.094 0.015,-0.155 0.015,-0.236C0.015,-0.316 0.039,-0.378 0.086,-0.421C0.133,-0.464 0.198,-0.486 0.282,-0.486C0.341,-0.486 0.387,-0.474 0.418,-0.452C0.449,-0.428 0.465,-0.4 0.465,-0.365C0.465,-0.33 0.458,-0.305 0.443,-0.289C0.428,-0.273 0.407,-0.265 0.381,-0.265C0.354,-0.265 0.333,-0.272 0.317,-0.286C0.301,-0.3 0.293,-0.321 0.293,-0.348C0.293,-0.36 0.295,-0.372 0.298,-0.384L0.331,-0.384C0.336,-0.397 0.338,-0.409 0.338,-0.42C0.338,-0.452 0.322,-0.468 0.29,-0.468Z" style="fill:rgb(73,128,163);fill-rule:nonzero;"/>
                </g>
                <g transform="matrix(80,0,0,80,-775.976,898.938)">
                    <path d="M0.06,-0.143L0.06,-0.458L0.005,-0.458L0.005,-0.476L0.06,-0.476L0.06,-0.605L0.246,-0.651L0.246,-0.476L0.376,-0.476L0.376,-0.458L0.246,-0.458L0.246,-0.121C0.246,-0.09 0.249,-0.067 0.256,-0.052C0.262,-0.037 0.275,-0.03 0.295,-0.03C0.315,-0.03 0.333,-0.04 0.348,-0.06C0.363,-0.08 0.372,-0.107 0.377,-0.142L0.394,-0.14C0.389,-0.094 0.374,-0.058 0.35,-0.031C0.326,-0.003 0.286,0.01 0.231,0.01C0.176,0.01 0.133,-0.001 0.104,-0.023C0.075,-0.045 0.06,-0.085 0.06,-0.143Z" style="fill:rgb(73,128,163);fill-rule:nonzero;"/>
                </g>
                <g transform="matrix(80,0,0,80,-744.456,898.938)">
                    <path d="M0.157,-0.545C0.122,-0.545 0.097,-0.554 0.082,-0.572C0.067,-0.59 0.059,-0.612 0.059,-0.639C0.059,-0.666 0.067,-0.688 0.084,-0.705C0.1,-0.722 0.125,-0.731 0.158,-0.731C0.191,-0.731 0.217,-0.723 0.234,-0.708C0.251,-0.692 0.26,-0.67 0.26,-0.641C0.26,-0.611 0.252,-0.588 0.235,-0.571C0.218,-0.554 0.192,-0.545 0.157,-0.545ZM0.006,-0.476L0.251,-0.476L0.251,-0.018L0.307,-0.018L0.307,0L0.01,0L0.01,-0.018L0.065,-0.018L0.065,-0.458L0.006,-0.458L0.006,-0.476Z" style="fill:rgb(73,128,163);fill-rule:nonzero;"/>
                </g>
                <g transform="matrix(80,0,0,80,-719.096,898.938)">
                    <path d="M0.333,-0.197L0.333,-0.282C0.333,-0.347 0.33,-0.394 0.323,-0.424C0.316,-0.453 0.299,-0.468 0.274,-0.468C0.259,-0.468 0.248,-0.464 0.239,-0.456C0.23,-0.447 0.223,-0.433 0.219,-0.414C0.213,-0.384 0.21,-0.338 0.21,-0.277L0.21,-0.199C0.21,-0.126 0.212,-0.083 0.217,-0.068C0.221,-0.053 0.225,-0.041 0.23,-0.032C0.237,-0.016 0.252,-0.008 0.273,-0.008C0.299,-0.008 0.316,-0.023 0.324,-0.053C0.33,-0.074 0.333,-0.122 0.333,-0.197ZM0.271,0.01C0.188,0.01 0.125,-0.011 0.082,-0.054C0.039,-0.097 0.018,-0.158 0.018,-0.238C0.018,-0.317 0.041,-0.379 0.087,-0.422C0.132,-0.464 0.196,-0.486 0.279,-0.486C0.362,-0.486 0.423,-0.466 0.464,-0.427C0.505,-0.387 0.525,-0.326 0.525,-0.245C0.525,-0.075 0.44,0.01 0.271,0.01Z" style="fill:rgb(73,128,163);fill-rule:nonzero;"/>
                </g>
                <g transform="matrix(80,0,0,80,-675.656,898.938)">
                    <path d="M0.012,-0.476L0.253,-0.476L0.253,-0.384C0.264,-0.415 0.28,-0.439 0.302,-0.458C0.324,-0.477 0.357,-0.486 0.402,-0.486C0.505,-0.486 0.557,-0.43 0.557,-0.319L0.557,-0.018L0.613,-0.018L0.613,0L0.33,0L0.33,-0.018L0.371,-0.018L0.371,-0.343C0.371,-0.383 0.368,-0.409 0.363,-0.421C0.358,-0.432 0.348,-0.438 0.334,-0.438C0.313,-0.438 0.294,-0.424 0.278,-0.396C0.261,-0.368 0.253,-0.334 0.253,-0.294L0.253,-0.018L0.296,-0.018L0.296,0L0.012,0L0.012,-0.018L0.067,-0.018L0.067,-0.458L0.012,-0.458L0.012,-0.476Z" style="fill:rgb(73,128,163);fill-rule:nonzero;"/>
                </g>
                <g transform="matrix(80,0,0,80,-611.976,898.938)">
                    <path d="M0.157,-0.545C0.122,-0.545 0.097,-0.554 0.082,-0.572C0.067,-0.59 0.059,-0.612 0.059,-0.639C0.059,-0.666 0.067,-0.688 0.084,-0.705C0.1,-0.722 0.125,-0.731 0.158,-0.731C0.191,-0.731 0.217,-0.723 0.234,-0.708C0.251,-0.692 0.26,-0.67 0.26,-0.641C0.26,-0.611 0.252,-0.588 0.235,-0.571C0.218,-0.554 0.192,-0.545 0.157,-0.545ZM0.006,-0.476L0.251,-0.476L0.251,-0.018L0.307,-0.018L0.307,0L0.01,0L0.01,-0.018L0.065,-0.018L0.065,-0.458L0.006,-0.458L0.006,-0.476Z" style="fill-rule:nonzero;"/>
                </g>
                <g transform="matrix(80,0,0,80,-586.616,898.938)">
                    <path d="M0.012,-0.476L0.253,-0.476L0.253,-0.384C0.264,-0.415 0.28,-0.439 0.302,-0.458C0.324,-0.477 0.357,-0.486 0.402,-0.486C0.505,-0.486 0.557,-0.43 0.557,-0.319L0.557,-0.018L0.613,-0.018L0.613,0L0.33,0L0.33,-0.018L0.371,-0.018L0.371,-0.343C0.371,-0.383 0.368,-0.409 0.363,-0.421C0.358,-0.432 0.348,-0.438 0.334,-0.438C0.313,-0.438 0.294,-0.424 0.278,-0.396C0.261,-0.368 0.253,-0.334 0.253,-0.294L0.253,-0.018L0.296,-0.018L0.296,0L0.012,0L0.012,-0.018L0.067,-0.018L0.067,-0.458L0.012,-0.458L0.012,-0.476Z" style="fill-rule:nonzero;"/>
                </g>
                <g transform="matrix(80,0,0,80,-522.936,898.938)">
                    <path d="M0.29,-0.468C0.261,-0.468 0.24,-0.452 0.227,-0.42C0.214,-0.388 0.208,-0.335 0.208,-0.261L0.208,-0.209C0.208,-0.143 0.215,-0.096 0.23,-0.067C0.245,-0.038 0.272,-0.024 0.311,-0.024C0.35,-0.024 0.382,-0.037 0.405,-0.064C0.428,-0.091 0.443,-0.121 0.45,-0.155L0.468,-0.153C0.455,-0.096 0.432,-0.054 0.398,-0.029C0.363,-0.003 0.316,0.01 0.255,0.01C0.178,0.01 0.118,-0.011 0.077,-0.053C0.036,-0.094 0.015,-0.155 0.015,-0.236C0.015,-0.316 0.039,-0.378 0.086,-0.421C0.133,-0.464 0.198,-0.486 0.282,-0.486C0.341,-0.486 0.387,-0.474 0.418,-0.452C0.449,-0.428 0.465,-0.4 0.465,-0.365C0.465,-0.33 0.458,-0.305 0.443,-0.289C0.428,-0.273 0.407,-0.265 0.381,-0.265C0.354,-0.265 0.333,-0.272 0.317,-0.286C0.301,-0.3 0.293,-0.321 0.293,-0.348C0.293,-0.36 0.295,-0.372 0.298,-0.384L0.331,-0.384C0.336,-0.397 0.338,-0.409 0.338,-0.42C0.338,-0.452 0.322,-0.468 0.29,-0.468Z" style="fill-rule:nonzero;"/>
                </g>
                <g transform="matrix(80,0,0,80,-485.096,898.938)">
                    <path d="M0.01,-0.75L0.251,-0.75L0.251,-0.384C0.262,-0.415 0.278,-0.439 0.3,-0.458C0.322,-0.477 0.355,-0.486 0.4,-0.486C0.503,-0.486 0.555,-0.43 0.555,-0.319L0.555,-0.018L0.611,-0.018L0.611,0L0.328,0L0.328,-0.018L0.369,-0.018L0.369,-0.343C0.369,-0.383 0.366,-0.409 0.361,-0.421C0.356,-0.432 0.346,-0.438 0.332,-0.438C0.311,-0.438 0.292,-0.424 0.276,-0.396C0.259,-0.368 0.251,-0.334 0.251,-0.294L0.251,-0.018L0.294,-0.018L0.294,0L0.01,0L0.01,-0.018L0.065,-0.018L0.065,-0.732L0.01,-0.732L0.01,-0.75Z" style="fill-rule:nonzero;"/>
                </g>
                <g transform="matrix(80,0,0,80,-435.816,898.938)">
                    <path d="M0.273,0.01C0.187,0.01 0.123,-0.012 0.08,-0.057C0.037,-0.101 0.015,-0.163 0.015,-0.242C0.015,-0.321 0.039,-0.381 0.088,-0.423C0.136,-0.465 0.197,-0.486 0.272,-0.486C0.423,-0.486 0.496,-0.41 0.49,-0.258L0.208,-0.258L0.208,-0.219C0.208,-0.154 0.216,-0.104 0.233,-0.071C0.25,-0.038 0.279,-0.021 0.32,-0.021C0.397,-0.021 0.448,-0.062 0.472,-0.145L0.49,-0.142C0.477,-0.094 0.455,-0.057 0.422,-0.03C0.389,-0.003 0.339,0.01 0.273,0.01ZM0.209,-0.278L0.312,-0.278L0.312,-0.327C0.312,-0.381 0.309,-0.418 0.303,-0.438C0.296,-0.457 0.284,-0.467 0.265,-0.467C0.246,-0.467 0.232,-0.456 0.223,-0.436C0.214,-0.415 0.209,-0.378 0.209,-0.327L0.209,-0.278Z" style="fill-rule:nonzero;"/>
                </g>
                <g transform="matrix(80,0,0,80,-395.336,898.938)">
                    <path d="M0.033,0.01L0.033,-0.169L0.045,-0.169C0.062,-0.111 0.086,-0.07 0.115,-0.047C0.144,-0.024 0.181,-0.012 0.225,-0.012C0.293,-0.012 0.327,-0.034 0.327,-0.077C0.327,-0.096 0.319,-0.11 0.302,-0.119C0.276,-0.134 0.243,-0.145 0.202,-0.153C0.157,-0.165 0.119,-0.181 0.088,-0.201C0.051,-0.225 0.033,-0.263 0.033,-0.315C0.033,-0.367 0.049,-0.409 0.081,-0.44C0.113,-0.47 0.156,-0.486 0.209,-0.486C0.242,-0.486 0.275,-0.478 0.31,-0.463C0.323,-0.458 0.332,-0.455 0.339,-0.455C0.346,-0.455 0.351,-0.457 0.356,-0.462C0.361,-0.467 0.366,-0.475 0.373,-0.488L0.384,-0.488L0.384,-0.335L0.372,-0.335C0.338,-0.422 0.285,-0.465 0.214,-0.465C0.183,-0.465 0.159,-0.46 0.144,-0.449C0.129,-0.438 0.121,-0.424 0.121,-0.407C0.121,-0.397 0.123,-0.389 0.128,-0.384C0.133,-0.378 0.136,-0.374 0.139,-0.371C0.142,-0.368 0.146,-0.366 0.152,-0.363C0.158,-0.36 0.163,-0.357 0.167,-0.356C0.171,-0.354 0.177,-0.352 0.186,-0.349C0.194,-0.346 0.2,-0.345 0.204,-0.344C0.249,-0.333 0.282,-0.323 0.302,-0.315C0.322,-0.306 0.341,-0.296 0.359,-0.284C0.396,-0.259 0.414,-0.218 0.414,-0.162C0.414,-0.105 0.397,-0.063 0.364,-0.034C0.331,-0.005 0.285,0.01 0.227,0.01C0.186,0.01 0.146,0 0.107,-0.019C0.099,-0.024 0.093,-0.027 0.088,-0.027C0.073,-0.027 0.059,-0.015 0.045,0.01L0.033,0.01Z" style="fill-rule:nonzero;"/>
                </g>
                <g transform="matrix(80,0,0,80,-361.416,898.938)">
                    <path d="M0.06,-0.143L0.06,-0.458L0.005,-0.458L0.005,-0.476L0.06,-0.476L0.06,-0.605L0.246,-0.651L0.246,-0.476L0.376,-0.476L0.376,-0.458L0.246,-0.458L0.246,-0.121C0.246,-0.09 0.249,-0.067 0.256,-0.052C0.262,-0.037 0.275,-0.03 0.295,-0.03C0.315,-0.03 0.333,-0.04 0.348,-0.06C0.363,-0.08 0.372,-0.107 0.377,-0.142L0.394,-0.14C0.389,-0.094 0.374,-0.058 0.35,-0.031C0.326,-0.003 0.286,0.01 0.231,0.01C0.176,0.01 0.133,-0.001 0.104,-0.023C0.075,-0.045 0.06,-0.085 0.06,-0.143Z" style="fill-rule:nonzero;"/>
                </g>
                <g transform="matrix(80,0,0,80,-315.496,898.938)">
                    <path d="M0.367,-0.295L0.485,-0.458L0.413,-0.458L0.413,-0.476L0.562,-0.476L0.562,-0.458L0.51,-0.458L0.38,-0.274L0.543,-0.018L0.595,-0.018L0.595,0L0.261,0L0.261,-0.018L0.332,-0.018L0.222,-0.198L0.108,-0.018L0.174,-0.018L0.174,0L0.017,0L0.017,-0.018L0.083,-0.018L0.21,-0.218L0.058,-0.458L0,-0.458L0,-0.476L0.338,-0.476L0.338,-0.458L0.268,-0.458L0.367,-0.295Z" style="fill-rule:nonzero;"/>
                </g>
                <g transform="matrix(80,0,0,80,-271.096,898.938)">
                    <rect x="0.05" y="-0.308" width="0.252" height="0.03" style="fill-rule:nonzero;"/>
                </g>
                <g transform="matrix(80,0,0,80,-242.936,898.938)">
                    <path d="M0.344,-0.448C0.319,-0.448 0.298,-0.432 0.279,-0.4C0.26,-0.368 0.251,-0.33 0.251,-0.286L0.251,-0.018L0.322,-0.018L0.322,0L0.01,0L0.01,-0.018L0.065,-0.018L0.065,-0.458L0.01,-0.458L0.01,-0.476L0.251,-0.476L0.251,-0.38C0.26,-0.414 0.276,-0.44 0.301,-0.459C0.326,-0.477 0.354,-0.486 0.385,-0.486C0.416,-0.486 0.442,-0.477 0.462,-0.46C0.481,-0.442 0.491,-0.417 0.491,-0.385C0.491,-0.352 0.484,-0.327 0.469,-0.31C0.454,-0.293 0.432,-0.284 0.402,-0.284C0.371,-0.284 0.349,-0.294 0.335,-0.314C0.32,-0.334 0.318,-0.362 0.329,-0.397L0.365,-0.397C0.382,-0.431 0.375,-0.448 0.344,-0.448Z" style="fill-rule:nonzero;"/>
                </g>
                <g transform="matrix(80,0,0,80,-204.536,898.938)">
                    <path d="M0.25,-0.235L0.279,-0.235L0.279,-0.312C0.279,-0.375 0.276,-0.418 0.269,-0.44C0.262,-0.461 0.248,-0.472 0.228,-0.472C0.216,-0.472 0.205,-0.469 0.196,-0.463C0.186,-0.456 0.181,-0.448 0.181,-0.437C0.181,-0.426 0.183,-0.414 0.187,-0.403L0.212,-0.403C0.217,-0.389 0.22,-0.372 0.22,-0.353C0.22,-0.333 0.212,-0.316 0.195,-0.302C0.178,-0.287 0.157,-0.28 0.132,-0.28C0.075,-0.28 0.046,-0.308 0.046,-0.363C0.046,-0.445 0.116,-0.486 0.255,-0.486C0.334,-0.486 0.389,-0.472 0.42,-0.446C0.45,-0.419 0.465,-0.369 0.465,-0.297L0.465,-0.094C0.465,-0.059 0.475,-0.042 0.494,-0.042C0.517,-0.042 0.53,-0.076 0.534,-0.145L0.549,-0.144C0.546,-0.085 0.535,-0.045 0.516,-0.023C0.497,-0.001 0.465,0.01 0.421,0.01C0.341,0.01 0.295,-0.015 0.283,-0.064C0.274,-0.039 0.261,-0.02 0.244,-0.008C0.227,0.004 0.201,0.01 0.168,0.01C0.069,0.01 0.02,-0.03 0.02,-0.111C0.02,-0.158 0.039,-0.191 0.077,-0.209C0.114,-0.226 0.172,-0.235 0.25,-0.235ZM0.21,-0.112C0.21,-0.077 0.212,-0.055 0.216,-0.045C0.219,-0.035 0.226,-0.03 0.237,-0.03C0.247,-0.03 0.257,-0.039 0.266,-0.056C0.275,-0.073 0.279,-0.096 0.279,-0.126L0.279,-0.219L0.272,-0.219C0.231,-0.219 0.21,-0.189 0.21,-0.128L0.21,-0.112Z" style="fill-rule:nonzero;"/>
                </g>
                <g transform="matrix(80,0,0,80,-165.416,898.938)">
                    <path d="M0.005,-0.458L0.005,-0.476L0.295,-0.476L0.295,-0.458L0.241,-0.458L0.35,-0.126L0.466,-0.458L0.399,-0.458L0.399,-0.476L0.54,-0.476L0.54,-0.458L0.49,-0.458L0.303,0.081C0.281,0.144 0.256,0.188 0.229,0.213C0.202,0.238 0.168,0.25 0.129,0.25C0.09,0.25 0.059,0.241 0.036,0.223C0.013,0.205 0.002,0.182 0.002,0.154C0.002,0.126 0.009,0.105 0.024,0.09C0.039,0.075 0.058,0.068 0.082,0.068C0.137,0.068 0.165,0.091 0.165,0.137C0.165,0.147 0.163,0.159 0.159,0.173L0.124,0.173C0.119,0.188 0.118,0.201 0.122,0.211C0.126,0.221 0.135,0.226 0.149,0.226C0.176,0.226 0.201,0.213 0.222,0.186C0.243,0.159 0.264,0.117 0.283,0.062L0.305,0L0.217,0L0.046,-0.458L0.005,-0.458Z" style="fill-rule:nonzero;"/>
                </g>
                <g transform="matrix(80,0,0,80,-125.256,898.938)">
                    <path d="M0.033,0.01L0.033,-0.169L0.045,-0.169C0.062,-0.111 0.086,-0.07 0.115,-0.047C0.144,-0.024 0.181,-0.012 0.225,-0.012C0.293,-0.012 0.327,-0.034 0.327,-0.077C0.327,-0.096 0.319,-0.11 0.302,-0.119C0.276,-0.134 0.243,-0.145 0.202,-0.153C0.157,-0.165 0.119,-0.181 0.088,-0.201C0.051,-0.225 0.033,-0.263 0.033,-0.315C0.033,-0.367 0.049,-0.409 0.081,-0.44C0.113,-0.47 0.156,-0.486 0.209,-0.486C0.242,-0.486 0.275,-0.478 0.31,-0.463C0.323,-0.458 0.332,-0.455 0.339,-0.455C0.346,-0.455 0.351,-0.457 0.356,-0.462C0.361,-0.467 0.366,-0.475 0.373,-0.488L0.384,-0.488L0.384,-0.335L0.372,-0.335C0.338,-0.422 0.285,-0.465 0.214,-0.465C0.183,-0.465 0.159,-0.46 0.144,-0.449C0.129,-0.438 0.121,-0.424 0.121,-0.407C0.121,-0.397 0.123,-0.389 0.128,-0.384C0.133,-0.378 0.136,-0.374 0.139,-0.371C0.142,-0.368 0.146,-0.366 0.152,-0.363C0.158,-0.36 0.163,-0.357 0.167,-0.356C0.171,-0.354 0.177,-0.352 0.186,-0.349C0.194,-0.346 0.2,-0.345 0.204,-0.344C0.249,-0.333 0.282,-0.323 0.302,-0.315C0.322,-0.306 0.341,-0.296 0.359,-0.284C0.396,-0.259 0.414,-0.218 0.414,-0.162C0.414,-0.105 0.397,-0.063 0.364,-0.034C0.331,-0.005 0.285,0.01 0.227,0.01C0.186,0.01 0.146,0 0.107,-0.019C0.099,-0.024 0.093,-0.027 0.088,-0.027C0.073,-0.027 0.059,-0.015 0.045,0.01L0.033,0.01Z" style="fill-rule:nonzero;"/>
                </g>
                <g transform="matrix(80,0,0,80,-91.3363,898.938)">
                    <path d="M0.227,-0.481L0.198,-0.747C0.225,-0.76 0.246,-0.767 0.263,-0.767C0.286,-0.767 0.297,-0.755 0.297,-0.73C0.297,-0.715 0.294,-0.693 0.288,-0.664L0.248,-0.481L0.227,-0.481ZM0.079,-0.481L0.05,-0.747C0.077,-0.76 0.098,-0.767 0.115,-0.767C0.138,-0.767 0.149,-0.755 0.149,-0.73C0.149,-0.715 0.146,-0.693 0.14,-0.664L0.1,-0.481L0.079,-0.481Z" style="fill-rule:nonzero;"/>
                </g>
            </g>
            <g transform="matrix(1,0,0,1,-47.9971,34.0073)">
                <g transform="matrix(64,0,0,64,-948.23,821.987)">
                    <path d="M0.377,-0.693C0.379,-0.698 0.383,-0.7 0.389,-0.7L0.441,-0.7C0.448,-0.7 0.451,-0.697 0.451,-0.69L0.451,-0.01C0.451,-0.003 0.448,0 0.441,0L0.39,0C0.383,0 0.38,-0.003 0.38,-0.01L0.38,-0.546C0.38,-0.548 0.38,-0.549 0.379,-0.549C0.378,-0.549 0.376,-0.548 0.375,-0.547L0.271,-0.331C0.269,-0.326 0.266,-0.324 0.261,-0.324C0.256,-0.324 0.252,-0.326 0.25,-0.331L0.146,-0.546C0.145,-0.547 0.144,-0.548 0.143,-0.548C0.142,-0.548 0.141,-0.547 0.141,-0.545L0.141,-0.01C0.141,-0.003 0.138,0 0.131,0L0.08,0C0.073,0 0.07,-0.003 0.07,-0.01L0.07,-0.69C0.07,-0.697 0.073,-0.7 0.08,-0.7L0.132,-0.7C0.138,-0.7 0.142,-0.698 0.144,-0.693L0.258,-0.462C0.259,-0.461 0.26,-0.46 0.261,-0.46C0.262,-0.46 0.263,-0.461 0.264,-0.462L0.377,-0.693Z" style="fill-rule:nonzero;"/>
                </g>
                <g transform="matrix(64,0,0,64,-914.886,821.987)">
                    <path d="M0.363,-0.236C0.363,-0.229 0.36,-0.226 0.353,-0.226L0.125,-0.226C0.122,-0.226 0.121,-0.225 0.121,-0.222L0.121,-0.149C0.121,-0.121 0.129,-0.098 0.145,-0.081C0.16,-0.063 0.181,-0.054 0.206,-0.054C0.227,-0.054 0.246,-0.061 0.261,-0.074C0.276,-0.087 0.285,-0.103 0.29,-0.124C0.292,-0.13 0.296,-0.133 0.301,-0.133L0.351,-0.131C0.354,-0.131 0.356,-0.13 0.358,-0.128C0.36,-0.126 0.361,-0.123 0.36,-0.12C0.355,-0.081 0.338,-0.049 0.312,-0.027C0.285,-0.003 0.249,0.008 0.206,0.008C0.159,0.008 0.121,-0.006 0.093,-0.034C0.064,-0.062 0.05,-0.099 0.05,-0.145L0.05,-0.361C0.05,-0.406 0.064,-0.443 0.093,-0.472C0.121,-0.5 0.159,-0.514 0.206,-0.514C0.254,-0.514 0.292,-0.5 0.321,-0.472C0.349,-0.443 0.363,-0.406 0.363,-0.361L0.363,-0.236ZM0.206,-0.452C0.181,-0.452 0.16,-0.443 0.145,-0.426C0.129,-0.408 0.121,-0.385 0.121,-0.356L0.121,-0.289C0.121,-0.286 0.122,-0.285 0.125,-0.285L0.289,-0.285C0.292,-0.285 0.293,-0.286 0.293,-0.289L0.293,-0.356C0.293,-0.385 0.285,-0.408 0.269,-0.426C0.253,-0.443 0.232,-0.452 0.206,-0.452Z" style="fill-rule:nonzero;"/>
                </g>
                <g transform="matrix(64,0,0,64,-888.838,821.987)">
                    <path d="M0.291,-0.69C0.291,-0.697 0.294,-0.7 0.301,-0.7L0.352,-0.7C0.359,-0.7 0.362,-0.697 0.362,-0.69L0.362,-0.01C0.362,-0.003 0.359,0 0.352,0L0.301,0C0.294,0 0.291,-0.003 0.291,-0.01L0.291,-0.032C0.291,-0.033 0.291,-0.034 0.29,-0.035C0.289,-0.036 0.287,-0.035 0.286,-0.034C0.261,-0.006 0.229,0.008 0.19,0.008C0.147,0.008 0.113,-0.006 0.088,-0.035C0.063,-0.063 0.05,-0.1 0.05,-0.145L0.05,-0.361C0.05,-0.408 0.063,-0.445 0.088,-0.473C0.113,-0.5 0.147,-0.514 0.19,-0.514C0.229,-0.514 0.261,-0.5 0.286,-0.471C0.287,-0.47 0.289,-0.469 0.29,-0.47C0.291,-0.471 0.291,-0.472 0.291,-0.473L0.291,-0.69ZM0.207,-0.054C0.232,-0.054 0.252,-0.063 0.268,-0.081C0.283,-0.098 0.291,-0.121 0.291,-0.149L0.291,-0.356C0.291,-0.385 0.283,-0.408 0.268,-0.426C0.252,-0.443 0.232,-0.452 0.207,-0.452C0.182,-0.452 0.161,-0.443 0.145,-0.426C0.128,-0.408 0.12,-0.385 0.12,-0.356L0.12,-0.149C0.12,-0.121 0.128,-0.098 0.145,-0.081C0.161,-0.063 0.182,-0.054 0.207,-0.054Z" style="fill-rule:nonzero;"/>
                </g>
                <g transform="matrix(64,0,0,64,-861.766,821.987)">
                    <path d="M0.104,-0.598C0.087,-0.598 0.074,-0.603 0.064,-0.614C0.053,-0.625 0.048,-0.638 0.048,-0.654C0.048,-0.671 0.053,-0.684 0.064,-0.695C0.074,-0.705 0.087,-0.71 0.104,-0.71C0.12,-0.71 0.133,-0.705 0.144,-0.695C0.154,-0.684 0.159,-0.671 0.159,-0.654C0.159,-0.638 0.154,-0.625 0.144,-0.614C0.133,-0.603 0.12,-0.598 0.104,-0.598ZM0.079,0C0.072,0 0.069,-0.003 0.069,-0.01L0.069,-0.496C0.069,-0.503 0.072,-0.506 0.079,-0.506L0.13,-0.506C0.137,-0.506 0.14,-0.503 0.14,-0.496L0.14,-0.01C0.14,-0.003 0.137,0 0.13,0L0.079,0Z" style="fill-rule:nonzero;"/>
                </g>
                <g transform="matrix(64,0,0,64,-848.454,821.987)">
                    <path d="M0.206,0.008C0.159,0.008 0.121,-0.006 0.093,-0.034C0.064,-0.062 0.05,-0.099 0.05,-0.145L0.05,-0.361C0.05,-0.406 0.064,-0.443 0.093,-0.472C0.122,-0.5 0.159,-0.514 0.206,-0.514C0.237,-0.514 0.265,-0.508 0.289,-0.495C0.313,-0.482 0.332,-0.466 0.345,-0.445C0.358,-0.424 0.364,-0.4 0.364,-0.375L0.364,-0.365C0.364,-0.358 0.361,-0.355 0.354,-0.355L0.303,-0.353C0.296,-0.353 0.293,-0.356 0.293,-0.363L0.293,-0.37C0.293,-0.392 0.285,-0.411 0.269,-0.428C0.252,-0.444 0.231,-0.452 0.206,-0.452C0.181,-0.452 0.16,-0.443 0.145,-0.426C0.129,-0.408 0.121,-0.385 0.121,-0.356L0.121,-0.15C0.121,-0.121 0.129,-0.098 0.145,-0.081C0.16,-0.063 0.181,-0.054 0.206,-0.054C0.231,-0.054 0.252,-0.062 0.269,-0.079C0.285,-0.095 0.293,-0.114 0.293,-0.136L0.293,-0.143C0.293,-0.15 0.296,-0.153 0.303,-0.153L0.354,-0.152C0.361,-0.152 0.364,-0.149 0.364,-0.142L0.364,-0.131C0.364,-0.091 0.349,-0.058 0.321,-0.032C0.292,-0.005 0.253,0.008 0.206,0.008Z" style="fill-rule:nonzero;"/>
                </g>
                <g transform="matrix(64,0,0,64,-822.726,821.987)">
                    <path d="M0.209,-0.514C0.256,-0.514 0.293,-0.499 0.321,-0.469C0.349,-0.438 0.363,-0.398 0.363,-0.347L0.363,-0.01C0.363,-0.003 0.36,0 0.353,0L0.302,0C0.295,0 0.292,-0.003 0.292,-0.01L0.292,-0.04C0.292,-0.041 0.292,-0.042 0.291,-0.043C0.29,-0.043 0.288,-0.042 0.287,-0.041C0.262,-0.008 0.225,0.008 0.176,0.008C0.139,0.008 0.108,-0.003 0.081,-0.024C0.054,-0.045 0.04,-0.082 0.04,-0.135C0.04,-0.192 0.056,-0.233 0.089,-0.26C0.122,-0.286 0.165,-0.299 0.218,-0.299L0.288,-0.299C0.291,-0.299 0.292,-0.3 0.292,-0.303L0.292,-0.342C0.292,-0.375 0.284,-0.402 0.269,-0.422C0.254,-0.442 0.233,-0.452 0.207,-0.452C0.187,-0.452 0.17,-0.445 0.156,-0.432C0.141,-0.419 0.133,-0.402 0.13,-0.381C0.13,-0.374 0.127,-0.371 0.12,-0.371L0.064,-0.372C0.061,-0.372 0.058,-0.373 0.057,-0.375C0.055,-0.377 0.054,-0.379 0.055,-0.382C0.058,-0.421 0.074,-0.453 0.103,-0.478C0.132,-0.502 0.167,-0.514 0.209,-0.514ZM0.191,-0.054C0.218,-0.054 0.242,-0.063 0.262,-0.081C0.282,-0.098 0.292,-0.123 0.292,-0.154L0.292,-0.238C0.292,-0.241 0.291,-0.242 0.288,-0.242L0.217,-0.242C0.185,-0.242 0.16,-0.234 0.141,-0.217C0.122,-0.2 0.113,-0.174 0.113,-0.141C0.113,-0.112 0.12,-0.09 0.135,-0.076C0.149,-0.061 0.168,-0.054 0.191,-0.054Z" style="fill-rule:nonzero;"/>
                </g>
                <g transform="matrix(64,0,0,64,-796.294,821.987)">
                    <path d="M0.065,0C0.058,0 0.055,-0.003 0.055,-0.01L0.055,-0.69C0.055,-0.697 0.058,-0.7 0.065,-0.7L0.116,-0.7C0.123,-0.7 0.126,-0.697 0.126,-0.69L0.126,-0.01C0.126,-0.003 0.123,0 0.116,0L0.065,0Z" style="fill-rule:nonzero;"/>
                </g>
                <g transform="matrix(64,0,0,64,-771.91,821.987)">
                    <path d="M0.082,0C0.075,0 0.072,-0.003 0.072,-0.01L0.072,-0.69C0.072,-0.697 0.075,-0.7 0.082,-0.7L0.133,-0.7C0.14,-0.7 0.143,-0.697 0.143,-0.69L0.143,-0.01C0.143,-0.003 0.14,0 0.133,0L0.082,0Z" style="fill-rule:nonzero;"/>
                </g>
                <g transform="matrix(64,0,0,64,-758.15,821.987)">
                    <path d="M0.466,-0.513C0.506,-0.513 0.537,-0.498 0.559,-0.469C0.581,-0.44 0.592,-0.399 0.592,-0.347L0.592,-0.01C0.592,-0.003 0.589,0 0.582,0L0.532,0C0.525,0 0.522,-0.003 0.522,-0.01L0.522,-0.341C0.522,-0.375 0.515,-0.402 0.501,-0.422C0.486,-0.441 0.467,-0.451 0.444,-0.451C0.419,-0.451 0.399,-0.441 0.384,-0.422C0.369,-0.403 0.362,-0.376 0.362,-0.343L0.362,-0.01C0.362,-0.003 0.359,0 0.352,0L0.301,0C0.294,0 0.291,-0.003 0.291,-0.01L0.291,-0.341C0.291,-0.375 0.284,-0.402 0.27,-0.422C0.255,-0.441 0.237,-0.451 0.214,-0.451C0.189,-0.451 0.168,-0.441 0.154,-0.422C0.138,-0.403 0.131,-0.376 0.131,-0.343L0.131,-0.01C0.131,-0.003 0.128,0 0.121,0L0.071,0C0.064,0 0.061,-0.003 0.061,-0.01L0.061,-0.496C0.061,-0.503 0.064,-0.506 0.071,-0.506L0.121,-0.506C0.128,-0.506 0.131,-0.503 0.131,-0.496L0.131,-0.465C0.131,-0.464 0.132,-0.463 0.133,-0.463C0.134,-0.462 0.135,-0.463 0.136,-0.464C0.149,-0.481 0.164,-0.493 0.181,-0.501C0.198,-0.509 0.217,-0.513 0.236,-0.513C0.261,-0.513 0.283,-0.507 0.302,-0.495C0.321,-0.482 0.335,-0.465 0.345,-0.442C0.346,-0.441 0.347,-0.44 0.348,-0.44C0.349,-0.44 0.35,-0.441 0.351,-0.443C0.363,-0.467 0.379,-0.485 0.4,-0.496C0.421,-0.507 0.443,-0.513 0.466,-0.513Z" style="fill-rule:nonzero;"/>
                </g>
                <g transform="matrix(64,0,0,64,-716.678,821.987)">
                    <path d="M0.209,-0.514C0.256,-0.514 0.293,-0.499 0.321,-0.469C0.349,-0.438 0.363,-0.398 0.363,-0.347L0.363,-0.01C0.363,-0.003 0.36,0 0.353,0L0.302,0C0.295,0 0.292,-0.003 0.292,-0.01L0.292,-0.04C0.292,-0.041 0.292,-0.042 0.291,-0.043C0.29,-0.043 0.288,-0.042 0.287,-0.041C0.262,-0.008 0.225,0.008 0.176,0.008C0.139,0.008 0.108,-0.003 0.081,-0.024C0.054,-0.045 0.04,-0.082 0.04,-0.135C0.04,-0.192 0.056,-0.233 0.089,-0.26C0.122,-0.286 0.165,-0.299 0.218,-0.299L0.288,-0.299C0.291,-0.299 0.292,-0.3 0.292,-0.303L0.292,-0.342C0.292,-0.375 0.284,-0.402 0.269,-0.422C0.254,-0.442 0.233,-0.452 0.207,-0.452C0.187,-0.452 0.17,-0.445 0.156,-0.432C0.141,-0.419 0.133,-0.402 0.13,-0.381C0.13,-0.374 0.127,-0.371 0.12,-0.371L0.064,-0.372C0.061,-0.372 0.058,-0.373 0.057,-0.375C0.055,-0.377 0.054,-0.379 0.055,-0.382C0.058,-0.421 0.074,-0.453 0.103,-0.478C0.132,-0.502 0.167,-0.514 0.209,-0.514ZM0.191,-0.054C0.218,-0.054 0.242,-0.063 0.262,-0.081C0.282,-0.098 0.292,-0.123 0.292,-0.154L0.292,-0.238C0.292,-0.241 0.291,-0.242 0.288,-0.242L0.217,-0.242C0.185,-0.242 0.16,-0.234 0.141,-0.217C0.122,-0.2 0.113,-0.174 0.113,-0.141C0.113,-0.112 0.12,-0.09 0.135,-0.076C0.149,-0.061 0.168,-0.054 0.191,-0.054Z" style="fill-rule:nonzero;"/>
                </g>
                <g transform="matrix(64,0,0,64,-690.246,821.987)">
                    <path d="M0.291,-0.496C0.291,-0.503 0.294,-0.506 0.301,-0.506L0.352,-0.506C0.359,-0.506 0.362,-0.503 0.362,-0.496L0.362,-0.01C0.362,0.061 0.345,0.116 0.313,0.153C0.28,0.19 0.224,0.206 0.147,0.203C0.14,0.202 0.137,0.199 0.137,0.192L0.137,0.149C0.137,0.142 0.14,0.139 0.147,0.139C0.2,0.14 0.238,0.128 0.259,0.103C0.28,0.077 0.291,0.037 0.291,-0.016L0.291,-0.046C0.291,-0.047 0.291,-0.048 0.29,-0.049C0.289,-0.05 0.287,-0.049 0.286,-0.048C0.275,-0.031 0.26,-0.019 0.243,-0.01C0.225,-0.001 0.206,0.003 0.186,0.003C0.144,0.003 0.111,-0.011 0.087,-0.039C0.062,-0.067 0.05,-0.104 0.05,-0.15L0.05,-0.361C0.05,-0.408 0.062,-0.445 0.087,-0.473C0.111,-0.5 0.144,-0.514 0.186,-0.514C0.206,-0.514 0.225,-0.51 0.243,-0.502C0.26,-0.493 0.275,-0.481 0.286,-0.464C0.287,-0.462 0.289,-0.461 0.29,-0.462C0.291,-0.462 0.291,-0.463 0.291,-0.465L0.291,-0.496ZM0.207,-0.059C0.232,-0.059 0.252,-0.068 0.268,-0.086C0.283,-0.103 0.291,-0.126 0.291,-0.154L0.291,-0.356C0.291,-0.385 0.283,-0.408 0.268,-0.426C0.252,-0.443 0.232,-0.452 0.207,-0.452C0.182,-0.452 0.161,-0.443 0.145,-0.426C0.129,-0.408 0.121,-0.385 0.121,-0.356L0.121,-0.154C0.121,-0.126 0.129,-0.103 0.145,-0.086C0.161,-0.068 0.182,-0.059 0.207,-0.059Z" style="fill-rule:nonzero;"/>
                </g>
                <g transform="matrix(64,0,0,64,-663.43,821.987)">
                    <path d="M0.104,-0.598C0.087,-0.598 0.074,-0.603 0.064,-0.614C0.053,-0.625 0.048,-0.638 0.048,-0.654C0.048,-0.671 0.053,-0.684 0.064,-0.695C0.074,-0.705 0.087,-0.71 0.104,-0.71C0.12,-0.71 0.133,-0.705 0.144,-0.695C0.154,-0.684 0.159,-0.671 0.159,-0.654C0.159,-0.638 0.154,-0.625 0.144,-0.614C0.133,-0.603 0.12,-0.598 0.104,-0.598ZM0.079,0C0.072,0 0.069,-0.003 0.069,-0.01L0.069,-0.496C0.069,-0.503 0.072,-0.506 0.079,-0.506L0.13,-0.506C0.137,-0.506 0.14,-0.503 0.14,-0.496L0.14,-0.01C0.14,-0.003 0.137,0 0.13,0L0.079,0Z" style="fill-rule:nonzero;"/>
                </g>
                <g transform="matrix(64,0,0,64,-650.118,821.987)">
                    <path d="M0.241,-0.513C0.282,-0.513 0.313,-0.499 0.336,-0.471C0.358,-0.443 0.369,-0.404 0.369,-0.354L0.369,-0.01C0.369,-0.003 0.366,0 0.359,0L0.308,0C0.301,0 0.298,-0.003 0.298,-0.01L0.298,-0.348C0.298,-0.381 0.291,-0.406 0.277,-0.424C0.262,-0.442 0.242,-0.451 0.217,-0.451C0.19,-0.451 0.169,-0.441 0.155,-0.422C0.139,-0.403 0.132,-0.376 0.132,-0.343L0.132,-0.01C0.132,-0.003 0.129,0 0.122,0L0.071,0C0.064,0 0.061,-0.003 0.061,-0.01L0.061,-0.496C0.061,-0.503 0.064,-0.506 0.071,-0.506L0.122,-0.506C0.129,-0.506 0.132,-0.503 0.132,-0.496L0.132,-0.464C0.132,-0.463 0.133,-0.462 0.134,-0.461C0.135,-0.46 0.136,-0.461 0.137,-0.463C0.149,-0.48 0.164,-0.492 0.183,-0.501C0.201,-0.509 0.22,-0.513 0.241,-0.513Z" style="fill-rule:nonzero;"/>
                </g>
                <g transform="matrix(64,0,0,64,-622.982,821.987)">
                    <path d="M0.291,-0.496C0.291,-0.503 0.294,-0.506 0.301,-0.506L0.352,-0.506C0.359,-0.506 0.362,-0.503 0.362,-0.496L0.362,-0.01C0.362,0.061 0.345,0.116 0.313,0.153C0.28,0.19 0.224,0.206 0.147,0.203C0.14,0.202 0.137,0.199 0.137,0.192L0.137,0.149C0.137,0.142 0.14,0.139 0.147,0.139C0.2,0.14 0.238,0.128 0.259,0.103C0.28,0.077 0.291,0.037 0.291,-0.016L0.291,-0.046C0.291,-0.047 0.291,-0.048 0.29,-0.049C0.289,-0.05 0.287,-0.049 0.286,-0.048C0.275,-0.031 0.26,-0.019 0.243,-0.01C0.225,-0.001 0.206,0.003 0.186,0.003C0.144,0.003 0.111,-0.011 0.087,-0.039C0.062,-0.067 0.05,-0.104 0.05,-0.15L0.05,-0.361C0.05,-0.408 0.062,-0.445 0.087,-0.473C0.111,-0.5 0.144,-0.514 0.186,-0.514C0.206,-0.514 0.225,-0.51 0.243,-0.502C0.26,-0.493 0.275,-0.481 0.286,-0.464C0.287,-0.462 0.289,-0.461 0.29,-0.462C0.291,-0.462 0.291,-0.463 0.291,-0.465L0.291,-0.496ZM0.207,-0.059C0.232,-0.059 0.252,-0.068 0.268,-0.086C0.283,-0.103 0.291,-0.126 0.291,-0.154L0.291,-0.356C0.291,-0.385 0.283,-0.408 0.268,-0.426C0.252,-0.443 0.232,-0.452 0.207,-0.452C0.182,-0.452 0.161,-0.443 0.145,-0.426C0.129,-0.408 0.121,-0.385 0.121,-0.356L0.121,-0.154C0.121,-0.126 0.129,-0.103 0.145,-0.086C0.161,-0.068 0.182,-0.059 0.207,-0.059Z" style="fill-rule:nonzero;"/>
                </g>
                <g transform="matrix(64,0,0,64,-583.75,821.987)">
                    <path d="M0.352,0C0.346,0 0.342,-0.003 0.34,-0.008L0.238,-0.317C0.237,-0.319 0.236,-0.32 0.234,-0.32L0.147,-0.32C0.144,-0.32 0.143,-0.319 0.143,-0.316L0.143,-0.01C0.143,-0.003 0.14,0 0.133,0L0.082,0C0.075,0 0.072,-0.003 0.072,-0.01L0.072,-0.69C0.072,-0.697 0.075,-0.7 0.082,-0.7L0.247,-0.7C0.296,-0.7 0.335,-0.682 0.365,-0.647C0.395,-0.611 0.41,-0.564 0.41,-0.507C0.41,-0.464 0.401,-0.426 0.382,-0.395C0.363,-0.364 0.338,-0.342 0.306,-0.329C0.303,-0.328 0.302,-0.327 0.303,-0.324L0.412,-0.011L0.413,-0.007C0.413,-0.002 0.41,0 0.404,0L0.352,0ZM0.147,-0.638C0.144,-0.638 0.143,-0.637 0.143,-0.634L0.143,-0.381C0.143,-0.378 0.144,-0.377 0.147,-0.377L0.237,-0.377C0.268,-0.377 0.292,-0.389 0.311,-0.413C0.33,-0.436 0.339,-0.468 0.339,-0.507C0.339,-0.546 0.33,-0.578 0.311,-0.602C0.292,-0.626 0.268,-0.638 0.237,-0.638L0.147,-0.638Z" style="fill-rule:nonzero;"/>
                </g>
                <g transform="matrix(64,0,0,64,-555.398,821.987)">
                    <path d="M0.363,-0.236C0.363,-0.229 0.36,-0.226 0.353,-0.226L0.125,-0.226C0.122,-0.226 0.121,-0.225 0.121,-0.222L0.121,-0.149C0.121,-0.121 0.129,-0.098 0.145,-0.081C0.16,-0.063 0.181,-0.054 0.206,-0.054C0.227,-0.054 0.246,-0.061 0.261,-0.074C0.276,-0.087 0.285,-0.103 0.29,-0.124C0.292,-0.13 0.296,-0.133 0.301,-0.133L0.351,-0.131C0.354,-0.131 0.356,-0.13 0.358,-0.128C0.36,-0.126 0.361,-0.123 0.36,-0.12C0.355,-0.081 0.338,-0.049 0.312,-0.027C0.285,-0.003 0.249,0.008 0.206,0.008C0.159,0.008 0.121,-0.006 0.093,-0.034C0.064,-0.062 0.05,-0.099 0.05,-0.145L0.05,-0.361C0.05,-0.406 0.064,-0.443 0.093,-0.472C0.121,-0.5 0.159,-0.514 0.206,-0.514C0.254,-0.514 0.292,-0.5 0.321,-0.472C0.349,-0.443 0.363,-0.406 0.363,-0.361L0.363,-0.236ZM0.206,-0.452C0.181,-0.452 0.16,-0.443 0.145,-0.426C0.129,-0.408 0.121,-0.385 0.121,-0.356L0.121,-0.289C0.121,-0.286 0.122,-0.285 0.125,-0.285L0.289,-0.285C0.292,-0.285 0.293,-0.286 0.293,-0.289L0.293,-0.356C0.293,-0.385 0.285,-0.408 0.269,-0.426C0.253,-0.443 0.232,-0.452 0.206,-0.452Z" style="fill-rule:nonzero;"/>
                </g>
                <g transform="matrix(64,0,0,64,-529.478,821.987)">
                    <path d="M0.193,0.005C0.147,0.005 0.11,-0.007 0.083,-0.031C0.055,-0.054 0.041,-0.086 0.041,-0.125L0.041,-0.132C0.041,-0.139 0.044,-0.142 0.051,-0.142L0.099,-0.142C0.106,-0.142 0.109,-0.139 0.109,-0.132L0.109,-0.126C0.109,-0.105 0.117,-0.087 0.133,-0.072C0.148,-0.057 0.169,-0.05 0.194,-0.05C0.218,-0.05 0.237,-0.057 0.252,-0.072C0.267,-0.087 0.274,-0.105 0.274,-0.128C0.274,-0.145 0.269,-0.16 0.26,-0.172C0.251,-0.183 0.24,-0.192 0.228,-0.199C0.215,-0.206 0.197,-0.214 0.172,-0.225C0.146,-0.236 0.125,-0.246 0.108,-0.257C0.091,-0.267 0.076,-0.282 0.064,-0.301C0.051,-0.32 0.045,-0.344 0.045,-0.373C0.045,-0.416 0.058,-0.449 0.085,-0.474C0.111,-0.499 0.146,-0.511 0.191,-0.511C0.236,-0.511 0.272,-0.498 0.299,-0.473C0.326,-0.448 0.339,-0.414 0.339,-0.372L0.339,-0.369C0.339,-0.362 0.336,-0.359 0.329,-0.359L0.283,-0.359C0.276,-0.359 0.273,-0.362 0.273,-0.369L0.273,-0.375C0.273,-0.398 0.266,-0.416 0.251,-0.431C0.236,-0.446 0.216,-0.453 0.192,-0.453C0.168,-0.453 0.149,-0.446 0.135,-0.431C0.12,-0.416 0.113,-0.397 0.113,-0.375C0.113,-0.359 0.117,-0.346 0.126,-0.335C0.135,-0.324 0.145,-0.315 0.158,-0.308C0.171,-0.301 0.188,-0.292 0.211,-0.282C0.238,-0.27 0.261,-0.259 0.279,-0.248C0.296,-0.237 0.312,-0.222 0.325,-0.203C0.338,-0.184 0.345,-0.16 0.345,-0.131C0.345,-0.09 0.331,-0.057 0.304,-0.032C0.277,-0.007 0.24,0.005 0.193,0.005Z" style="fill-rule:nonzero;"/>
                </g>
                <g transform="matrix(64,0,0,64,-505.542,821.987)">
                    <path d="M0.363,-0.236C0.363,-0.229 0.36,-0.226 0.353,-0.226L0.125,-0.226C0.122,-0.226 0.121,-0.225 0.121,-0.222L0.121,-0.149C0.121,-0.121 0.129,-0.098 0.145,-0.081C0.16,-0.063 0.181,-0.054 0.206,-0.054C0.227,-0.054 0.246,-0.061 0.261,-0.074C0.276,-0.087 0.285,-0.103 0.29,-0.124C0.292,-0.13 0.296,-0.133 0.301,-0.133L0.351,-0.131C0.354,-0.131 0.356,-0.13 0.358,-0.128C0.36,-0.126 0.361,-0.123 0.36,-0.12C0.355,-0.081 0.338,-0.049 0.312,-0.027C0.285,-0.003 0.249,0.008 0.206,0.008C0.159,0.008 0.121,-0.006 0.093,-0.034C0.064,-0.062 0.05,-0.099 0.05,-0.145L0.05,-0.361C0.05,-0.406 0.064,-0.443 0.093,-0.472C0.121,-0.5 0.159,-0.514 0.206,-0.514C0.254,-0.514 0.292,-0.5 0.321,-0.472C0.349,-0.443 0.363,-0.406 0.363,-0.361L0.363,-0.236ZM0.206,-0.452C0.181,-0.452 0.16,-0.443 0.145,-0.426C0.129,-0.408 0.121,-0.385 0.121,-0.356L0.121,-0.289C0.121,-0.286 0.122,-0.285 0.125,-0.285L0.289,-0.285C0.292,-0.285 0.293,-0.286 0.293,-0.289L0.293,-0.356C0.293,-0.385 0.285,-0.408 0.269,-0.426C0.253,-0.443 0.232,-0.452 0.206,-0.452Z" style="fill-rule:nonzero;"/>
                </g>
                <g transform="matrix(64,0,0,64,-479.75,821.987)">
                    <path d="M0.209,-0.514C0.256,-0.514 0.293,-0.499 0.321,-0.469C0.349,-0.438 0.363,-0.398 0.363,-0.347L0.363,-0.01C0.363,-0.003 0.36,0 0.353,0L0.302,0C0.295,0 0.292,-0.003 0.292,-0.01L0.292,-0.04C0.292,-0.041 0.292,-0.042 0.291,-0.043C0.29,-0.043 0.288,-0.042 0.287,-0.041C0.262,-0.008 0.225,0.008 0.176,0.008C0.139,0.008 0.108,-0.003 0.081,-0.024C0.054,-0.045 0.04,-0.082 0.04,-0.135C0.04,-0.192 0.056,-0.233 0.089,-0.26C0.122,-0.286 0.165,-0.299 0.218,-0.299L0.288,-0.299C0.291,-0.299 0.292,-0.3 0.292,-0.303L0.292,-0.342C0.292,-0.375 0.284,-0.402 0.269,-0.422C0.254,-0.442 0.233,-0.452 0.207,-0.452C0.187,-0.452 0.17,-0.445 0.156,-0.432C0.141,-0.419 0.133,-0.402 0.13,-0.381C0.13,-0.374 0.127,-0.371 0.12,-0.371L0.064,-0.372C0.061,-0.372 0.058,-0.373 0.057,-0.375C0.055,-0.377 0.054,-0.379 0.055,-0.382C0.058,-0.421 0.074,-0.453 0.103,-0.478C0.132,-0.502 0.167,-0.514 0.209,-0.514ZM0.191,-0.054C0.218,-0.054 0.242,-0.063 0.262,-0.081C0.282,-0.098 0.292,-0.123 0.292,-0.154L0.292,-0.238C0.292,-0.241 0.291,-0.242 0.288,-0.242L0.217,-0.242C0.185,-0.242 0.16,-0.234 0.141,-0.217C0.122,-0.2 0.113,-0.174 0.113,-0.141C0.113,-0.112 0.12,-0.09 0.135,-0.076C0.149,-0.061 0.168,-0.054 0.191,-0.054Z" style="fill-rule:nonzero;"/>
                </g>
                <g transform="matrix(64,0,0,64,-453.318,821.987)">
                    <path d="M0.232,-0.511C0.249,-0.511 0.263,-0.507 0.275,-0.5C0.28,-0.497 0.281,-0.493 0.28,-0.487L0.268,-0.435C0.267,-0.429 0.263,-0.427 0.256,-0.429C0.248,-0.433 0.238,-0.435 0.226,-0.435C0.221,-0.435 0.217,-0.435 0.214,-0.434C0.19,-0.433 0.17,-0.42 0.155,-0.397C0.14,-0.373 0.132,-0.344 0.132,-0.31L0.132,-0.01C0.132,-0.003 0.129,0 0.122,0L0.071,0C0.064,0 0.061,-0.003 0.061,-0.01L0.061,-0.496C0.061,-0.503 0.064,-0.506 0.071,-0.506L0.122,-0.506C0.129,-0.506 0.132,-0.503 0.132,-0.496L0.132,-0.436C0.132,-0.434 0.133,-0.433 0.134,-0.433C0.135,-0.433 0.136,-0.434 0.137,-0.435C0.156,-0.486 0.188,-0.511 0.232,-0.511Z" style="fill-rule:nonzero;"/>
                </g>
                <g transform="matrix(64,0,0,64,-434.886,821.987)">
                    <path d="M0.206,0.008C0.159,0.008 0.121,-0.006 0.093,-0.034C0.064,-0.062 0.05,-0.099 0.05,-0.145L0.05,-0.361C0.05,-0.406 0.064,-0.443 0.093,-0.472C0.122,-0.5 0.159,-0.514 0.206,-0.514C0.237,-0.514 0.265,-0.508 0.289,-0.495C0.313,-0.482 0.332,-0.466 0.345,-0.445C0.358,-0.424 0.364,-0.4 0.364,-0.375L0.364,-0.365C0.364,-0.358 0.361,-0.355 0.354,-0.355L0.303,-0.353C0.296,-0.353 0.293,-0.356 0.293,-0.363L0.293,-0.37C0.293,-0.392 0.285,-0.411 0.269,-0.428C0.252,-0.444 0.231,-0.452 0.206,-0.452C0.181,-0.452 0.16,-0.443 0.145,-0.426C0.129,-0.408 0.121,-0.385 0.121,-0.356L0.121,-0.15C0.121,-0.121 0.129,-0.098 0.145,-0.081C0.16,-0.063 0.181,-0.054 0.206,-0.054C0.231,-0.054 0.252,-0.062 0.269,-0.079C0.285,-0.095 0.293,-0.114 0.293,-0.136L0.293,-0.143C0.293,-0.15 0.296,-0.153 0.303,-0.153L0.354,-0.152C0.361,-0.152 0.364,-0.149 0.364,-0.142L0.364,-0.131C0.364,-0.091 0.349,-0.058 0.321,-0.032C0.292,-0.005 0.253,0.008 0.206,0.008Z" style="fill-rule:nonzero;"/>
                </g>
                <g transform="matrix(64,0,0,64,-409.158,821.987)">
                    <path d="M0.241,-0.513C0.282,-0.513 0.313,-0.499 0.336,-0.471C0.358,-0.443 0.369,-0.404 0.369,-0.354L0.369,-0.01C0.369,-0.003 0.366,0 0.359,0L0.308,0C0.301,0 0.298,-0.003 0.298,-0.01L0.298,-0.348C0.298,-0.381 0.291,-0.406 0.277,-0.424C0.262,-0.442 0.242,-0.451 0.217,-0.451C0.19,-0.451 0.169,-0.441 0.155,-0.422C0.139,-0.403 0.132,-0.376 0.132,-0.343L0.132,-0.01C0.132,-0.003 0.129,0 0.122,0L0.071,0C0.064,0 0.061,-0.003 0.061,-0.01L0.061,-0.69C0.061,-0.697 0.064,-0.7 0.071,-0.7L0.122,-0.7C0.129,-0.7 0.132,-0.697 0.132,-0.69L0.132,-0.464C0.132,-0.463 0.133,-0.462 0.134,-0.461C0.135,-0.46 0.136,-0.461 0.137,-0.463C0.149,-0.48 0.164,-0.492 0.183,-0.501C0.201,-0.509 0.22,-0.513 0.241,-0.513Z" style="fill-rule:nonzero;"/>
                </g>
                <g transform="matrix(64,0,0,64,-382.022,821.987)">
                    <path d="M0.363,-0.236C0.363,-0.229 0.36,-0.226 0.353,-0.226L0.125,-0.226C0.122,-0.226 0.121,-0.225 0.121,-0.222L0.121,-0.149C0.121,-0.121 0.129,-0.098 0.145,-0.081C0.16,-0.063 0.181,-0.054 0.206,-0.054C0.227,-0.054 0.246,-0.061 0.261,-0.074C0.276,-0.087 0.285,-0.103 0.29,-0.124C0.292,-0.13 0.296,-0.133 0.301,-0.133L0.351,-0.131C0.354,-0.131 0.356,-0.13 0.358,-0.128C0.36,-0.126 0.361,-0.123 0.36,-0.12C0.355,-0.081 0.338,-0.049 0.312,-0.027C0.285,-0.003 0.249,0.008 0.206,0.008C0.159,0.008 0.121,-0.006 0.093,-0.034C0.064,-0.062 0.05,-0.099 0.05,-0.145L0.05,-0.361C0.05,-0.406 0.064,-0.443 0.093,-0.472C0.121,-0.5 0.159,-0.514 0.206,-0.514C0.254,-0.514 0.292,-0.5 0.321,-0.472C0.349,-0.443 0.363,-0.406 0.363,-0.361L0.363,-0.236ZM0.206,-0.452C0.181,-0.452 0.16,-0.443 0.145,-0.426C0.129,-0.408 0.121,-0.385 0.121,-0.356L0.121,-0.289C0.121,-0.286 0.122,-0.285 0.125,-0.285L0.289,-0.285C0.292,-0.285 0.293,-0.286 0.293,-0.289L0.293,-0.356C0.293,-0.385 0.285,-0.408 0.269,-0.426C0.253,-0.443 0.232,-0.452 0.206,-0.452Z" style="fill-rule:nonzero;"/>
                </g>
                <g transform="matrix(64,0,0,64,-355.974,821.987)">
                    <path d="M0.232,-0.511C0.249,-0.511 0.263,-0.507 0.275,-0.5C0.28,-0.497 0.281,-0.493 0.28,-0.487L0.268,-0.435C0.267,-0.429 0.263,-0.427 0.256,-0.429C0.248,-0.433 0.238,-0.435 0.226,-0.435C0.221,-0.435 0.217,-0.435 0.214,-0.434C0.19,-0.433 0.17,-0.42 0.155,-0.397C0.14,-0.373 0.132,-0.344 0.132,-0.31L0.132,-0.01C0.132,-0.003 0.129,0 0.122,0L0.071,0C0.064,0 0.061,-0.003 0.061,-0.01L0.061,-0.496C0.061,-0.503 0.064,-0.506 0.071,-0.506L0.122,-0.506C0.129,-0.506 0.132,-0.503 0.132,-0.496L0.132,-0.436C0.132,-0.434 0.133,-0.433 0.134,-0.433C0.135,-0.433 0.136,-0.434 0.137,-0.435C0.156,-0.486 0.188,-0.511 0.232,-0.511Z" style="fill-rule:nonzero;"/>
                </g>
            </g>
        </g>
    </g>
</svg>
