<?xml version="1.0" encoding="UTF-8" standalone="no"?>
<!DOCTYPE svg PUBLIC "-//W3C//DTD SVG 1.1//EN" "http://www.w3.org/Graphics/SVG/1.1/DTD/svg11.dtd">
<svg width="100%" height="100%" viewBox="0 0 1106 480" version="1.1" xmlns="http://www.w3.org/2000/svg" xmlns:xlink="http://www.w3.org/1999/xlink" xml:space="preserve" xmlns:serif="http://www.serif.com/" style="fill-rule:evenodd;clip-rule:evenodd;stroke-linecap:round;stroke-linejoin:round;stroke-miterlimit:1.5;">
    <g transform="matrix(1,0,0,1,-211.992,-305.268)">
        <g transform="matrix(2.2633,0,0,0.854414,-417.678,25.289)">
            <g transform="matrix(0.441832,0,0,1.17039,171.943,-66.4575)">
                <rect x="308.049" y="365.386" width="823.2" height="107.92" style="fill:white;"/>
                <rect x="308.049" y="445.386" width="917.76" height="107.92" style="fill:white;"/>
                <rect x="308.049" y="525.386" width="965.92" height="107.92" style="fill:white;"/>
            </g>
            <g transform="matrix(0.441832,0,0,1.17039,171.943,-66.4575)">
                <text x="308.049px" y="450.026px" style="font-family:'AbrilFatface-Regular', 'Abril Fatface';font-size:80px;fill:rgb(51,51,51);">&quot;I w<tspan x="440.849px 484.769px 533.649px " y="450.026px 450.026px 450.026px ">ant</tspan> to kno<tspan x="808.849px " y="450.026px ">w</tspan></text>
                <text x="889.969px" y="450.026px" style="font-family:'AbrilFatface-Regular', 'Abril Fatface';font-size:80px;fill:rgb(0,213,214);">w<tspan x="955.089px " y="450.026px ">h</tspan>ic<tspan x="1067.57px " y="450.026px ">h</tspan></text>
                <text x="308.049px" y="530.026px" style="font-family:'AbrilFatface-Regular', 'Abril Fatface';font-size:80px;fill:rgb(0,213,214);">abnormalitie<tspan x="794.289px " y="530.026px ">s</tspan></text>
                <text x="843.409px" y="530.026px" style="font-family:'AbrilFatface-Regular', 'Abril Fatface';font-size:80px;fill:rgb(51,51,51);">ar<tspan x="926.529px " y="530.026px ">e</tspan> on the</text>
                <text x="308.049px" y="610.026px" style="font-family:'AbrilFatface-Regular', 'Abril Fatface';font-size:80px;fill:rgb(51,51,51);">ima<tspan x="447.969px 487.329px " y="610.026px 610.026px ">ge</tspan> and</text>
                <text x="697.649px" y="610.026px" style="font-family:'AbrilFatface-Regular', 'Abril Fatface';font-size:80px;fill:rgb(0,213,214);">w<tspan x="762.769px " y="610.026px ">h</tspan>er<tspan x="892.529px " y="610.026px ">e</tspan></text>
                <text x="948.209px" y="610.026px" style="font-family:'AbrilFatface-Regular', 'Abril Fatface';font-size:80px;fill:rgb(51,51,51);">the<tspan x="1068.29px " y="610.026px ">y</tspan> ar<tspan x="1208.37px 1247.25px " y="610.026px 610.026px ">e&quot;</tspan></text>
            </g>
        </g>
        <g transform="matrix(1.34612,0,0,1.06496,-63.0632,-432.106)">
            <path d="M1024.65,731.599C1024.65,710.869 1011.33,694.039 994.933,694.039L235.348,694.039C218.947,694.039 205.632,710.869 205.632,731.599L205.632,989.237C205.632,1009.97 218.947,1026.8 235.348,1026.8L994.933,1026.8C1011.33,1026.8 1024.65,1009.97 1024.65,989.237L1024.65,731.599Z" style="fill:none;stroke:rgb(0,213,214);stroke-width:2.88px;"/>
        </g>
        <g transform="matrix(1,0,0,1,80.2038,-179.488)">
            <path d="M249.87,840.881C323.052,840.615 366.187,879.955 376.173,962.987" style="fill:none;stroke:rgb(0,213,214);stroke-width:3.5px;"/>
        </g>
        <g transform="matrix(3.54576,0,0,0.93157,-1549.35,24.999)">
            <g transform="matrix(0.282027,0,0,1.07346,416.965,-53.0683)">
                <rect x="580.754" y="700.846" width="307.224" height="86.4" style="fill:white;"/>
            </g>
            <g transform="matrix(0.282027,0,0,1.07346,416.965,-53.0683)">
                <text x="580.754px" y="772.846px" style="font-family:'BarlowCondensed-Light', 'Barlow Condensed';font-weight:300;font-stretch:condensed;font-size:72px;fill:rgb(51,51,51);">R<tspan x="613.226px " y="772.846px ">A</tspan>DIOLOGIS<tspan x="858.386px " y="772.846px ">T</tspan></text>
            </g>
        </g>
    </g>
</svg>
