<?xml version="1.0" encoding="UTF-8" standalone="no"?>
<!DOCTYPE svg PUBLIC "-//W3C//DTD SVG 1.1//EN" "http://www.w3.org/Graphics/SVG/1.1/DTD/svg11.dtd">
<svg width="100%" height="100%" viewBox="0 0 1600 1200" version="1.1" xmlns="http://www.w3.org/2000/svg" xmlns:xlink="http://www.w3.org/1999/xlink" xml:space="preserve" xmlns:serif="http://www.serif.com/" style="fill-rule:evenodd;clip-rule:evenodd;stroke-linecap:round;stroke-linejoin:round;stroke-miterlimit:1.5;">
    <g transform="matrix(2.2633,0,0,0.854414,-417.678,25.289)">
        <g transform="matrix(0.441832,0,0,1.17039,171.943,-66.4575)">
            <rect x="308.049" y="365.386" width="823.2" height="107.92" style="fill:white;"/>
            <rect x="308.049" y="445.386" width="917.76" height="107.92" style="fill:white;"/>
            <rect x="308.049" y="525.386" width="965.92" height="107.92" style="fill:white;"/>
        </g>
        <g transform="matrix(0.441832,0,0,1.17039,171.943,-66.4575)">
            <g transform="matrix(80,0,0,80,308.049,450.026)">
                <path d="M0.227,-0.481L0.198,-0.747C0.225,-0.76 0.246,-0.767 0.263,-0.767C0.286,-0.767 0.297,-0.755 0.297,-0.73C0.297,-0.715 0.294,-0.693 0.288,-0.664L0.248,-0.481L0.227,-0.481ZM0.079,-0.481L0.05,-0.747C0.077,-0.76 0.098,-0.767 0.115,-0.767C0.138,-0.767 0.149,-0.755 0.149,-0.73C0.149,-0.715 0.146,-0.693 0.14,-0.664L0.1,-0.481L0.079,-0.481Z" style="fill:rgb(51,51,51);fill-rule:nonzero;"/>
            </g>
            <g transform="matrix(80,0,0,80,334.769,450.026)">
                <path d="M0.025,-0.7L0.33,-0.7L0.33,-0.681L0.275,-0.681L0.275,-0.019L0.33,-0.019L0.33,0L0.025,0L0.025,-0.019L0.08,-0.019L0.08,-0.681L0.025,-0.681L0.025,-0.7Z" style="fill:rgb(51,51,51);fill-rule:nonzero;"/>
            </g>
            <g transform="matrix(80,0,0,80,377.569,450.026)">
                <path d="M0.352,-0.458L0.352,-0.476L0.61,-0.476L0.61,-0.458L0.569,-0.458L0.659,-0.121L0.748,-0.458L0.679,-0.458L0.679,-0.476L0.814,-0.476L0.814,-0.458L0.772,-0.458L0.652,0L0.515,0L0.428,-0.307L0.334,0L0.2,0L0.052,-0.458L0.007,-0.458L0.007,-0.476L0.31,-0.476L0.31,-0.458L0.25,-0.458L0.342,-0.118L0.414,-0.352L0.389,-0.458L0.352,-0.458Z" style="fill:rgb(51,51,51);fill-rule:nonzero;"/>
            </g>
            <g transform="matrix(80,0,0,80,440.849,450.026)">
                <path d="M0.25,-0.235L0.279,-0.235L0.279,-0.312C0.279,-0.375 0.276,-0.418 0.269,-0.44C0.262,-0.461 0.248,-0.472 0.228,-0.472C0.216,-0.472 0.205,-0.469 0.196,-0.463C0.186,-0.456 0.181,-0.448 0.181,-0.437C0.181,-0.426 0.183,-0.414 0.187,-0.403L0.212,-0.403C0.217,-0.389 0.22,-0.372 0.22,-0.353C0.22,-0.333 0.212,-0.316 0.195,-0.302C0.178,-0.287 0.157,-0.28 0.132,-0.28C0.075,-0.28 0.046,-0.308 0.046,-0.363C0.046,-0.445 0.116,-0.486 0.255,-0.486C0.334,-0.486 0.389,-0.472 0.42,-0.446C0.45,-0.419 0.465,-0.369 0.465,-0.297L0.465,-0.094C0.465,-0.059 0.475,-0.042 0.494,-0.042C0.517,-0.042 0.53,-0.076 0.534,-0.145L0.549,-0.144C0.546,-0.085 0.535,-0.045 0.516,-0.023C0.497,-0.001 0.465,0.01 0.421,0.01C0.341,0.01 0.295,-0.015 0.283,-0.064C0.274,-0.039 0.261,-0.02 0.244,-0.008C0.227,0.004 0.201,0.01 0.168,0.01C0.069,0.01 0.02,-0.03 0.02,-0.111C0.02,-0.158 0.039,-0.191 0.077,-0.209C0.114,-0.226 0.172,-0.235 0.25,-0.235ZM0.21,-0.112C0.21,-0.077 0.212,-0.055 0.216,-0.045C0.219,-0.035 0.226,-0.03 0.237,-0.03C0.247,-0.03 0.257,-0.039 0.266,-0.056C0.275,-0.073 0.279,-0.096 0.279,-0.126L0.279,-0.219L0.272,-0.219C0.231,-0.219 0.21,-0.189 0.21,-0.128L0.21,-0.112Z" style="fill:rgb(51,51,51);fill-rule:nonzero;"/>
            </g>
            <g transform="matrix(80,0,0,80,484.769,450.026)">
                <path d="M0.012,-0.476L0.253,-0.476L0.253,-0.384C0.264,-0.415 0.28,-0.439 0.302,-0.458C0.324,-0.477 0.357,-0.486 0.402,-0.486C0.505,-0.486 0.557,-0.43 0.557,-0.319L0.557,-0.018L0.613,-0.018L0.613,0L0.33,0L0.33,-0.018L0.371,-0.018L0.371,-0.343C0.371,-0.383 0.368,-0.409 0.363,-0.421C0.358,-0.432 0.348,-0.438 0.334,-0.438C0.313,-0.438 0.294,-0.424 0.278,-0.396C0.261,-0.368 0.253,-0.334 0.253,-0.294L0.253,-0.018L0.296,-0.018L0.296,0L0.012,0L0.012,-0.018L0.067,-0.018L0.067,-0.458L0.012,-0.458L0.012,-0.476Z" style="fill:rgb(51,51,51);fill-rule:nonzero;"/>
            </g>
            <g transform="matrix(80,0,0,80,533.649,450.026)">
                <path d="M0.06,-0.143L0.06,-0.458L0.005,-0.458L0.005,-0.476L0.06,-0.476L0.06,-0.605L0.246,-0.651L0.246,-0.476L0.376,-0.476L0.376,-0.458L0.246,-0.458L0.246,-0.121C0.246,-0.09 0.249,-0.067 0.256,-0.052C0.262,-0.037 0.275,-0.03 0.295,-0.03C0.315,-0.03 0.333,-0.04 0.348,-0.06C0.363,-0.08 0.372,-0.107 0.377,-0.142L0.394,-0.14C0.389,-0.094 0.374,-0.058 0.35,-0.031C0.326,-0.003 0.286,0.01 0.231,0.01C0.176,0.01 0.133,-0.001 0.104,-0.023C0.075,-0.045 0.06,-0.085 0.06,-0.143Z" style="fill:rgb(51,51,51);fill-rule:nonzero;"/>
            </g>
            <g transform="matrix(80,0,0,80,579.569,450.026)">
                <path d="M0.06,-0.143L0.06,-0.458L0.005,-0.458L0.005,-0.476L0.06,-0.476L0.06,-0.605L0.246,-0.651L0.246,-0.476L0.376,-0.476L0.376,-0.458L0.246,-0.458L0.246,-0.121C0.246,-0.09 0.249,-0.067 0.256,-0.052C0.262,-0.037 0.275,-0.03 0.295,-0.03C0.315,-0.03 0.333,-0.04 0.348,-0.06C0.363,-0.08 0.372,-0.107 0.377,-0.142L0.394,-0.14C0.389,-0.094 0.374,-0.058 0.35,-0.031C0.326,-0.003 0.286,0.01 0.231,0.01C0.176,0.01 0.133,-0.001 0.104,-0.023C0.075,-0.045 0.06,-0.085 0.06,-0.143Z" style="fill:rgb(51,51,51);fill-rule:nonzero;"/>
            </g>
            <g transform="matrix(80,0,0,80,611.089,450.026)">
                <path d="M0.333,-0.197L0.333,-0.282C0.333,-0.347 0.33,-0.394 0.323,-0.424C0.316,-0.453 0.299,-0.468 0.274,-0.468C0.259,-0.468 0.248,-0.464 0.239,-0.456C0.23,-0.447 0.223,-0.433 0.219,-0.414C0.213,-0.384 0.21,-0.338 0.21,-0.277L0.21,-0.199C0.21,-0.126 0.212,-0.083 0.217,-0.068C0.221,-0.053 0.225,-0.041 0.23,-0.032C0.237,-0.016 0.252,-0.008 0.273,-0.008C0.299,-0.008 0.316,-0.023 0.324,-0.053C0.33,-0.074 0.333,-0.122 0.333,-0.197ZM0.271,0.01C0.188,0.01 0.125,-0.011 0.082,-0.054C0.039,-0.097 0.018,-0.158 0.018,-0.238C0.018,-0.317 0.041,-0.379 0.087,-0.422C0.132,-0.464 0.196,-0.486 0.279,-0.486C0.362,-0.486 0.423,-0.466 0.464,-0.427C0.505,-0.387 0.525,-0.326 0.525,-0.245C0.525,-0.075 0.44,0.01 0.271,0.01Z" style="fill:rgb(51,51,51);fill-rule:nonzero;"/>
            </g>
            <g transform="matrix(80,0,0,80,668.929,450.026)">
                <path d="M0.337,0L0.337,-0.018L0.383,-0.018L0.27,-0.25L0.251,-0.245L0.251,-0.018L0.297,-0.018L0.297,0L0.01,0L0.01,-0.018L0.065,-0.018L0.065,-0.732L0.006,-0.732L0.006,-0.75L0.251,-0.75L0.251,-0.265L0.267,-0.271L0.492,-0.458L0.398,-0.458L0.398,-0.476L0.595,-0.476L0.595,-0.458L0.525,-0.458L0.406,-0.357L0.579,-0.018L0.615,-0.018L0.615,0L0.337,0Z" style="fill:rgb(51,51,51);fill-rule:nonzero;"/>
            </g>
            <g transform="matrix(80,0,0,80,718.529,450.026)">
                <path d="M0.012,-0.476L0.253,-0.476L0.253,-0.384C0.264,-0.415 0.28,-0.439 0.302,-0.458C0.324,-0.477 0.357,-0.486 0.402,-0.486C0.505,-0.486 0.557,-0.43 0.557,-0.319L0.557,-0.018L0.613,-0.018L0.613,0L0.33,0L0.33,-0.018L0.371,-0.018L0.371,-0.343C0.371,-0.383 0.368,-0.409 0.363,-0.421C0.358,-0.432 0.348,-0.438 0.334,-0.438C0.313,-0.438 0.294,-0.424 0.278,-0.396C0.261,-0.368 0.253,-0.334 0.253,-0.294L0.253,-0.018L0.296,-0.018L0.296,0L0.012,0L0.012,-0.018L0.067,-0.018L0.067,-0.458L0.012,-0.458L0.012,-0.476Z" style="fill:rgb(51,51,51);fill-rule:nonzero;"/>
            </g>
            <g transform="matrix(80,0,0,80,767.809,450.026)">
                <path d="M0.333,-0.197L0.333,-0.282C0.333,-0.347 0.33,-0.394 0.323,-0.424C0.316,-0.453 0.299,-0.468 0.274,-0.468C0.259,-0.468 0.248,-0.464 0.239,-0.456C0.23,-0.447 0.223,-0.433 0.219,-0.414C0.213,-0.384 0.21,-0.338 0.21,-0.277L0.21,-0.199C0.21,-0.126 0.212,-0.083 0.217,-0.068C0.221,-0.053 0.225,-0.041 0.23,-0.032C0.237,-0.016 0.252,-0.008 0.273,-0.008C0.299,-0.008 0.316,-0.023 0.324,-0.053C0.33,-0.074 0.333,-0.122 0.333,-0.197ZM0.271,0.01C0.188,0.01 0.125,-0.011 0.082,-0.054C0.039,-0.097 0.018,-0.158 0.018,-0.238C0.018,-0.317 0.041,-0.379 0.087,-0.422C0.132,-0.464 0.196,-0.486 0.279,-0.486C0.362,-0.486 0.423,-0.466 0.464,-0.427C0.505,-0.387 0.525,-0.326 0.525,-0.245C0.525,-0.075 0.44,0.01 0.271,0.01Z" style="fill:rgb(51,51,51);fill-rule:nonzero;"/>
            </g>
            <g transform="matrix(80,0,0,80,808.849,450.026)">
                <path d="M0.352,-0.458L0.352,-0.476L0.61,-0.476L0.61,-0.458L0.569,-0.458L0.659,-0.121L0.748,-0.458L0.679,-0.458L0.679,-0.476L0.814,-0.476L0.814,-0.458L0.772,-0.458L0.652,0L0.515,0L0.428,-0.307L0.334,0L0.2,0L0.052,-0.458L0.007,-0.458L0.007,-0.476L0.31,-0.476L0.31,-0.458L0.25,-0.458L0.342,-0.118L0.414,-0.352L0.389,-0.458L0.352,-0.458Z" style="fill:rgb(51,51,51);fill-rule:nonzero;"/>
            </g>
            <g transform="matrix(80,0,0,80,889.969,450.026)">
                <path d="M0.352,-0.458L0.352,-0.476L0.61,-0.476L0.61,-0.458L0.569,-0.458L0.659,-0.121L0.748,-0.458L0.679,-0.458L0.679,-0.476L0.814,-0.476L0.814,-0.458L0.772,-0.458L0.652,0L0.515,0L0.428,-0.307L0.334,0L0.2,0L0.052,-0.458L0.007,-0.458L0.007,-0.476L0.31,-0.476L0.31,-0.458L0.25,-0.458L0.342,-0.118L0.414,-0.352L0.389,-0.458L0.352,-0.458Z" style="fill:rgb(0,213,214);fill-rule:nonzero;"/>
            </g>
            <g transform="matrix(80,0,0,80,955.089,450.026)">
                <path d="M0.01,-0.75L0.251,-0.75L0.251,-0.384C0.262,-0.415 0.278,-0.439 0.3,-0.458C0.322,-0.477 0.355,-0.486 0.4,-0.486C0.503,-0.486 0.555,-0.43 0.555,-0.319L0.555,-0.018L0.611,-0.018L0.611,0L0.328,0L0.328,-0.018L0.369,-0.018L0.369,-0.343C0.369,-0.383 0.366,-0.409 0.361,-0.421C0.356,-0.432 0.346,-0.438 0.332,-0.438C0.311,-0.438 0.292,-0.424 0.276,-0.396C0.259,-0.368 0.251,-0.334 0.251,-0.294L0.251,-0.018L0.294,-0.018L0.294,0L0.01,0L0.01,-0.018L0.065,-0.018L0.065,-0.732L0.01,-0.732L0.01,-0.75Z" style="fill:rgb(0,213,214);fill-rule:nonzero;"/>
            </g>
            <g transform="matrix(80,0,0,80,1004.37,450.026)">
                <path d="M0.157,-0.545C0.122,-0.545 0.097,-0.554 0.082,-0.572C0.067,-0.59 0.059,-0.612 0.059,-0.639C0.059,-0.666 0.067,-0.688 0.084,-0.705C0.1,-0.722 0.125,-0.731 0.158,-0.731C0.191,-0.731 0.217,-0.723 0.234,-0.708C0.251,-0.692 0.26,-0.67 0.26,-0.641C0.26,-0.611 0.252,-0.588 0.235,-0.571C0.218,-0.554 0.192,-0.545 0.157,-0.545ZM0.006,-0.476L0.251,-0.476L0.251,-0.018L0.307,-0.018L0.307,0L0.01,0L0.01,-0.018L0.065,-0.018L0.065,-0.458L0.006,-0.458L0.006,-0.476Z" style="fill:rgb(0,213,214);fill-rule:nonzero;"/>
            </g>
            <g transform="matrix(80,0,0,80,1029.73,450.026)">
                <path d="M0.29,-0.468C0.261,-0.468 0.24,-0.452 0.227,-0.42C0.214,-0.388 0.208,-0.335 0.208,-0.261L0.208,-0.209C0.208,-0.143 0.215,-0.096 0.23,-0.067C0.245,-0.038 0.272,-0.024 0.311,-0.024C0.35,-0.024 0.382,-0.037 0.405,-0.064C0.428,-0.091 0.443,-0.121 0.45,-0.155L0.468,-0.153C0.455,-0.096 0.432,-0.054 0.398,-0.029C0.363,-0.003 0.316,0.01 0.255,0.01C0.178,0.01 0.118,-0.011 0.077,-0.053C0.036,-0.094 0.015,-0.155 0.015,-0.236C0.015,-0.316 0.039,-0.378 0.086,-0.421C0.133,-0.464 0.198,-0.486 0.282,-0.486C0.341,-0.486 0.387,-0.474 0.418,-0.452C0.449,-0.428 0.465,-0.4 0.465,-0.365C0.465,-0.33 0.458,-0.305 0.443,-0.289C0.428,-0.273 0.407,-0.265 0.381,-0.265C0.354,-0.265 0.333,-0.272 0.317,-0.286C0.301,-0.3 0.293,-0.321 0.293,-0.348C0.293,-0.36 0.295,-0.372 0.298,-0.384L0.331,-0.384C0.336,-0.397 0.338,-0.409 0.338,-0.42C0.338,-0.452 0.322,-0.468 0.29,-0.468Z" style="fill:rgb(0,213,214);fill-rule:nonzero;"/>
            </g>
            <g transform="matrix(80,0,0,80,1067.57,450.026)">
                <path d="M0.01,-0.75L0.251,-0.75L0.251,-0.384C0.262,-0.415 0.278,-0.439 0.3,-0.458C0.322,-0.477 0.355,-0.486 0.4,-0.486C0.503,-0.486 0.555,-0.43 0.555,-0.319L0.555,-0.018L0.611,-0.018L0.611,0L0.328,0L0.328,-0.018L0.369,-0.018L0.369,-0.343C0.369,-0.383 0.366,-0.409 0.361,-0.421C0.356,-0.432 0.346,-0.438 0.332,-0.438C0.311,-0.438 0.292,-0.424 0.276,-0.396C0.259,-0.368 0.251,-0.334 0.251,-0.294L0.251,-0.018L0.294,-0.018L0.294,0L0.01,0L0.01,-0.018L0.065,-0.018L0.065,-0.732L0.01,-0.732L0.01,-0.75Z" style="fill:rgb(0,213,214);fill-rule:nonzero;"/>
            </g>
            <g transform="matrix(80,0,0,80,308.049,530.026)">
                <path d="M0.25,-0.235L0.279,-0.235L0.279,-0.312C0.279,-0.375 0.276,-0.418 0.269,-0.44C0.262,-0.461 0.248,-0.472 0.228,-0.472C0.216,-0.472 0.205,-0.469 0.196,-0.463C0.186,-0.456 0.181,-0.448 0.181,-0.437C0.181,-0.426 0.183,-0.414 0.187,-0.403L0.212,-0.403C0.217,-0.389 0.22,-0.372 0.22,-0.353C0.22,-0.333 0.212,-0.316 0.195,-0.302C0.178,-0.287 0.157,-0.28 0.132,-0.28C0.075,-0.28 0.046,-0.308 0.046,-0.363C0.046,-0.445 0.116,-0.486 0.255,-0.486C0.334,-0.486 0.389,-0.472 0.42,-0.446C0.45,-0.419 0.465,-0.369 0.465,-0.297L0.465,-0.094C0.465,-0.059 0.475,-0.042 0.494,-0.042C0.517,-0.042 0.53,-0.076 0.534,-0.145L0.549,-0.144C0.546,-0.085 0.535,-0.045 0.516,-0.023C0.497,-0.001 0.465,0.01 0.421,0.01C0.341,0.01 0.295,-0.015 0.283,-0.064C0.274,-0.039 0.261,-0.02 0.244,-0.008C0.227,0.004 0.201,0.01 0.168,0.01C0.069,0.01 0.02,-0.03 0.02,-0.111C0.02,-0.158 0.039,-0.191 0.077,-0.209C0.114,-0.226 0.172,-0.235 0.25,-0.235ZM0.21,-0.112C0.21,-0.077 0.212,-0.055 0.216,-0.045C0.219,-0.035 0.226,-0.03 0.237,-0.03C0.247,-0.03 0.257,-0.039 0.266,-0.056C0.275,-0.073 0.279,-0.096 0.279,-0.126L0.279,-0.219L0.272,-0.219C0.231,-0.219 0.21,-0.189 0.21,-0.128L0.21,-0.112Z" style="fill:rgb(0,213,214);fill-rule:nonzero;"/>
            </g>
            <g transform="matrix(80,0,0,80,351.969,530.026)">
                <path d="M0.375,-0.269C0.375,-0.338 0.372,-0.384 0.365,-0.408C0.358,-0.431 0.345,-0.443 0.326,-0.443C0.307,-0.443 0.289,-0.431 0.274,-0.407C0.259,-0.383 0.251,-0.35 0.251,-0.308L0.251,-0.122C0.251,-0.093 0.257,-0.069 0.269,-0.049C0.28,-0.029 0.297,-0.019 0.319,-0.019C0.34,-0.019 0.355,-0.034 0.363,-0.063C0.371,-0.092 0.375,-0.144 0.375,-0.217L0.375,-0.269ZM0.251,-0.75L0.251,-0.4C0.276,-0.457 0.32,-0.486 0.381,-0.486C0.506,-0.486 0.568,-0.403 0.568,-0.237C0.568,-0.152 0.551,-0.09 0.517,-0.05C0.482,-0.01 0.431,0.01 0.362,0.01C0.327,0.01 0.301,0.005 0.283,-0.006C0.264,-0.017 0.252,-0.034 0.245,-0.059L0.238,0L0.01,0L0.01,-0.018L0.065,-0.018L0.065,-0.732L0.01,-0.732L0.01,-0.75L0.251,-0.75Z" style="fill:rgb(0,213,214);fill-rule:nonzero;"/>
            </g>
            <g transform="matrix(80,0,0,80,399.009,530.026)">
                <path d="M0.012,-0.476L0.253,-0.476L0.253,-0.384C0.264,-0.415 0.28,-0.439 0.302,-0.458C0.324,-0.477 0.357,-0.486 0.402,-0.486C0.505,-0.486 0.557,-0.43 0.557,-0.319L0.557,-0.018L0.613,-0.018L0.613,0L0.33,0L0.33,-0.018L0.371,-0.018L0.371,-0.343C0.371,-0.383 0.368,-0.409 0.363,-0.421C0.358,-0.432 0.348,-0.438 0.334,-0.438C0.313,-0.438 0.294,-0.424 0.278,-0.396C0.261,-0.368 0.253,-0.334 0.253,-0.294L0.253,-0.018L0.296,-0.018L0.296,0L0.012,0L0.012,-0.018L0.067,-0.018L0.067,-0.458L0.012,-0.458L0.012,-0.476Z" style="fill:rgb(0,213,214);fill-rule:nonzero;"/>
            </g>
            <g transform="matrix(80,0,0,80,448.289,530.026)">
                <path d="M0.333,-0.197L0.333,-0.282C0.333,-0.347 0.33,-0.394 0.323,-0.424C0.316,-0.453 0.299,-0.468 0.274,-0.468C0.259,-0.468 0.248,-0.464 0.239,-0.456C0.23,-0.447 0.223,-0.433 0.219,-0.414C0.213,-0.384 0.21,-0.338 0.21,-0.277L0.21,-0.199C0.21,-0.126 0.212,-0.083 0.217,-0.068C0.221,-0.053 0.225,-0.041 0.23,-0.032C0.237,-0.016 0.252,-0.008 0.273,-0.008C0.299,-0.008 0.316,-0.023 0.324,-0.053C0.33,-0.074 0.333,-0.122 0.333,-0.197ZM0.271,0.01C0.188,0.01 0.125,-0.011 0.082,-0.054C0.039,-0.097 0.018,-0.158 0.018,-0.238C0.018,-0.317 0.041,-0.379 0.087,-0.422C0.132,-0.464 0.196,-0.486 0.279,-0.486C0.362,-0.486 0.423,-0.466 0.464,-0.427C0.505,-0.387 0.525,-0.326 0.525,-0.245C0.525,-0.075 0.44,0.01 0.271,0.01Z" style="fill:rgb(0,213,214);fill-rule:nonzero;"/>
            </g>
            <g transform="matrix(80,0,0,80,491.729,530.026)">
                <path d="M0.344,-0.448C0.319,-0.448 0.298,-0.432 0.279,-0.4C0.26,-0.368 0.251,-0.33 0.251,-0.286L0.251,-0.018L0.322,-0.018L0.322,0L0.01,0L0.01,-0.018L0.065,-0.018L0.065,-0.458L0.01,-0.458L0.01,-0.476L0.251,-0.476L0.251,-0.38C0.26,-0.414 0.276,-0.44 0.301,-0.459C0.326,-0.477 0.354,-0.486 0.385,-0.486C0.416,-0.486 0.442,-0.477 0.462,-0.46C0.481,-0.442 0.491,-0.417 0.491,-0.385C0.491,-0.352 0.484,-0.327 0.469,-0.31C0.454,-0.293 0.432,-0.284 0.402,-0.284C0.371,-0.284 0.349,-0.294 0.335,-0.314C0.32,-0.334 0.318,-0.362 0.329,-0.397L0.365,-0.397C0.382,-0.431 0.375,-0.448 0.344,-0.448Z" style="fill:rgb(0,213,214);fill-rule:nonzero;"/>
            </g>
            <g transform="matrix(80,0,0,80,531.329,530.026)">
                <path d="M0.01,-0.476L0.251,-0.476L0.251,-0.384C0.273,-0.452 0.322,-0.486 0.397,-0.486C0.472,-0.486 0.517,-0.45 0.533,-0.378C0.556,-0.45 0.605,-0.486 0.68,-0.486C0.778,-0.486 0.827,-0.43 0.827,-0.319L0.827,-0.018L0.883,-0.018L0.883,0L0.606,0L0.606,-0.018L0.641,-0.018L0.641,-0.343C0.641,-0.394 0.637,-0.423 0.628,-0.432C0.624,-0.436 0.619,-0.438 0.612,-0.438C0.593,-0.438 0.576,-0.425 0.561,-0.399C0.546,-0.373 0.539,-0.34 0.539,-0.3L0.539,-0.018L0.575,-0.018L0.575,0L0.318,0L0.318,-0.018L0.353,-0.018L0.353,-0.343C0.353,-0.394 0.349,-0.423 0.34,-0.432C0.336,-0.436 0.331,-0.438 0.324,-0.438C0.305,-0.438 0.289,-0.424 0.274,-0.396C0.259,-0.367 0.251,-0.333 0.251,-0.294L0.251,-0.018L0.287,-0.018L0.287,0L0.01,0L0.01,-0.018L0.065,-0.018L0.065,-0.458L0.01,-0.458L0.01,-0.476Z" style="fill:rgb(0,213,214);fill-rule:nonzero;"/>
            </g>
            <g transform="matrix(80,0,0,80,602.369,530.026)">
                <path d="M0.25,-0.235L0.279,-0.235L0.279,-0.312C0.279,-0.375 0.276,-0.418 0.269,-0.44C0.262,-0.461 0.248,-0.472 0.228,-0.472C0.216,-0.472 0.205,-0.469 0.196,-0.463C0.186,-0.456 0.181,-0.448 0.181,-0.437C0.181,-0.426 0.183,-0.414 0.187,-0.403L0.212,-0.403C0.217,-0.389 0.22,-0.372 0.22,-0.353C0.22,-0.333 0.212,-0.316 0.195,-0.302C0.178,-0.287 0.157,-0.28 0.132,-0.28C0.075,-0.28 0.046,-0.308 0.046,-0.363C0.046,-0.445 0.116,-0.486 0.255,-0.486C0.334,-0.486 0.389,-0.472 0.42,-0.446C0.45,-0.419 0.465,-0.369 0.465,-0.297L0.465,-0.094C0.465,-0.059 0.475,-0.042 0.494,-0.042C0.517,-0.042 0.53,-0.076 0.534,-0.145L0.549,-0.144C0.546,-0.085 0.535,-0.045 0.516,-0.023C0.497,-0.001 0.465,0.01 0.421,0.01C0.341,0.01 0.295,-0.015 0.283,-0.064C0.274,-0.039 0.261,-0.02 0.244,-0.008C0.227,0.004 0.201,0.01 0.168,0.01C0.069,0.01 0.02,-0.03 0.02,-0.111C0.02,-0.158 0.039,-0.191 0.077,-0.209C0.114,-0.226 0.172,-0.235 0.25,-0.235ZM0.21,-0.112C0.21,-0.077 0.212,-0.055 0.216,-0.045C0.219,-0.035 0.226,-0.03 0.237,-0.03C0.247,-0.03 0.257,-0.039 0.266,-0.056C0.275,-0.073 0.279,-0.096 0.279,-0.126L0.279,-0.219L0.272,-0.219C0.231,-0.219 0.21,-0.189 0.21,-0.128L0.21,-0.112Z" style="fill:rgb(0,213,214);fill-rule:nonzero;"/>
            </g>
            <g transform="matrix(80,0,0,80,646.289,530.026)">
                <path d="M0.006,-0.75L0.251,-0.75L0.251,-0.018L0.307,-0.018L0.307,0L0.01,0L0.01,-0.018L0.065,-0.018L0.065,-0.732L0.006,-0.732L0.006,-0.75Z" style="fill:rgb(0,213,214);fill-rule:nonzero;"/>
            </g>
            <g transform="matrix(80,0,0,80,671.569,530.026)">
                <path d="M0.157,-0.545C0.122,-0.545 0.097,-0.554 0.082,-0.572C0.067,-0.59 0.059,-0.612 0.059,-0.639C0.059,-0.666 0.067,-0.688 0.084,-0.705C0.1,-0.722 0.125,-0.731 0.158,-0.731C0.191,-0.731 0.217,-0.723 0.234,-0.708C0.251,-0.692 0.26,-0.67 0.26,-0.641C0.26,-0.611 0.252,-0.588 0.235,-0.571C0.218,-0.554 0.192,-0.545 0.157,-0.545ZM0.006,-0.476L0.251,-0.476L0.251,-0.018L0.307,-0.018L0.307,0L0.01,0L0.01,-0.018L0.065,-0.018L0.065,-0.458L0.006,-0.458L0.006,-0.476Z" style="fill:rgb(0,213,214);fill-rule:nonzero;"/>
            </g>
            <g transform="matrix(80,0,0,80,696.929,530.026)">
                <path d="M0.06,-0.143L0.06,-0.458L0.005,-0.458L0.005,-0.476L0.06,-0.476L0.06,-0.605L0.246,-0.651L0.246,-0.476L0.376,-0.476L0.376,-0.458L0.246,-0.458L0.246,-0.121C0.246,-0.09 0.249,-0.067 0.256,-0.052C0.262,-0.037 0.275,-0.03 0.295,-0.03C0.315,-0.03 0.333,-0.04 0.348,-0.06C0.363,-0.08 0.372,-0.107 0.377,-0.142L0.394,-0.14C0.389,-0.094 0.374,-0.058 0.35,-0.031C0.326,-0.003 0.286,0.01 0.231,0.01C0.176,0.01 0.133,-0.001 0.104,-0.023C0.075,-0.045 0.06,-0.085 0.06,-0.143Z" style="fill:rgb(0,213,214);fill-rule:nonzero;"/>
            </g>
            <g transform="matrix(80,0,0,80,728.449,530.026)">
                <path d="M0.157,-0.545C0.122,-0.545 0.097,-0.554 0.082,-0.572C0.067,-0.59 0.059,-0.612 0.059,-0.639C0.059,-0.666 0.067,-0.688 0.084,-0.705C0.1,-0.722 0.125,-0.731 0.158,-0.731C0.191,-0.731 0.217,-0.723 0.234,-0.708C0.251,-0.692 0.26,-0.67 0.26,-0.641C0.26,-0.611 0.252,-0.588 0.235,-0.571C0.218,-0.554 0.192,-0.545 0.157,-0.545ZM0.006,-0.476L0.251,-0.476L0.251,-0.018L0.307,-0.018L0.307,0L0.01,0L0.01,-0.018L0.065,-0.018L0.065,-0.458L0.006,-0.458L0.006,-0.476Z" style="fill:rgb(0,213,214);fill-rule:nonzero;"/>
            </g>
            <g transform="matrix(80,0,0,80,753.809,530.026)">
                <path d="M0.273,0.01C0.187,0.01 0.123,-0.012 0.08,-0.057C0.037,-0.101 0.015,-0.163 0.015,-0.242C0.015,-0.321 0.039,-0.381 0.088,-0.423C0.136,-0.465 0.197,-0.486 0.272,-0.486C0.423,-0.486 0.496,-0.41 0.49,-0.258L0.208,-0.258L0.208,-0.219C0.208,-0.154 0.216,-0.104 0.233,-0.071C0.25,-0.038 0.279,-0.021 0.32,-0.021C0.397,-0.021 0.448,-0.062 0.472,-0.145L0.49,-0.142C0.477,-0.094 0.455,-0.057 0.422,-0.03C0.389,-0.003 0.339,0.01 0.273,0.01ZM0.209,-0.278L0.312,-0.278L0.312,-0.327C0.312,-0.381 0.309,-0.418 0.303,-0.438C0.296,-0.457 0.284,-0.467 0.265,-0.467C0.246,-0.467 0.232,-0.456 0.223,-0.436C0.214,-0.415 0.209,-0.378 0.209,-0.327L0.209,-0.278Z" style="fill:rgb(0,213,214);fill-rule:nonzero;"/>
            </g>
            <g transform="matrix(80,0,0,80,794.289,530.026)">
                <path d="M0.033,0.01L0.033,-0.169L0.045,-0.169C0.062,-0.111 0.086,-0.07 0.115,-0.047C0.144,-0.024 0.181,-0.012 0.225,-0.012C0.293,-0.012 0.327,-0.034 0.327,-0.077C0.327,-0.096 0.319,-0.11 0.302,-0.119C0.276,-0.134 0.243,-0.145 0.202,-0.153C0.157,-0.165 0.119,-0.181 0.088,-0.201C0.051,-0.225 0.033,-0.263 0.033,-0.315C0.033,-0.367 0.049,-0.409 0.081,-0.44C0.113,-0.47 0.156,-0.486 0.209,-0.486C0.242,-0.486 0.275,-0.478 0.31,-0.463C0.323,-0.458 0.332,-0.455 0.339,-0.455C0.346,-0.455 0.351,-0.457 0.356,-0.462C0.361,-0.467 0.366,-0.475 0.373,-0.488L0.384,-0.488L0.384,-0.335L0.372,-0.335C0.338,-0.422 0.285,-0.465 0.214,-0.465C0.183,-0.465 0.159,-0.46 0.144,-0.449C0.129,-0.438 0.121,-0.424 0.121,-0.407C0.121,-0.397 0.123,-0.389 0.128,-0.384C0.133,-0.378 0.136,-0.374 0.139,-0.371C0.142,-0.368 0.146,-0.366 0.152,-0.363C0.158,-0.36 0.163,-0.357 0.167,-0.356C0.171,-0.354 0.177,-0.352 0.186,-0.349C0.194,-0.346 0.2,-0.345 0.204,-0.344C0.249,-0.333 0.282,-0.323 0.302,-0.315C0.322,-0.306 0.341,-0.296 0.359,-0.284C0.396,-0.259 0.414,-0.218 0.414,-0.162C0.414,-0.105 0.397,-0.063 0.364,-0.034C0.331,-0.005 0.285,0.01 0.227,0.01C0.186,0.01 0.146,0 0.107,-0.019C0.099,-0.024 0.093,-0.027 0.088,-0.027C0.073,-0.027 0.059,-0.015 0.045,0.01L0.033,0.01Z" style="fill:rgb(0,213,214);fill-rule:nonzero;"/>
            </g>
            <g transform="matrix(80,0,0,80,843.409,530.026)">
                <path d="M0.25,-0.235L0.279,-0.235L0.279,-0.312C0.279,-0.375 0.276,-0.418 0.269,-0.44C0.262,-0.461 0.248,-0.472 0.228,-0.472C0.216,-0.472 0.205,-0.469 0.196,-0.463C0.186,-0.456 0.181,-0.448 0.181,-0.437C0.181,-0.426 0.183,-0.414 0.187,-0.403L0.212,-0.403C0.217,-0.389 0.22,-0.372 0.22,-0.353C0.22,-0.333 0.212,-0.316 0.195,-0.302C0.178,-0.287 0.157,-0.28 0.132,-0.28C0.075,-0.28 0.046,-0.308 0.046,-0.363C0.046,-0.445 0.116,-0.486 0.255,-0.486C0.334,-0.486 0.389,-0.472 0.42,-0.446C0.45,-0.419 0.465,-0.369 0.465,-0.297L0.465,-0.094C0.465,-0.059 0.475,-0.042 0.494,-0.042C0.517,-0.042 0.53,-0.076 0.534,-0.145L0.549,-0.144C0.546,-0.085 0.535,-0.045 0.516,-0.023C0.497,-0.001 0.465,0.01 0.421,0.01C0.341,0.01 0.295,-0.015 0.283,-0.064C0.274,-0.039 0.261,-0.02 0.244,-0.008C0.227,0.004 0.201,0.01 0.168,0.01C0.069,0.01 0.02,-0.03 0.02,-0.111C0.02,-0.158 0.039,-0.191 0.077,-0.209C0.114,-0.226 0.172,-0.235 0.25,-0.235ZM0.21,-0.112C0.21,-0.077 0.212,-0.055 0.216,-0.045C0.219,-0.035 0.226,-0.03 0.237,-0.03C0.247,-0.03 0.257,-0.039 0.266,-0.056C0.275,-0.073 0.279,-0.096 0.279,-0.126L0.279,-0.219L0.272,-0.219C0.231,-0.219 0.21,-0.189 0.21,-0.128L0.21,-0.112Z" style="fill:rgb(51,51,51);fill-rule:nonzero;"/>
            </g>
            <g transform="matrix(80,0,0,80,887.329,530.026)">
                <path d="M0.344,-0.448C0.319,-0.448 0.298,-0.432 0.279,-0.4C0.26,-0.368 0.251,-0.33 0.251,-0.286L0.251,-0.018L0.322,-0.018L0.322,0L0.01,0L0.01,-0.018L0.065,-0.018L0.065,-0.458L0.01,-0.458L0.01,-0.476L0.251,-0.476L0.251,-0.38C0.26,-0.414 0.276,-0.44 0.301,-0.459C0.326,-0.477 0.354,-0.486 0.385,-0.486C0.416,-0.486 0.442,-0.477 0.462,-0.46C0.481,-0.442 0.491,-0.417 0.491,-0.385C0.491,-0.352 0.484,-0.327 0.469,-0.31C0.454,-0.293 0.432,-0.284 0.402,-0.284C0.371,-0.284 0.349,-0.294 0.335,-0.314C0.32,-0.334 0.318,-0.362 0.329,-0.397L0.365,-0.397C0.382,-0.431 0.375,-0.448 0.344,-0.448Z" style="fill:rgb(51,51,51);fill-rule:nonzero;"/>
            </g>
            <g transform="matrix(80,0,0,80,926.529,530.026)">
                <path d="M0.273,0.01C0.187,0.01 0.123,-0.012 0.08,-0.057C0.037,-0.101 0.015,-0.163 0.015,-0.242C0.015,-0.321 0.039,-0.381 0.088,-0.423C0.136,-0.465 0.197,-0.486 0.272,-0.486C0.423,-0.486 0.496,-0.41 0.49,-0.258L0.208,-0.258L0.208,-0.219C0.208,-0.154 0.216,-0.104 0.233,-0.071C0.25,-0.038 0.279,-0.021 0.32,-0.021C0.397,-0.021 0.448,-0.062 0.472,-0.145L0.49,-0.142C0.477,-0.094 0.455,-0.057 0.422,-0.03C0.389,-0.003 0.339,0.01 0.273,0.01ZM0.209,-0.278L0.312,-0.278L0.312,-0.327C0.312,-0.381 0.309,-0.418 0.303,-0.438C0.296,-0.457 0.284,-0.467 0.265,-0.467C0.246,-0.467 0.232,-0.456 0.223,-0.436C0.214,-0.415 0.209,-0.378 0.209,-0.327L0.209,-0.278Z" style="fill:rgb(51,51,51);fill-rule:nonzero;"/>
            </g>
            <g transform="matrix(80,0,0,80,982.209,530.026)">
                <path d="M0.333,-0.197L0.333,-0.282C0.333,-0.347 0.33,-0.394 0.323,-0.424C0.316,-0.453 0.299,-0.468 0.274,-0.468C0.259,-0.468 0.248,-0.464 0.239,-0.456C0.23,-0.447 0.223,-0.433 0.219,-0.414C0.213,-0.384 0.21,-0.338 0.21,-0.277L0.21,-0.199C0.21,-0.126 0.212,-0.083 0.217,-0.068C0.221,-0.053 0.225,-0.041 0.23,-0.032C0.237,-0.016 0.252,-0.008 0.273,-0.008C0.299,-0.008 0.316,-0.023 0.324,-0.053C0.33,-0.074 0.333,-0.122 0.333,-0.197ZM0.271,0.01C0.188,0.01 0.125,-0.011 0.082,-0.054C0.039,-0.097 0.018,-0.158 0.018,-0.238C0.018,-0.317 0.041,-0.379 0.087,-0.422C0.132,-0.464 0.196,-0.486 0.279,-0.486C0.362,-0.486 0.423,-0.466 0.464,-0.427C0.505,-0.387 0.525,-0.326 0.525,-0.245C0.525,-0.075 0.44,0.01 0.271,0.01Z" style="fill:rgb(51,51,51);fill-rule:nonzero;"/>
            </g>
            <g transform="matrix(80,0,0,80,1025.65,530.026)">
                <path d="M0.012,-0.476L0.253,-0.476L0.253,-0.384C0.264,-0.415 0.28,-0.439 0.302,-0.458C0.324,-0.477 0.357,-0.486 0.402,-0.486C0.505,-0.486 0.557,-0.43 0.557,-0.319L0.557,-0.018L0.613,-0.018L0.613,0L0.33,0L0.33,-0.018L0.371,-0.018L0.371,-0.343C0.371,-0.383 0.368,-0.409 0.363,-0.421C0.358,-0.432 0.348,-0.438 0.334,-0.438C0.313,-0.438 0.294,-0.424 0.278,-0.396C0.261,-0.368 0.253,-0.334 0.253,-0.294L0.253,-0.018L0.296,-0.018L0.296,0L0.012,0L0.012,-0.018L0.067,-0.018L0.067,-0.458L0.012,-0.458L0.012,-0.476Z" style="fill:rgb(51,51,51);fill-rule:nonzero;"/>
            </g>
            <g transform="matrix(80,0,0,80,1089.33,530.026)">
                <path d="M0.06,-0.143L0.06,-0.458L0.005,-0.458L0.005,-0.476L0.06,-0.476L0.06,-0.605L0.246,-0.651L0.246,-0.476L0.376,-0.476L0.376,-0.458L0.246,-0.458L0.246,-0.121C0.246,-0.09 0.249,-0.067 0.256,-0.052C0.262,-0.037 0.275,-0.03 0.295,-0.03C0.315,-0.03 0.333,-0.04 0.348,-0.06C0.363,-0.08 0.372,-0.107 0.377,-0.142L0.394,-0.14C0.389,-0.094 0.374,-0.058 0.35,-0.031C0.326,-0.003 0.286,0.01 0.231,0.01C0.176,0.01 0.133,-0.001 0.104,-0.023C0.075,-0.045 0.06,-0.085 0.06,-0.143Z" style="fill:rgb(51,51,51);fill-rule:nonzero;"/>
            </g>
            <g transform="matrix(80,0,0,80,1120.85,530.026)">
                <path d="M0.01,-0.75L0.251,-0.75L0.251,-0.384C0.262,-0.415 0.278,-0.439 0.3,-0.458C0.322,-0.477 0.355,-0.486 0.4,-0.486C0.503,-0.486 0.555,-0.43 0.555,-0.319L0.555,-0.018L0.611,-0.018L0.611,0L0.328,0L0.328,-0.018L0.369,-0.018L0.369,-0.343C0.369,-0.383 0.366,-0.409 0.361,-0.421C0.356,-0.432 0.346,-0.438 0.332,-0.438C0.311,-0.438 0.292,-0.424 0.276,-0.396C0.259,-0.368 0.251,-0.334 0.251,-0.294L0.251,-0.018L0.294,-0.018L0.294,0L0.01,0L0.01,-0.018L0.065,-0.018L0.065,-0.732L0.01,-0.732L0.01,-0.75Z" style="fill:rgb(51,51,51);fill-rule:nonzero;"/>
            </g>
            <g transform="matrix(80,0,0,80,1170.13,530.026)">
                <path d="M0.273,0.01C0.187,0.01 0.123,-0.012 0.08,-0.057C0.037,-0.101 0.015,-0.163 0.015,-0.242C0.015,-0.321 0.039,-0.381 0.088,-0.423C0.136,-0.465 0.197,-0.486 0.272,-0.486C0.423,-0.486 0.496,-0.41 0.49,-0.258L0.208,-0.258L0.208,-0.219C0.208,-0.154 0.216,-0.104 0.233,-0.071C0.25,-0.038 0.279,-0.021 0.32,-0.021C0.397,-0.021 0.448,-0.062 0.472,-0.145L0.49,-0.142C0.477,-0.094 0.455,-0.057 0.422,-0.03C0.389,-0.003 0.339,0.01 0.273,0.01ZM0.209,-0.278L0.312,-0.278L0.312,-0.327C0.312,-0.381 0.309,-0.418 0.303,-0.438C0.296,-0.457 0.284,-0.467 0.265,-0.467C0.246,-0.467 0.232,-0.456 0.223,-0.436C0.214,-0.415 0.209,-0.378 0.209,-0.327L0.209,-0.278Z" style="fill:rgb(51,51,51);fill-rule:nonzero;"/>
            </g>
            <g transform="matrix(80,0,0,80,308.049,610.026)">
                <path d="M0.157,-0.545C0.122,-0.545 0.097,-0.554 0.082,-0.572C0.067,-0.59 0.059,-0.612 0.059,-0.639C0.059,-0.666 0.067,-0.688 0.084,-0.705C0.1,-0.722 0.125,-0.731 0.158,-0.731C0.191,-0.731 0.217,-0.723 0.234,-0.708C0.251,-0.692 0.26,-0.67 0.26,-0.641C0.26,-0.611 0.252,-0.588 0.235,-0.571C0.218,-0.554 0.192,-0.545 0.157,-0.545ZM0.006,-0.476L0.251,-0.476L0.251,-0.018L0.307,-0.018L0.307,0L0.01,0L0.01,-0.018L0.065,-0.018L0.065,-0.458L0.006,-0.458L0.006,-0.476Z" style="fill:rgb(51,51,51);fill-rule:nonzero;"/>
            </g>
            <g transform="matrix(80,0,0,80,333.409,610.026)">
                <path d="M0.01,-0.476L0.251,-0.476L0.251,-0.384C0.273,-0.452 0.322,-0.486 0.397,-0.486C0.472,-0.486 0.517,-0.45 0.533,-0.378C0.556,-0.45 0.605,-0.486 0.68,-0.486C0.778,-0.486 0.827,-0.43 0.827,-0.319L0.827,-0.018L0.883,-0.018L0.883,0L0.606,0L0.606,-0.018L0.641,-0.018L0.641,-0.343C0.641,-0.394 0.637,-0.423 0.628,-0.432C0.624,-0.436 0.619,-0.438 0.612,-0.438C0.593,-0.438 0.576,-0.425 0.561,-0.399C0.546,-0.373 0.539,-0.34 0.539,-0.3L0.539,-0.018L0.575,-0.018L0.575,0L0.318,0L0.318,-0.018L0.353,-0.018L0.353,-0.343C0.353,-0.394 0.349,-0.423 0.34,-0.432C0.336,-0.436 0.331,-0.438 0.324,-0.438C0.305,-0.438 0.289,-0.424 0.274,-0.396C0.259,-0.367 0.251,-0.333 0.251,-0.294L0.251,-0.018L0.287,-0.018L0.287,0L0.01,0L0.01,-0.018L0.065,-0.018L0.065,-0.458L0.01,-0.458L0.01,-0.476Z" style="fill:rgb(51,51,51);fill-rule:nonzero;"/>
            </g>
            <g transform="matrix(80,0,0,80,404.449,610.026)">
                <path d="M0.25,-0.235L0.279,-0.235L0.279,-0.312C0.279,-0.375 0.276,-0.418 0.269,-0.44C0.262,-0.461 0.248,-0.472 0.228,-0.472C0.216,-0.472 0.205,-0.469 0.196,-0.463C0.186,-0.456 0.181,-0.448 0.181,-0.437C0.181,-0.426 0.183,-0.414 0.187,-0.403L0.212,-0.403C0.217,-0.389 0.22,-0.372 0.22,-0.353C0.22,-0.333 0.212,-0.316 0.195,-0.302C0.178,-0.287 0.157,-0.28 0.132,-0.28C0.075,-0.28 0.046,-0.308 0.046,-0.363C0.046,-0.445 0.116,-0.486 0.255,-0.486C0.334,-0.486 0.389,-0.472 0.42,-0.446C0.45,-0.419 0.465,-0.369 0.465,-0.297L0.465,-0.094C0.465,-0.059 0.475,-0.042 0.494,-0.042C0.517,-0.042 0.53,-0.076 0.534,-0.145L0.549,-0.144C0.546,-0.085 0.535,-0.045 0.516,-0.023C0.497,-0.001 0.465,0.01 0.421,0.01C0.341,0.01 0.295,-0.015 0.283,-0.064C0.274,-0.039 0.261,-0.02 0.244,-0.008C0.227,0.004 0.201,0.01 0.168,0.01C0.069,0.01 0.02,-0.03 0.02,-0.111C0.02,-0.158 0.039,-0.191 0.077,-0.209C0.114,-0.226 0.172,-0.235 0.25,-0.235ZM0.21,-0.112C0.21,-0.077 0.212,-0.055 0.216,-0.045C0.219,-0.035 0.226,-0.03 0.237,-0.03C0.247,-0.03 0.257,-0.039 0.266,-0.056C0.275,-0.073 0.279,-0.096 0.279,-0.126L0.279,-0.219L0.272,-0.219C0.231,-0.219 0.21,-0.189 0.21,-0.128L0.21,-0.112Z" style="fill:rgb(51,51,51);fill-rule:nonzero;"/>
            </g>
            <g transform="matrix(80,0,0,80,447.969,610.026)">
                <path d="M0.411,-0.528L0.439,-0.545C0.443,-0.566 0.435,-0.576 0.415,-0.576C0.386,-0.576 0.372,-0.554 0.372,-0.51C0.372,-0.493 0.374,-0.473 0.379,-0.45C0.43,-0.416 0.455,-0.373 0.455,-0.32C0.455,-0.267 0.437,-0.225 0.4,-0.196C0.363,-0.167 0.314,-0.152 0.251,-0.152C0.225,-0.152 0.198,-0.155 0.17,-0.16C0.141,-0.141 0.126,-0.127 0.126,-0.118C0.126,-0.109 0.147,-0.104 0.19,-0.104L0.292,-0.104C0.443,-0.104 0.519,-0.05 0.519,0.059C0.519,0.118 0.496,0.164 0.451,0.199C0.405,0.233 0.334,0.25 0.237,0.25C0.072,0.25 -0.01,0.214 -0.01,0.143C-0.01,0.104 0.016,0.078 0.067,0.063L0.127,0.09C0.122,0.109 0.119,0.128 0.119,0.145C0.119,0.202 0.162,0.231 0.247,0.231C0.299,0.231 0.339,0.221 0.367,0.202C0.395,0.183 0.409,0.159 0.409,0.13C0.409,0.101 0.401,0.082 0.384,0.073C0.367,0.063 0.333,0.058 0.282,0.058L0.185,0.058C0.131,0.058 0.092,0.049 0.069,0.031C0.046,0.013 0.034,-0.009 0.034,-0.036C0.034,-0.062 0.042,-0.084 0.059,-0.102C0.076,-0.119 0.105,-0.141 0.148,-0.167C0.071,-0.189 0.032,-0.24 0.032,-0.319C0.032,-0.369 0.05,-0.409 0.086,-0.44C0.122,-0.471 0.176,-0.486 0.248,-0.486C0.291,-0.486 0.328,-0.478 0.359,-0.461C0.355,-0.479 0.353,-0.495 0.353,-0.51C0.353,-0.547 0.363,-0.574 0.383,-0.591C0.403,-0.608 0.425,-0.616 0.45,-0.616C0.475,-0.616 0.495,-0.61 0.51,-0.597C0.525,-0.584 0.532,-0.566 0.532,-0.543C0.532,-0.52 0.526,-0.503 0.514,-0.493C0.502,-0.482 0.488,-0.476 0.471,-0.476C0.454,-0.476 0.44,-0.481 0.429,-0.49C0.418,-0.499 0.412,-0.511 0.411,-0.528ZM0.199,-0.341L0.199,-0.287C0.199,-0.242 0.203,-0.212 0.211,-0.196C0.218,-0.18 0.23,-0.172 0.246,-0.172C0.261,-0.172 0.273,-0.18 0.28,-0.196C0.286,-0.211 0.29,-0.243 0.29,-0.292L0.29,-0.341C0.29,-0.393 0.287,-0.427 0.28,-0.444C0.273,-0.46 0.262,-0.468 0.247,-0.468C0.231,-0.468 0.219,-0.46 0.211,-0.443C0.203,-0.426 0.199,-0.392 0.199,-0.341Z" style="fill:rgb(51,51,51);fill-rule:nonzero;"/>
            </g>
            <g transform="matrix(80,0,0,80,487.329,610.026)">
                <path d="M0.273,0.01C0.187,0.01 0.123,-0.012 0.08,-0.057C0.037,-0.101 0.015,-0.163 0.015,-0.242C0.015,-0.321 0.039,-0.381 0.088,-0.423C0.136,-0.465 0.197,-0.486 0.272,-0.486C0.423,-0.486 0.496,-0.41 0.49,-0.258L0.208,-0.258L0.208,-0.219C0.208,-0.154 0.216,-0.104 0.233,-0.071C0.25,-0.038 0.279,-0.021 0.32,-0.021C0.397,-0.021 0.448,-0.062 0.472,-0.145L0.49,-0.142C0.477,-0.094 0.455,-0.057 0.422,-0.03C0.389,-0.003 0.339,0.01 0.273,0.01ZM0.209,-0.278L0.312,-0.278L0.312,-0.327C0.312,-0.381 0.309,-0.418 0.303,-0.438C0.296,-0.457 0.284,-0.467 0.265,-0.467C0.246,-0.467 0.232,-0.456 0.223,-0.436C0.214,-0.415 0.209,-0.378 0.209,-0.327L0.209,-0.278Z" style="fill:rgb(51,51,51);fill-rule:nonzero;"/>
            </g>
            <g transform="matrix(80,0,0,80,543.009,610.026)">
                <path d="M0.25,-0.235L0.279,-0.235L0.279,-0.312C0.279,-0.375 0.276,-0.418 0.269,-0.44C0.262,-0.461 0.248,-0.472 0.228,-0.472C0.216,-0.472 0.205,-0.469 0.196,-0.463C0.186,-0.456 0.181,-0.448 0.181,-0.437C0.181,-0.426 0.183,-0.414 0.187,-0.403L0.212,-0.403C0.217,-0.389 0.22,-0.372 0.22,-0.353C0.22,-0.333 0.212,-0.316 0.195,-0.302C0.178,-0.287 0.157,-0.28 0.132,-0.28C0.075,-0.28 0.046,-0.308 0.046,-0.363C0.046,-0.445 0.116,-0.486 0.255,-0.486C0.334,-0.486 0.389,-0.472 0.42,-0.446C0.45,-0.419 0.465,-0.369 0.465,-0.297L0.465,-0.094C0.465,-0.059 0.475,-0.042 0.494,-0.042C0.517,-0.042 0.53,-0.076 0.534,-0.145L0.549,-0.144C0.546,-0.085 0.535,-0.045 0.516,-0.023C0.497,-0.001 0.465,0.01 0.421,0.01C0.341,0.01 0.295,-0.015 0.283,-0.064C0.274,-0.039 0.261,-0.02 0.244,-0.008C0.227,0.004 0.201,0.01 0.168,0.01C0.069,0.01 0.02,-0.03 0.02,-0.111C0.02,-0.158 0.039,-0.191 0.077,-0.209C0.114,-0.226 0.172,-0.235 0.25,-0.235ZM0.21,-0.112C0.21,-0.077 0.212,-0.055 0.216,-0.045C0.219,-0.035 0.226,-0.03 0.237,-0.03C0.247,-0.03 0.257,-0.039 0.266,-0.056C0.275,-0.073 0.279,-0.096 0.279,-0.126L0.279,-0.219L0.272,-0.219C0.231,-0.219 0.21,-0.189 0.21,-0.128L0.21,-0.112Z" style="fill:rgb(51,51,51);fill-rule:nonzero;"/>
            </g>
            <g transform="matrix(80,0,0,80,586.929,610.026)">
                <path d="M0.012,-0.476L0.253,-0.476L0.253,-0.384C0.264,-0.415 0.28,-0.439 0.302,-0.458C0.324,-0.477 0.357,-0.486 0.402,-0.486C0.505,-0.486 0.557,-0.43 0.557,-0.319L0.557,-0.018L0.613,-0.018L0.613,0L0.33,0L0.33,-0.018L0.371,-0.018L0.371,-0.343C0.371,-0.383 0.368,-0.409 0.363,-0.421C0.358,-0.432 0.348,-0.438 0.334,-0.438C0.313,-0.438 0.294,-0.424 0.278,-0.396C0.261,-0.368 0.253,-0.334 0.253,-0.294L0.253,-0.018L0.296,-0.018L0.296,0L0.012,0L0.012,-0.018L0.067,-0.018L0.067,-0.458L0.012,-0.458L0.012,-0.476Z" style="fill:rgb(51,51,51);fill-rule:nonzero;"/>
            </g>
            <g transform="matrix(80,0,0,80,636.209,610.026)">
                <path d="M0.213,-0.207C0.213,-0.137 0.217,-0.091 0.224,-0.068C0.231,-0.045 0.245,-0.033 0.265,-0.033C0.284,-0.033 0.301,-0.042 0.316,-0.059C0.33,-0.076 0.337,-0.102 0.337,-0.136L0.337,-0.354C0.337,-0.383 0.331,-0.407 0.32,-0.427C0.309,-0.447 0.292,-0.457 0.27,-0.457C0.248,-0.457 0.233,-0.442 0.225,-0.413C0.217,-0.384 0.213,-0.332 0.213,-0.259L0.213,-0.207ZM0.35,0L0.339,-0.07C0.316,-0.017 0.27,0.01 0.201,0.01C0.144,0.01 0.099,-0.011 0.068,-0.052C0.036,-0.093 0.02,-0.155 0.02,-0.237C0.02,-0.403 0.086,-0.486 0.218,-0.486C0.277,-0.486 0.315,-0.47 0.334,-0.437L0.334,-0.732L0.273,-0.732L0.273,-0.75L0.523,-0.75L0.523,-0.018L0.572,-0.018L0.572,0L0.35,0Z" style="fill:rgb(51,51,51);fill-rule:nonzero;"/>
            </g>
            <g transform="matrix(80,0,0,80,697.649,610.026)">
                <path d="M0.352,-0.458L0.352,-0.476L0.61,-0.476L0.61,-0.458L0.569,-0.458L0.659,-0.121L0.748,-0.458L0.679,-0.458L0.679,-0.476L0.814,-0.476L0.814,-0.458L0.772,-0.458L0.652,0L0.515,0L0.428,-0.307L0.334,0L0.2,0L0.052,-0.458L0.007,-0.458L0.007,-0.476L0.31,-0.476L0.31,-0.458L0.25,-0.458L0.342,-0.118L0.414,-0.352L0.389,-0.458L0.352,-0.458Z" style="fill:rgb(0,213,214);fill-rule:nonzero;"/>
            </g>
            <g transform="matrix(80,0,0,80,762.769,610.026)">
                <path d="M0.01,-0.75L0.251,-0.75L0.251,-0.384C0.262,-0.415 0.278,-0.439 0.3,-0.458C0.322,-0.477 0.355,-0.486 0.4,-0.486C0.503,-0.486 0.555,-0.43 0.555,-0.319L0.555,-0.018L0.611,-0.018L0.611,0L0.328,0L0.328,-0.018L0.369,-0.018L0.369,-0.343C0.369,-0.383 0.366,-0.409 0.361,-0.421C0.356,-0.432 0.346,-0.438 0.332,-0.438C0.311,-0.438 0.292,-0.424 0.276,-0.396C0.259,-0.368 0.251,-0.334 0.251,-0.294L0.251,-0.018L0.294,-0.018L0.294,0L0.01,0L0.01,-0.018L0.065,-0.018L0.065,-0.732L0.01,-0.732L0.01,-0.75Z" style="fill:rgb(0,213,214);fill-rule:nonzero;"/>
            </g>
            <g transform="matrix(80,0,0,80,812.049,610.026)">
                <path d="M0.273,0.01C0.187,0.01 0.123,-0.012 0.08,-0.057C0.037,-0.101 0.015,-0.163 0.015,-0.242C0.015,-0.321 0.039,-0.381 0.088,-0.423C0.136,-0.465 0.197,-0.486 0.272,-0.486C0.423,-0.486 0.496,-0.41 0.49,-0.258L0.208,-0.258L0.208,-0.219C0.208,-0.154 0.216,-0.104 0.233,-0.071C0.25,-0.038 0.279,-0.021 0.32,-0.021C0.397,-0.021 0.448,-0.062 0.472,-0.145L0.49,-0.142C0.477,-0.094 0.455,-0.057 0.422,-0.03C0.389,-0.003 0.339,0.01 0.273,0.01ZM0.209,-0.278L0.312,-0.278L0.312,-0.327C0.312,-0.381 0.309,-0.418 0.303,-0.438C0.296,-0.457 0.284,-0.467 0.265,-0.467C0.246,-0.467 0.232,-0.456 0.223,-0.436C0.214,-0.415 0.209,-0.378 0.209,-0.327L0.209,-0.278Z" style="fill:rgb(0,213,214);fill-rule:nonzero;"/>
            </g>
            <g transform="matrix(80,0,0,80,853.329,610.026)">
                <path d="M0.344,-0.448C0.319,-0.448 0.298,-0.432 0.279,-0.4C0.26,-0.368 0.251,-0.33 0.251,-0.286L0.251,-0.018L0.322,-0.018L0.322,0L0.01,0L0.01,-0.018L0.065,-0.018L0.065,-0.458L0.01,-0.458L0.01,-0.476L0.251,-0.476L0.251,-0.38C0.26,-0.414 0.276,-0.44 0.301,-0.459C0.326,-0.477 0.354,-0.486 0.385,-0.486C0.416,-0.486 0.442,-0.477 0.462,-0.46C0.481,-0.442 0.491,-0.417 0.491,-0.385C0.491,-0.352 0.484,-0.327 0.469,-0.31C0.454,-0.293 0.432,-0.284 0.402,-0.284C0.371,-0.284 0.349,-0.294 0.335,-0.314C0.32,-0.334 0.318,-0.362 0.329,-0.397L0.365,-0.397C0.382,-0.431 0.375,-0.448 0.344,-0.448Z" style="fill:rgb(0,213,214);fill-rule:nonzero;"/>
            </g>
            <g transform="matrix(80,0,0,80,892.529,610.026)">
                <path d="M0.273,0.01C0.187,0.01 0.123,-0.012 0.08,-0.057C0.037,-0.101 0.015,-0.163 0.015,-0.242C0.015,-0.321 0.039,-0.381 0.088,-0.423C0.136,-0.465 0.197,-0.486 0.272,-0.486C0.423,-0.486 0.496,-0.41 0.49,-0.258L0.208,-0.258L0.208,-0.219C0.208,-0.154 0.216,-0.104 0.233,-0.071C0.25,-0.038 0.279,-0.021 0.32,-0.021C0.397,-0.021 0.448,-0.062 0.472,-0.145L0.49,-0.142C0.477,-0.094 0.455,-0.057 0.422,-0.03C0.389,-0.003 0.339,0.01 0.273,0.01ZM0.209,-0.278L0.312,-0.278L0.312,-0.327C0.312,-0.381 0.309,-0.418 0.303,-0.438C0.296,-0.457 0.284,-0.467 0.265,-0.467C0.246,-0.467 0.232,-0.456 0.223,-0.436C0.214,-0.415 0.209,-0.378 0.209,-0.327L0.209,-0.278Z" style="fill:rgb(0,213,214);fill-rule:nonzero;"/>
            </g>
            <g transform="matrix(80,0,0,80,948.209,610.026)">
                <path d="M0.06,-0.143L0.06,-0.458L0.005,-0.458L0.005,-0.476L0.06,-0.476L0.06,-0.605L0.246,-0.651L0.246,-0.476L0.376,-0.476L0.376,-0.458L0.246,-0.458L0.246,-0.121C0.246,-0.09 0.249,-0.067 0.256,-0.052C0.262,-0.037 0.275,-0.03 0.295,-0.03C0.315,-0.03 0.333,-0.04 0.348,-0.06C0.363,-0.08 0.372,-0.107 0.377,-0.142L0.394,-0.14C0.389,-0.094 0.374,-0.058 0.35,-0.031C0.326,-0.003 0.286,0.01 0.231,0.01C0.176,0.01 0.133,-0.001 0.104,-0.023C0.075,-0.045 0.06,-0.085 0.06,-0.143Z" style="fill:rgb(51,51,51);fill-rule:nonzero;"/>
            </g>
            <g transform="matrix(80,0,0,80,979.729,610.026)">
                <path d="M0.01,-0.75L0.251,-0.75L0.251,-0.384C0.262,-0.415 0.278,-0.439 0.3,-0.458C0.322,-0.477 0.355,-0.486 0.4,-0.486C0.503,-0.486 0.555,-0.43 0.555,-0.319L0.555,-0.018L0.611,-0.018L0.611,0L0.328,0L0.328,-0.018L0.369,-0.018L0.369,-0.343C0.369,-0.383 0.366,-0.409 0.361,-0.421C0.356,-0.432 0.346,-0.438 0.332,-0.438C0.311,-0.438 0.292,-0.424 0.276,-0.396C0.259,-0.368 0.251,-0.334 0.251,-0.294L0.251,-0.018L0.294,-0.018L0.294,0L0.01,0L0.01,-0.018L0.065,-0.018L0.065,-0.732L0.01,-0.732L0.01,-0.75Z" style="fill:rgb(51,51,51);fill-rule:nonzero;"/>
            </g>
            <g transform="matrix(80,0,0,80,1029.01,610.026)">
                <path d="M0.273,0.01C0.187,0.01 0.123,-0.012 0.08,-0.057C0.037,-0.101 0.015,-0.163 0.015,-0.242C0.015,-0.321 0.039,-0.381 0.088,-0.423C0.136,-0.465 0.197,-0.486 0.272,-0.486C0.423,-0.486 0.496,-0.41 0.49,-0.258L0.208,-0.258L0.208,-0.219C0.208,-0.154 0.216,-0.104 0.233,-0.071C0.25,-0.038 0.279,-0.021 0.32,-0.021C0.397,-0.021 0.448,-0.062 0.472,-0.145L0.49,-0.142C0.477,-0.094 0.455,-0.057 0.422,-0.03C0.389,-0.003 0.339,0.01 0.273,0.01ZM0.209,-0.278L0.312,-0.278L0.312,-0.327C0.312,-0.381 0.309,-0.418 0.303,-0.438C0.296,-0.457 0.284,-0.467 0.265,-0.467C0.246,-0.467 0.232,-0.456 0.223,-0.436C0.214,-0.415 0.209,-0.378 0.209,-0.327L0.209,-0.278Z" style="fill:rgb(51,51,51);fill-rule:nonzero;"/>
            </g>
            <g transform="matrix(80,0,0,80,1068.29,610.026)">
                <path d="M0.005,-0.458L0.005,-0.476L0.295,-0.476L0.295,-0.458L0.241,-0.458L0.35,-0.126L0.466,-0.458L0.399,-0.458L0.399,-0.476L0.54,-0.476L0.54,-0.458L0.49,-0.458L0.303,0.081C0.281,0.144 0.256,0.188 0.229,0.213C0.202,0.238 0.168,0.25 0.129,0.25C0.09,0.25 0.059,0.241 0.036,0.223C0.013,0.205 0.002,0.182 0.002,0.154C0.002,0.126 0.009,0.105 0.024,0.09C0.039,0.075 0.058,0.068 0.082,0.068C0.137,0.068 0.165,0.091 0.165,0.137C0.165,0.147 0.163,0.159 0.159,0.173L0.124,0.173C0.119,0.188 0.118,0.201 0.122,0.211C0.126,0.221 0.135,0.226 0.149,0.226C0.176,0.226 0.201,0.213 0.222,0.186C0.243,0.159 0.264,0.117 0.283,0.062L0.305,0L0.217,0L0.046,-0.458L0.005,-0.458Z" style="fill:rgb(51,51,51);fill-rule:nonzero;"/>
            </g>
            <g transform="matrix(80,0,0,80,1125.25,610.026)">
                <path d="M0.25,-0.235L0.279,-0.235L0.279,-0.312C0.279,-0.375 0.276,-0.418 0.269,-0.44C0.262,-0.461 0.248,-0.472 0.228,-0.472C0.216,-0.472 0.205,-0.469 0.196,-0.463C0.186,-0.456 0.181,-0.448 0.181,-0.437C0.181,-0.426 0.183,-0.414 0.187,-0.403L0.212,-0.403C0.217,-0.389 0.22,-0.372 0.22,-0.353C0.22,-0.333 0.212,-0.316 0.195,-0.302C0.178,-0.287 0.157,-0.28 0.132,-0.28C0.075,-0.28 0.046,-0.308 0.046,-0.363C0.046,-0.445 0.116,-0.486 0.255,-0.486C0.334,-0.486 0.389,-0.472 0.42,-0.446C0.45,-0.419 0.465,-0.369 0.465,-0.297L0.465,-0.094C0.465,-0.059 0.475,-0.042 0.494,-0.042C0.517,-0.042 0.53,-0.076 0.534,-0.145L0.549,-0.144C0.546,-0.085 0.535,-0.045 0.516,-0.023C0.497,-0.001 0.465,0.01 0.421,0.01C0.341,0.01 0.295,-0.015 0.283,-0.064C0.274,-0.039 0.261,-0.02 0.244,-0.008C0.227,0.004 0.201,0.01 0.168,0.01C0.069,0.01 0.02,-0.03 0.02,-0.111C0.02,-0.158 0.039,-0.191 0.077,-0.209C0.114,-0.226 0.172,-0.235 0.25,-0.235ZM0.21,-0.112C0.21,-0.077 0.212,-0.055 0.216,-0.045C0.219,-0.035 0.226,-0.03 0.237,-0.03C0.247,-0.03 0.257,-0.039 0.266,-0.056C0.275,-0.073 0.279,-0.096 0.279,-0.126L0.279,-0.219L0.272,-0.219C0.231,-0.219 0.21,-0.189 0.21,-0.128L0.21,-0.112Z" style="fill:rgb(51,51,51);fill-rule:nonzero;"/>
            </g>
            <g transform="matrix(80,0,0,80,1169.17,610.026)">
                <path d="M0.344,-0.448C0.319,-0.448 0.298,-0.432 0.279,-0.4C0.26,-0.368 0.251,-0.33 0.251,-0.286L0.251,-0.018L0.322,-0.018L0.322,0L0.01,0L0.01,-0.018L0.065,-0.018L0.065,-0.458L0.01,-0.458L0.01,-0.476L0.251,-0.476L0.251,-0.38C0.26,-0.414 0.276,-0.44 0.301,-0.459C0.326,-0.477 0.354,-0.486 0.385,-0.486C0.416,-0.486 0.442,-0.477 0.462,-0.46C0.481,-0.442 0.491,-0.417 0.491,-0.385C0.491,-0.352 0.484,-0.327 0.469,-0.31C0.454,-0.293 0.432,-0.284 0.402,-0.284C0.371,-0.284 0.349,-0.294 0.335,-0.314C0.32,-0.334 0.318,-0.362 0.329,-0.397L0.365,-0.397C0.382,-0.431 0.375,-0.448 0.344,-0.448Z" style="fill:rgb(51,51,51);fill-rule:nonzero;"/>
            </g>
            <g transform="matrix(80,0,0,80,1208.37,610.026)">
                <path d="M0.273,0.01C0.187,0.01 0.123,-0.012 0.08,-0.057C0.037,-0.101 0.015,-0.163 0.015,-0.242C0.015,-0.321 0.039,-0.381 0.088,-0.423C0.136,-0.465 0.197,-0.486 0.272,-0.486C0.423,-0.486 0.496,-0.41 0.49,-0.258L0.208,-0.258L0.208,-0.219C0.208,-0.154 0.216,-0.104 0.233,-0.071C0.25,-0.038 0.279,-0.021 0.32,-0.021C0.397,-0.021 0.448,-0.062 0.472,-0.145L0.49,-0.142C0.477,-0.094 0.455,-0.057 0.422,-0.03C0.389,-0.003 0.339,0.01 0.273,0.01ZM0.209,-0.278L0.312,-0.278L0.312,-0.327C0.312,-0.381 0.309,-0.418 0.303,-0.438C0.296,-0.457 0.284,-0.467 0.265,-0.467C0.246,-0.467 0.232,-0.456 0.223,-0.436C0.214,-0.415 0.209,-0.378 0.209,-0.327L0.209,-0.278Z" style="fill:rgb(51,51,51);fill-rule:nonzero;"/>
            </g>
            <g transform="matrix(80,0,0,80,1247.25,610.026)">
                <path d="M0.227,-0.481L0.198,-0.747C0.225,-0.76 0.246,-0.767 0.263,-0.767C0.286,-0.767 0.297,-0.755 0.297,-0.73C0.297,-0.715 0.294,-0.693 0.288,-0.664L0.248,-0.481L0.227,-0.481ZM0.079,-0.481L0.05,-0.747C0.077,-0.76 0.098,-0.767 0.115,-0.767C0.138,-0.767 0.149,-0.755 0.149,-0.73C0.149,-0.715 0.146,-0.693 0.14,-0.664L0.1,-0.481L0.079,-0.481Z" style="fill:rgb(51,51,51);fill-rule:nonzero;"/>
            </g>
        </g>
    </g>
    <g transform="matrix(1.34612,0,0,1.06496,-63.0632,-432.106)">
        <path d="M1024.65,731.599C1024.65,710.869 1011.33,694.039 994.933,694.039L235.348,694.039C218.947,694.039 205.632,710.869 205.632,731.599L205.632,989.237C205.632,1009.97 218.947,1026.8 235.348,1026.8L994.933,1026.8C1011.33,1026.8 1024.65,1009.97 1024.65,989.237L1024.65,731.599Z" style="fill:none;stroke:rgb(0,213,214);stroke-width:2.88px;"/>
    </g>
    <g transform="matrix(1,0,0,1,80.2038,-179.488)">
        <path d="M249.87,840.881C323.052,840.615 366.187,879.955 376.173,962.987" style="fill:none;stroke:rgb(0,213,214);stroke-width:3.5px;"/>
    </g>
    <g transform="matrix(3.54576,0,0,0.93157,-1549.35,24.999)">
        <g transform="matrix(0.282027,0,0,1.07346,416.965,-53.0683)">
            <rect x="580.754" y="700.846" width="307.224" height="86.4" style="fill:white;"/>
        </g>
        <g transform="matrix(0.282027,0,0,1.07346,416.965,-53.0683)">
            <g transform="matrix(72,0,0,72,580.754,772.846)">
                <path d="M0.361,0C0.355,0 0.351,-0.003 0.349,-0.008L0.239,-0.325C0.238,-0.327 0.237,-0.328 0.235,-0.328L0.136,-0.328C0.133,-0.328 0.132,-0.327 0.132,-0.324L0.132,-0.01C0.132,-0.003 0.129,0 0.122,0L0.089,0C0.082,0 0.079,-0.003 0.079,-0.01L0.079,-0.69C0.079,-0.697 0.082,-0.7 0.089,-0.7L0.244,-0.7C0.291,-0.7 0.328,-0.683 0.357,-0.648C0.386,-0.613 0.4,-0.568 0.4,-0.512C0.4,-0.467 0.39,-0.429 0.371,-0.398C0.352,-0.367 0.325,-0.345 0.292,-0.334C0.289,-0.333 0.288,-0.332 0.289,-0.329L0.402,-0.011L0.403,-0.007C0.403,-0.002 0.4,0 0.394,0L0.361,0ZM0.136,-0.653C0.133,-0.653 0.132,-0.652 0.132,-0.649L0.132,-0.376C0.132,-0.373 0.133,-0.372 0.136,-0.372L0.238,-0.372C0.271,-0.372 0.297,-0.385 0.317,-0.411C0.337,-0.436 0.347,-0.47 0.347,-0.512C0.347,-0.555 0.337,-0.589 0.317,-0.615C0.297,-0.64 0.271,-0.653 0.238,-0.653L0.136,-0.653Z" style="fill:rgb(51,51,51);fill-rule:nonzero;"/>
            </g>
            <g transform="matrix(72,0,0,72,613.226,772.846)">
                <path d="M0.336,0C0.33,0 0.326,-0.003 0.325,-0.009L0.298,-0.14C0.298,-0.141 0.298,-0.142 0.297,-0.143C0.296,-0.144 0.294,-0.144 0.293,-0.144L0.097,-0.144C0.096,-0.144 0.094,-0.144 0.094,-0.143C0.092,-0.142 0.092,-0.141 0.092,-0.14L0.065,-0.009C0.064,-0.003 0.061,0 0.054,0L0.021,0C0.018,0 0.015,-0.001 0.014,-0.003C0.012,-0.005 0.011,-0.008 0.012,-0.011L0.164,-0.691C0.165,-0.697 0.169,-0.7 0.175,-0.7L0.215,-0.7C0.222,-0.7 0.225,-0.697 0.226,-0.691L0.379,-0.011L0.379,-0.009C0.379,-0.003 0.376,0 0.37,0L0.336,0ZM0.103,-0.192C0.103,-0.189 0.104,-0.188 0.106,-0.188L0.283,-0.188C0.285,-0.188 0.286,-0.189 0.286,-0.192L0.197,-0.615C0.196,-0.617 0.196,-0.618 0.195,-0.618C0.194,-0.618 0.194,-0.617 0.193,-0.615L0.103,-0.192Z" style="fill:rgb(51,51,51);fill-rule:nonzero;"/>
            </g>
            <g transform="matrix(72,0,0,72,641.378,772.846)">
                <path d="M0.089,0C0.082,0 0.079,-0.003 0.079,-0.01L0.079,-0.69C0.079,-0.697 0.082,-0.7 0.089,-0.7L0.236,-0.7C0.285,-0.7 0.324,-0.684 0.353,-0.651C0.382,-0.618 0.396,-0.573 0.396,-0.516L0.396,-0.184C0.396,-0.127 0.382,-0.083 0.353,-0.05C0.324,-0.017 0.285,0 0.236,0L0.089,0ZM0.132,-0.051C0.132,-0.048 0.133,-0.047 0.136,-0.047L0.236,-0.047C0.269,-0.048 0.295,-0.06 0.314,-0.085C0.333,-0.109 0.342,-0.142 0.342,-0.185L0.342,-0.514C0.342,-0.557 0.333,-0.591 0.314,-0.616C0.295,-0.641 0.268,-0.653 0.235,-0.653L0.136,-0.653C0.133,-0.653 0.132,-0.652 0.132,-0.649L0.132,-0.051Z" style="fill:rgb(51,51,51);fill-rule:nonzero;"/>
            </g>
            <g transform="matrix(72,0,0,72,674.714,772.846)">
                <path d="M0.089,0C0.082,0 0.079,-0.003 0.079,-0.01L0.079,-0.69C0.079,-0.697 0.082,-0.7 0.089,-0.7L0.122,-0.7C0.129,-0.7 0.132,-0.697 0.132,-0.69L0.132,-0.01C0.132,-0.003 0.129,0 0.122,0L0.089,0Z" style="fill:rgb(51,51,51);fill-rule:nonzero;"/>
            </g>
            <g transform="matrix(72,0,0,72,689.906,772.846)">
                <path d="M0.225,0.008C0.176,0.008 0.137,-0.008 0.107,-0.039C0.076,-0.07 0.061,-0.11 0.061,-0.16L0.061,-0.539C0.061,-0.59 0.076,-0.63 0.106,-0.662C0.136,-0.692 0.176,-0.708 0.225,-0.708C0.274,-0.708 0.314,-0.692 0.345,-0.662C0.376,-0.63 0.391,-0.59 0.391,-0.539L0.391,-0.16C0.391,-0.11 0.376,-0.07 0.345,-0.039C0.314,-0.008 0.274,0.008 0.225,0.008ZM0.225,-0.039C0.258,-0.039 0.286,-0.05 0.307,-0.072C0.328,-0.094 0.338,-0.123 0.338,-0.158L0.338,-0.541C0.338,-0.576 0.328,-0.605 0.307,-0.628C0.286,-0.65 0.258,-0.661 0.225,-0.661C0.192,-0.661 0.166,-0.65 0.145,-0.628C0.124,-0.605 0.114,-0.576 0.114,-0.541L0.114,-0.158C0.114,-0.123 0.124,-0.094 0.145,-0.072C0.166,-0.05 0.192,-0.039 0.225,-0.039Z" style="fill:rgb(51,51,51);fill-rule:nonzero;"/>
            </g>
            <g transform="matrix(72,0,0,72,722.378,772.846)">
                <path d="M0.089,0C0.082,0 0.079,-0.003 0.079,-0.01L0.079,-0.69C0.079,-0.697 0.082,-0.7 0.089,-0.7L0.122,-0.7C0.129,-0.7 0.132,-0.697 0.132,-0.69L0.132,-0.051C0.132,-0.048 0.133,-0.047 0.136,-0.047L0.37,-0.047C0.377,-0.047 0.38,-0.044 0.38,-0.037L0.38,-0.01C0.38,-0.003 0.377,0 0.37,0L0.089,0Z" style="fill:rgb(51,51,51);fill-rule:nonzero;"/>
            </g>
            <g transform="matrix(72,0,0,72,750.242,772.846)">
                <path d="M0.225,0.008C0.176,0.008 0.137,-0.008 0.107,-0.039C0.076,-0.07 0.061,-0.11 0.061,-0.16L0.061,-0.539C0.061,-0.59 0.076,-0.63 0.106,-0.662C0.136,-0.692 0.176,-0.708 0.225,-0.708C0.274,-0.708 0.314,-0.692 0.345,-0.662C0.376,-0.63 0.391,-0.59 0.391,-0.539L0.391,-0.16C0.391,-0.11 0.376,-0.07 0.345,-0.039C0.314,-0.008 0.274,0.008 0.225,0.008ZM0.225,-0.039C0.258,-0.039 0.286,-0.05 0.307,-0.072C0.328,-0.094 0.338,-0.123 0.338,-0.158L0.338,-0.541C0.338,-0.576 0.328,-0.605 0.307,-0.628C0.286,-0.65 0.258,-0.661 0.225,-0.661C0.192,-0.661 0.166,-0.65 0.145,-0.628C0.124,-0.605 0.114,-0.576 0.114,-0.541L0.114,-0.158C0.114,-0.123 0.124,-0.094 0.145,-0.072C0.166,-0.05 0.192,-0.039 0.225,-0.039Z" style="fill:rgb(51,51,51);fill-rule:nonzero;"/>
            </g>
            <g transform="matrix(72,0,0,72,782.714,772.846)">
                <path d="M0.223,0.008C0.174,0.008 0.135,-0.007 0.106,-0.037C0.076,-0.066 0.061,-0.105 0.061,-0.154L0.061,-0.546C0.061,-0.595 0.076,-0.634 0.106,-0.664C0.135,-0.693 0.174,-0.708 0.223,-0.708C0.272,-0.708 0.311,-0.693 0.341,-0.664C0.371,-0.634 0.386,-0.595 0.386,-0.546L0.386,-0.502C0.386,-0.495 0.383,-0.492 0.376,-0.492L0.343,-0.492C0.336,-0.492 0.333,-0.495 0.333,-0.502L0.333,-0.547C0.333,-0.582 0.323,-0.609 0.303,-0.63C0.283,-0.651 0.256,-0.661 0.223,-0.661C0.19,-0.661 0.163,-0.651 0.143,-0.63C0.123,-0.609 0.113,-0.582 0.113,-0.547L0.113,-0.153C0.113,-0.118 0.123,-0.091 0.143,-0.07C0.163,-0.049 0.19,-0.039 0.223,-0.039C0.256,-0.039 0.283,-0.049 0.303,-0.07C0.323,-0.091 0.333,-0.118 0.333,-0.153L0.333,-0.294C0.333,-0.297 0.332,-0.298 0.329,-0.298L0.235,-0.298C0.228,-0.298 0.225,-0.301 0.225,-0.308L0.225,-0.335C0.225,-0.342 0.228,-0.345 0.235,-0.345L0.376,-0.345C0.383,-0.345 0.386,-0.342 0.386,-0.335L0.386,-0.154C0.386,-0.105 0.371,-0.066 0.341,-0.037C0.311,-0.007 0.272,0.008 0.223,0.008Z" style="fill:rgb(51,51,51);fill-rule:nonzero;"/>
            </g>
            <g transform="matrix(72,0,0,72,814.898,772.846)">
                <path d="M0.089,0C0.082,0 0.079,-0.003 0.079,-0.01L0.079,-0.69C0.079,-0.697 0.082,-0.7 0.089,-0.7L0.122,-0.7C0.129,-0.7 0.132,-0.697 0.132,-0.69L0.132,-0.01C0.132,-0.003 0.129,0 0.122,0L0.089,0Z" style="fill:rgb(51,51,51);fill-rule:nonzero;"/>
            </g>
            <g transform="matrix(72,0,0,72,830.09,772.846)">
                <path d="M0.204,0.008C0.157,0.008 0.118,-0.008 0.089,-0.041C0.06,-0.073 0.045,-0.115 0.045,-0.167L0.045,-0.188C0.045,-0.195 0.048,-0.198 0.055,-0.198L0.087,-0.198C0.094,-0.198 0.097,-0.195 0.097,-0.188L0.097,-0.169C0.097,-0.13 0.107,-0.098 0.127,-0.074C0.146,-0.05 0.172,-0.038 0.203,-0.038C0.234,-0.038 0.26,-0.05 0.281,-0.073C0.302,-0.096 0.312,-0.127 0.312,-0.164C0.312,-0.189 0.307,-0.21 0.298,-0.228C0.288,-0.246 0.276,-0.262 0.261,-0.275C0.246,-0.288 0.221,-0.307 0.187,-0.333C0.152,-0.359 0.126,-0.381 0.108,-0.398C0.089,-0.415 0.074,-0.435 0.062,-0.459C0.05,-0.482 0.044,-0.51 0.044,-0.543C0.044,-0.594 0.058,-0.635 0.087,-0.664C0.116,-0.693 0.153,-0.708 0.198,-0.708C0.247,-0.708 0.286,-0.692 0.315,-0.659C0.344,-0.626 0.359,-0.583 0.359,-0.53L0.359,-0.505C0.359,-0.498 0.356,-0.495 0.349,-0.495L0.316,-0.495C0.309,-0.495 0.306,-0.498 0.306,-0.505L0.306,-0.53C0.306,-0.569 0.296,-0.601 0.277,-0.626C0.257,-0.65 0.231,-0.662 0.198,-0.662C0.169,-0.662 0.144,-0.652 0.125,-0.631C0.106,-0.61 0.096,-0.58 0.096,-0.542C0.096,-0.519 0.1,-0.5 0.109,-0.483C0.117,-0.466 0.129,-0.451 0.145,-0.436C0.16,-0.421 0.184,-0.402 0.216,-0.378C0.255,-0.349 0.285,-0.325 0.304,-0.307C0.323,-0.289 0.338,-0.269 0.349,-0.248C0.359,-0.227 0.364,-0.201 0.364,-0.171C0.364,-0.116 0.349,-0.073 0.32,-0.041C0.29,-0.008 0.251,0.008 0.204,0.008Z" style="fill:rgb(51,51,51);fill-rule:nonzero;"/>
            </g>
            <g transform="matrix(72,0,0,72,858.386,772.846)">
                <path d="M0.365,-0.7C0.372,-0.7 0.375,-0.697 0.375,-0.69L0.375,-0.663C0.375,-0.656 0.372,-0.653 0.365,-0.653L0.232,-0.653C0.229,-0.653 0.228,-0.652 0.228,-0.649L0.228,-0.01C0.228,-0.003 0.225,0 0.218,0L0.185,0C0.178,0 0.175,-0.003 0.175,-0.01L0.175,-0.649C0.175,-0.652 0.174,-0.653 0.171,-0.653L0.046,-0.653C0.039,-0.653 0.036,-0.656 0.036,-0.663L0.036,-0.69C0.036,-0.697 0.039,-0.7 0.046,-0.7L0.365,-0.7Z" style="fill:rgb(51,51,51);fill-rule:nonzero;"/>
            </g>
        </g>
    </g>
</svg>
