<?xml version="1.0" encoding="UTF-8" standalone="no"?>
<svg
   xmlns:dc="http://purl.org/dc/elements/1.1/"
   xmlns:cc="http://creativecommons.org/ns#"
   xmlns:rdf="http://www.w3.org/1999/02/22-rdf-syntax-ns#"
   xmlns:svg="http://www.w3.org/2000/svg"
   xmlns="http://www.w3.org/2000/svg"
   xmlns:sodipodi="http://sodipodi.sourceforge.net/DTD/sodipodi-0.dtd"
   xmlns:inkscape="http://www.inkscape.org/namespaces/inkscape"
   sodipodi:docname="rysunek.svg"
   inkscape:version="1.0 (4035a4fb49, 2020-05-01)"
   id="svg8"
   version="1.1"
   viewBox="0 0 210 297"
   height="297mm"
   width="210mm">
  <defs
     id="defs2" />
  <sodipodi:namedview
     inkscape:window-maximized="0"
     inkscape:window-y="1620"
     inkscape:window-x="0"
     inkscape:window-height="1080"
     inkscape:window-width="1920"
     showgrid="false"
     inkscape:document-rotation="0"
     inkscape:current-layer="layer1"
     inkscape:document-units="mm"
     inkscape:cy="626.59143"
     inkscape:cx="358.10833"
     inkscape:zoom="0.49497475"
     inkscape:pageshadow="2"
     inkscape:pageopacity="0.0"
     borderopacity="1.0"
     bordercolor="#666666"
     pagecolor="#ffffff"
     id="base" />
  <metadata
     id="metadata5">
    <rdf:RDF>
      <cc:Work
         rdf:about="">
        <dc:format>image/svg+xml</dc:format>
        <dc:type
           rdf:resource="http://purl.org/dc/dcmitype/StillImage" />
        <dc:title />
      </cc:Work>
    </rdf:RDF>
  </metadata>
  <g
     id="layer1"
     inkscape:groupmode="layer"
     inkscape:label="Warstwa 1">
    <g
       transform="matrix(0.6439231,0,0,0.52163949,8.4108643,157.83141)"
       id="Blue">
      <path
         id="path10"
         style="fill:#5f7d95"
         data-old_color="#fff"
         class="active-path"
         data-original="#FFF"
         fill="#fff"
         d="m 21.134,18.8 a 10.045,10.045 0 1 0 -4.742,3.6 L 22,25 Z" />
      <path
         id="path12"
         data-old_color="#7cb8eb"
         style="fill:#5f7d95"
         class=""
         data-original="#7CB8EB"
         fill="#7cb8eb"
         d="M 18,11 H 15 V 8 h -4 v 3 H 8 v 4 h 3 v 3 h 4 v -3 h 3 z" />
      <path
         id="path14"
         data-old_color="#cdeef6"
         style="fill:#5f7d95"
         class=""
         data-original="#CDEEF6"
         fill="#cdeef6"
         d="m 36,4 h 6 v 4 h -6 z" />
      <path
         id="path16"
         data-old_color="#cdeef6"
         style="fill:#5f7d95"
         class=""
         data-original="#CDEEF6"
         fill="#cdeef6"
         d="m 36,8 h 6 v 4 h -6 z" />
      <path
         id="path18"
         data-old_color="#cdeef6"
         style="fill:#5f7d95"
         class=""
         data-original="#CDEEF6"
         fill="#cdeef6"
         d="m 36,12 h 6 v 4 h -6 z" />
      <path
         id="path20"
         data-old_color="#cdeef6"
         style="fill:#5f7d95"
         class=""
         data-original="#CDEEF6"
         fill="#cdeef6"
         d="m 36,16 h 6 v 4 h -6 z" />
      <path
         id="path22"
         data-old_color="#cdeef6"
         style="fill:#5f7d95"
         class=""
         data-original="#CDEEF6"
         fill="#cdeef6"
         d="m 36,20 h 6 v 4 h -6 z" />
      <path
         id="path24"
         data-old_color="#7cb8eb"
         style="fill:#5f7d95"
         class=""
         data-original="#7CB8EB"
         fill="#7cb8eb"
         d="m 39,27 v -3 h -3 l -4,4 c -0.425,-3.735 -2.139,-7 -4,-7 -5.384,0 -9,10 -9,10 -3.077,7.692 -1.384,30 4,30 5.384,0 9,-14.154 9,-18 0,-3.846 -3.308,-3.385 -1,-8 z" />
      <g
         id="g42"
         fill="#4f83d1">
        <path
           id="path26"
           data-old_color="#4F83D1"
           style="fill:#374957"
           class=""
           data-original="#4F83D1"
           transform="matrix(0.707,-0.707,0.707,0.707,-10.926,30.621)"
           d="m 25.136,27.5 h 12.728 v 2 H 25.136 Z" />
        <path
           id="path28"
           data-old_color="#4F83D1"
           style="fill:#374957"
           class=""
           data-original="#4F83D1"
           transform="matrix(0.707,-0.707,0.707,0.707,-17.669,31.343)"
           d="m 26.172,36 h 5.657 v 2 h -5.657 z" />
        <path
           id="path30"
           data-old_color="#4F83D1"
           style="fill:#374957"
           class=""
           data-original="#4F83D1"
           d="M 22,44.006 20,44 c 0,-2.075 1.463,-6 7,-6 v 2 c -4.808,0 -4.994,3.6 -5,4.006 z" />
        <path
           id="path32"
           data-old_color="#4F83D1"
           style="fill:#374957"
           class=""
           data-original="#4F83D1"
           d="M 22.707,50.707 21.293,49.293 A 16.107,16.107 0 0 0 26,39 h 2 a 17.831,17.831 0 0 1 -5.293,11.707 z" />
        <path
           id="path34"
           data-old_color="#4F83D1"
           style="fill:#374957"
           class=""
           data-original="#4F83D1"
           d="M 24.02,35.124 A 5.979,5.979 0 0 1 20.4,33.8 l 1.2,-1.6 c 3.165,2.373 5.5,-0.67 5.6,-0.8 l 1.6,1.2 a 6.284,6.284 0 0 1 -4.78,2.524 z" />
        <path
           id="path36"
           data-old_color="#4F83D1"
           style="fill:#374957"
           class=""
           data-original="#4F83D1"
           d="m 24,27 h 2 v 2 h -2 z" />
        <path
           id="path38"
           data-old_color="#4F83D1"
           style="fill:#374957"
           class=""
           data-original="#4F83D1"
           d="m 22,53 h 2 v 2 h -2 z" />
        <path
           id="path40"
           data-old_color="#4F83D1"
           style="fill:#374957"
           class=""
           data-original="#4F83D1"
           d="m 25,50 h 2 v 2 h -2 z" />
      </g>
      <path
         id="path44"
         data-old_color="#7cb8eb"
         style="fill:#5f7d95"
         class=""
         data-original="#7CB8EB"
         fill="#7cb8eb"
         d="m 39,27 v -3 h 3 l 4,4 c 0.425,-3.735 2.139,-7 4,-7 5.385,0 9,10 9,10 3.077,7.692 1.385,30 -4,30 -5.385,0 -9,-14.154 -9,-18 0,-3.846 3.308,-3.385 1,-8 z" />
      <g
         id="g78"
         fill="#4f83d1">
        <path
           id="path46"
           data-old_color="#4F83D1"
           style="fill:#374957"
           class=""
           data-original="#4F83D1"
           transform="matrix(0.707,-0.707,0.707,0.707,-6.533,41.228)"
           d="m 45.5,22.136 h 2 v 12.728 h -2 z" />
        <path
           id="path48"
           data-old_color="#4F83D1"
           style="fill:#374957"
           class=""
           data-original="#4F83D1"
           transform="matrix(0.707,-0.707,0.707,0.707,-11.811,45.485)"
           d="m 48,34.172 h 2 v 5.657 h -2 z" />
        <path
           id="path50"
           data-old_color="#4F83D1"
           style="fill:#374957"
           class=""
           data-original="#4F83D1"
           d="m 58,44 h -2 c -0.005,-0.4 -0.191,-4 -5,-4 v -2 c 5.537,0 7,3.925 7,6 z" />
        <path
           id="path52"
           data-old_color="#4F83D1"
           style="fill:#374957"
           class=""
           data-original="#4F83D1"
           d="M 55.293,50.707 A 17.831,17.831 0 0 1 50,39 h 1 1 a 16.119,16.119 0 0 0 4.707,10.3 z" />
        <path
           id="path54"
           data-old_color="#4F83D1"
           style="fill:#374957"
           class=""
           data-original="#4F83D1"
           d="M 53.981,35.124 A 6.286,6.286 0 0 1 49.2,32.6 l 1.6,-1.2 a 3.849,3.849 0 0 0 5.6,0.8 l 1.2,1.6 a 5.976,5.976 0 0 1 -3.619,1.324 z" />
        <path
           id="path56"
           data-old_color="#4F83D1"
           style="fill:#374957"
           class=""
           data-original="#4F83D1"
           d="m 52,27 h 2 v 2 h -2 z" />
        <path
           id="path58"
           data-old_color="#4F83D1"
           style="fill:#374957"
           class=""
           data-original="#4F83D1"
           d="m 54,53 h 2 v 2 h -2 z" />
        <path
           id="path60"
           data-old_color="#4F83D1"
           style="fill:#374957"
           class=""
           data-original="#4F83D1"
           d="m 51,50 h 2 v 2 h -2 z" />
        <path
           id="path62"
           data-old_color="#4F83D1"
           style="fill:#374957"
           class=""
           data-original="#4F83D1"
           d="m 8,16 h 2 v 2 a 1,1 0 0 0 1,1 h 4 a 1,1 0 0 0 1,-1 v -2 h 2 a 1,1 0 0 0 1,-1 V 11 A 1,1 0 0 0 18,10 H 16 V 8 A 1,1 0 0 0 15,7 h -4 a 1,1 0 0 0 -1,1 v 2 H 8 a 1,1 0 0 0 -1,1 v 4 a 1,1 0 0 0 1,1 z m 1,-4 h 2 a 1,1 0 0 0 1,-1 V 9 h 2 v 2 a 1,1 0 0 0 1,1 h 2 v 2 h -2 a 1,1 0 0 0 -1,1 v 2 H 12 V 15 A 1,1 0 0 0 11,14 H 9 Z" />
        <path
           id="path64"
           data-old_color="#4F83D1"
           style="fill:#374957"
           class=""
           data-original="#4F83D1"
           d="m 13,24 a 10.9,10.9 0 0 0 3.334,-0.527 l 4.3,2 a 29.264,29.264 0 0 0 -2.565,5.158 c -2.591,6.477 -2.06,23.664 1.81,29.381 A 3.818,3.818 0 0 0 23,62 c 6.36,0 10,-14.932 10,-19 a 6.22,6.22 0 0 0 -1.2,-3.724 c -0.624,-0.974 -1.006,-1.57 0.022,-3.686 L 39,28.414 46.176,35.59 c 1.029,2.116 0.646,2.712 0.022,3.686 A 6.22,6.22 0 0 0 45,43 c 0,4.068 3.641,19 10,19 a 3.814,3.814 0 0 0 3.117,-1.99 c 3.871,-5.717 4.4,-22.9 1.824,-29.35 C 59.783,30.225 56.018,20 50,20 c -2.239,0 -3.9,2.75 -4.653,5.932 L 43,23.586 V 4 A 1,1 0 0 0 42,3 h -6 a 1,1 0 0 0 -1,1 v 19.586 l -2.347,2.347 C 31.9,22.75 30.239,20 28,20 a 7.469,7.469 0 0 0 -5.3,2.76 L 22.181,19.049 A 10.994,10.994 0 1 0 13,24 Z m 36.27,8.683 A 6.254,6.254 0 0 0 53.981,35.124 5.976,5.976 0 0 0 57.6,33.8 l -1.2,-1.6 a 3.611,3.611 0 0 1 -4.731,0.055 l -4.6,-4.6 C 47.57,24.2 49.1,22 50,22 c 3.834,0 7.118,6.743 8.071,9.372 2.541,6.35 1.578,22.809 -1.609,27.516 C 56.118,59.4 55.586,60 55,60 50.69,60 47,47.042 47,43 a 4.273,4.273 0 0 1 0.882,-2.645 5.135,5.135 0 0 0 0.892,-2.167 l 1.244,1.244 a 18.043,18.043 0 0 0 5.275,11.275 l 1.414,-1.414 A 16.384,16.384 0 0 1 52.1,40.079 4.07,4.07 0 0 1 56,44 h 2 c 0,-2.018 -1.4,-5.776 -6.566,-5.981 L 40,26.586 V 25 h 1.586 z M 37,5 h 4 v 2 h -4 z m 0,4 h 4 v 2 h -4 z m 0,4 h 4 v 2 h -4 z m 0,4 h 4 v 2 h -4 z m 0,4 h 4 v 2 h -4 z m -9,1 c 0.9,0 2.43,2.2 2.933,5.653 l -4.576,4.576 A 3.627,3.627 0 0 1 21.6,32.2 l -1.2,1.6 a 5.979,5.979 0 0 0 3.62,1.324 6.256,6.256 0 0 0 4.711,-2.441 L 36.414,25 H 38 v 1.586 L 26.567,38.019 C 21.4,38.224 20,41.982 20,44 l 2,0.006 a 4.072,4.072 0 0 1 3.9,-3.927 16.377,16.377 0 0 1 -4.607,9.214 l 1.414,1.414 a 18.037,18.037 0 0 0 5.275,-11.275 l 1.244,-1.244 A 5.137,5.137 0 0 0 30.119,40.355 4.279,4.279 0 0 1 31,43 c 0,4.042 -3.69,17 -8,17 -0.585,0 -1.118,-0.6 -1.461,-1.112 C 18.351,54.18 17.388,37.722 19.939,31.34 20.88,28.742 24.158,22 28,22 Z M 13,4 a 8.989,8.989 0 0 1 7.32,14.221 1,1 0 0 0 -0.176,0.72 l 0.612,4.379 -3.943,-1.83 a 1.015,1.015 0 0 0 -0.421,-0.093 0.994,0.994 0 0 0 -0.34,0.06 A 9,9 0 1 1 13,4 Z" />
        <path
           id="path66"
           data-old_color="#4F83D1"
           style="fill:#374957"
           class=""
           data-original="#4F83D1"
           d="m 24,27 h 2 v 2 h -2 z" />
        <path
           id="path68"
           data-old_color="#4F83D1"
           style="fill:#374957"
           class=""
           data-original="#4F83D1"
           d="m 22,53 h 2 v 2 h -2 z" />
        <path
           id="path70"
           data-old_color="#4F83D1"
           style="fill:#374957"
           class=""
           data-original="#4F83D1"
           d="m 25,50 h 2 v 2 h -2 z" />
        <path
           id="path72"
           data-old_color="#4F83D1"
           style="fill:#374957"
           class=""
           data-original="#4F83D1"
           d="m 52,27 h 2 v 2 h -2 z" />
        <path
           id="path74"
           data-old_color="#4F83D1"
           style="fill:#374957"
           class=""
           data-original="#4F83D1"
           d="m 54,53 h 2 v 2 h -2 z" />
        <path
           id="path76"
           data-old_color="#4F83D1"
           style="fill:#374957"
           class=""
           data-original="#4F83D1"
           d="m 51,50 h 2 v 2 h -2 z" />
      </g>
    </g>
    <g
       transform="matrix(0.07844905,0,0,0.07954327,162.19499,152.82824)"
       id="g177">
      <path
         d="m 264,80 h -16 a 8,8 0 0 0 0,16 h 16 a 8,8 0 0 0 0,-16 z"
         data-original="#000000"
         class="active-path"
         data-old_color="#000000"
         fill="#374957"
         id="path163" />
      <path
         d="m 264,112 h -16 a 8,8 0 0 0 0,16 h 16 a 8,8 0 0 0 0,-16 z"
         data-original="#000000"
         class="active-path"
         data-old_color="#000000"
         fill="#374957"
         id="path165" />
      <path
         d="M 112,360 V 344 H 96 v 16 a 8,8 0 0 1 -8,8 H 72 v 16 h 16 a 8,8 0 0 1 8,8 v 16 h 16 v -16 a 8,8 0 0 1 8,-8 h 16 v -16 h -16 a 8,8 0 0 1 -8,-8 z"
         data-original="#000000"
         class="active-path"
         data-old_color="#000000"
         fill="#374957"
         id="path167" />
      <path
         d="m 175.431,393.918 c -4.008,-28.808 -6.674,-49.278 -7.2,-70.507 -0.545,-22.145 6.256,-49.165 14.527,-79.629 1.621,-5.971 3.287,-11.166 4.758,-15.75 4.219,-13.155 5.961,-19.209 3,-24.835 -3.4,-6.48 -18.322,-11.4 -28.356,-11.19 -15.33,0.35 -32.7,0.748 -52.735,14.123 -26.925,17.985 -61.569,55.045 -73.633,129.46 -8.1,49.948 -1.725,93.874 5.132,107.833 0.2,0.4 0.411,0.847 0.638,1.319 2.606,5.426 6.967,14.508 16.284,17.89 A 24.107,24.107 0 0 0 73.9,462.58 l 0.1,-0.033 c 6.218,-2.032 11.015,-5.109 16.094,-8.367 a 117.394,117.394 0 0 1 11.323,-6.657 c 9.4,-4.68 15.793,-3.519 22.563,-2.292 a 72.982,72.982 0 0 0 16.416,1.457 l 0.822,-0.021 c 23.137,-0.575 37.507,-4.627 42.707,-12.043 1.217,-1.736 0.946,-3.583 -1.809,-12.352 a 162.982,162.982 0 0 1 -6.685,-28.354 z M 152,392 a 8,8 0 0 1 -8,8 h -16 v 16 a 8,8 0 0 1 -8,8 H 88 a 8,8 0 0 1 -8,-8 V 400 H 64 a 8,8 0 0 1 -8,-8 v -32 a 8,8 0 0 1 8,-8 h 16 v -16 a 8,8 0 0 1 8,-8 h 32 a 8,8 0 0 1 8,8 v 16 h 16 a 8,8 0 0 1 8,8 z"
         data-original="#000000"
         class="active-path"
         data-old_color="#000000"
         fill="#374957"
         id="path169" />
      <path
         d="m 402.571,206.13 c -20.03,-13.375 -37.405,-13.773 -52.735,-14.123 -10.026,-0.2 -24.951,4.709 -28.356,11.189 -2.956,5.627 -1.214,11.681 3,24.836 1.471,4.584 3.137,9.779 4.758,15.75 8.271,30.464 15.072,57.484 14.527,79.629 -0.526,21.229 -3.192,41.7 -7.2,70.507 a 162.982,162.982 0 0 1 -6.689,28.354 c -2.755,8.769 -3.026,10.616 -1.809,12.352 5.2,7.416 19.57,11.468 42.707,12.043 l 0.822,0.021 a 73.05,73.05 0 0 0 16.416,-1.457 50.713,50.713 0 0 1 9.211,-1.09 29.018,29.018 0 0 1 13.352,3.382 117.394,117.394 0 0 1 11.325,6.657 c 5.079,3.258 9.876,6.335 16.094,8.367 l 0.1,0.033 a 24.084,24.084 0 0 0 16.059,0.051 c 9.316,-3.381 13.677,-12.463 16.283,-17.889 0.227,-0.472 0.44,-0.914 0.638,-1.319 6.857,-13.959 13.23,-57.885 5.132,-107.833 C 464.144,261.175 429.505,224.115 402.571,206.13 Z M 454.9,435.467 a 8.0002618,8.0002618 0 0 1 -14.42,-6.934 c 0.2,-0.42 21.115,-46.941 -8.1,-138.092 a 8,8 0 1 1 15.236,-4.882 C 479,383.468 455.9,433.39 454.9,435.467 Z"
         data-original="#000000"
         class="active-path"
         data-old_color="#000000"
         fill="#374957"
         id="path171" />
      <path
         d="M 326.521,303.954 C 296.321,302.982 272,272.454 272,235.048 V 158.857 C 272,150.665 264.822,144 256,144 c -8.822,0 -16,6.665 -16,14.857 v 76.191 c 0,37.41 -24.325,67.934 -54.521,68.906 a 121.188,121.188 0 0 0 -1.252,19.063 c 0.173,6.986 0.578,13.823 1.2,20.96 C 219.489,343.482 248,325.384 248,304 a 8,8 0 0 1 16,0 c 0,21.384 28.511,39.482 62.574,39.977 0.621,-7.137 1.026,-13.974 1.2,-20.96 a 121.188,121.188 0 0 0 -1.253,-19.063 z"
         data-original="#000000"
         class="active-path"
         data-old_color="#000000"
         fill="#374957"
         id="path173" />
      <path
         d="m 264,48 h -16 a 8,8 0 0 0 0,16 h 16 a 8,8 0 0 0 0,-16 z"
         data-original="#000000"
         class="active-path"
         data-old_color="#000000"
         fill="#374957"
         id="path175" />
    </g>
  </g>
</svg>
